<svg width="89" height="89" viewBox="0 0 89 89" fill="none" xmlns="http://www.w3.org/2000/svg">
<path fill-rule="evenodd" clip-rule="evenodd" d="M0.5 44.5832C0.5 20.3287 20.1622 0.666504 44.4167 0.666504C68.6712 0.666504 88.3333 20.3287 88.3333 44.5832C88.3333 68.8377 68.6712 88.4998 44.4167 88.4998C20.1622 88.4998 0.5 68.8377 0.5 44.5832ZM71.9254 32.4676C73.136 33.5358 73.136 35.2677 71.9254 36.3359L42.992 61.8654C41.7814 62.9336 39.8186 62.9336 38.608 61.8654L22.0746 47.2771C20.864 46.2089 20.864 44.477 22.0746 43.4088C23.2853 42.3406 25.2481 42.3406 26.4587 43.4088L40.8 56.0629L67.5413 32.4676C68.7519 31.3995 70.7147 31.3995 71.9254 32.4676Z" fill="#2F80ED"/>
</svg>
