<svg width="16" height="20" viewBox="0 0 16 20" fill="none" xmlns="http://www.w3.org/2000/svg">
<path d="M6.50006 14.0001C6.50006 13.1717 7.17163 12.5001 8.00006 12.5001C8.82849 12.5001 9.50006 13.1717 9.50006 14.0001C9.50006 14.8285 8.82849 15.5001 8.00006 15.5001C7.17163 15.5001 6.50006 14.8285 6.50006 14.0001Z" fill="black"/>
<path fill-rule="evenodd" clip-rule="evenodd" d="M3.62171 8.59725L3.30627 5.75828C3.26583 5.3943 3.26583 5.02696 3.30627 4.66298L3.32904 4.45809C3.57053 2.2847 5.27913 0.565038 7.45091 0.309534C7.81574 0.266614 8.18434 0.266614 8.54916 0.309534C10.7209 0.565038 12.4295 2.2847 12.671 4.45809L12.6938 4.66298C12.7342 5.02696 12.7342 5.3943 12.6938 5.75828L12.3784 8.59725L13.065 8.65206C14.1477 8.73849 15.0318 9.5524 15.2073 10.6243C15.5734 12.8599 15.5734 15.1403 15.2073 17.3759C15.0318 18.4478 14.1477 19.2617 13.065 19.3482L11.5688 19.4676C9.19345 19.6572 6.80673 19.6572 4.43134 19.4676L2.93521 19.3482C1.85249 19.2617 0.96838 18.4478 0.792864 17.3759C0.426793 15.1403 0.426793 12.8599 0.792864 10.6243C0.96838 9.5524 1.85248 8.73849 2.93521 8.65206L3.62171 8.59725ZM7.62617 1.79926C7.87456 1.77004 8.12551 1.77004 8.3739 1.79926C9.85253 1.97322 11.0158 3.14402 11.1802 4.62373L11.203 4.82863C11.2312 5.08252 11.2312 5.33874 11.203 5.59263L10.8818 8.48308C8.96262 8.3595 7.03746 8.3595 5.11826 8.48309L4.7971 5.59263C4.76889 5.33875 4.76889 5.08252 4.7971 4.82863L4.81986 4.62373C4.98428 3.14402 6.14755 1.97322 7.62617 1.79926ZM11.4495 10.0279C9.15353 9.84457 6.84664 9.84457 4.55071 10.0279L3.05458 10.1473C2.65965 10.1788 2.33717 10.4757 2.27315 10.8667C1.93336 12.9418 1.93336 15.0584 2.27315 17.1335C2.33717 17.5245 2.65965 17.8214 3.05458 17.8529L4.55071 17.9723C6.84664 18.1556 9.15354 18.1556 11.4495 17.9723L12.9456 17.8529C13.3405 17.8214 13.663 17.5245 13.727 17.1335C14.0668 15.0584 14.0668 12.9418 13.727 10.8667C13.663 10.4757 13.3405 10.1788 12.9456 10.1473L11.4495 10.0279Z" fill="black"/>
</svg>
