<svg width="256" height="256" viewBox="0 0 256 256" fill="none" xmlns="http://www.w3.org/2000/svg">
<rect width="256" height="256" fill="#E5E5E5"/>
<rect x="-60" y="-110" width="375" height="812" rx="40" fill="white"/>
<path opacity="0.1" d="M23.5492 47.871C16.2996 54.212 12.7774 62.7213 12.7774 71.5732C12.7774 85.1707 20.3054 94.0809 14.299 107.507C12.4071 111.736 8.54299 115.312 4.46914 117.985C-2.36869 122.471 -7.57459 127.457 -12.4372 133.533C-34.4932 161.092 14.3297 200.544 41.6148 212.477C57.177 219.283 74.2552 219.346 91.4644 217.674C106.11 216.25 121.144 212.203 135.856 214.927C163.924 220.126 179.621 231.152 211.59 227.138C243.089 223.184 272.749 209.82 272.749 181.318C272.749 167.216 274.718 141.835 267.629 128.843L267.307 128.254C263.458 121.204 259.569 114.079 257.412 106.451C249.978 80.1587 268.226 59.5215 250.964 32.0695C244.699 22.1064 229.842 21 218.286 21C208.624 21 198.251 22.1771 189.111 25.0137C161.562 33.5638 139.943 38.4338 112.235 29.45C100.88 25.7684 87.1488 25.4958 75.3792 27.929C55.6103 32.016 38.4282 34.8567 23.5492 47.871Z" fill="#2F80ED"/>
<path d="M223.939 201.152C223.939 201.152 225.08 198.917 226.963 149.967C228.6 107.547 175.299 97.9846 167.008 97.665C166.989 97.9548 166.865 98.2278 166.66 98.4332C166.454 98.6385 166.181 98.7623 165.891 98.7814C165.46 98.8071 165.028 98.7532 164.616 98.6223C144.684 113.132 108.487 117.438 115.663 94.6352C98.7615 92.8823 90.7886 93.5201 87.9166 93.9974L100.036 141.356C100.171 141.902 100.184 142.471 100.074 143.022C99.9636 143.573 99.7328 144.093 99.398 144.545C99.0651 144.941 98.6503 145.26 98.1822 145.48C97.7141 145.701 97.2037 145.817 96.6864 145.821C64.5002 145.118 66.8488 144.692 65.9152 144.066L65.597 150.764C70.7035 152.07 75.6304 153.999 80.2672 156.505C80.905 154.113 81.5428 151.88 82.1806 149.488C82.2328 149.308 82.3515 149.155 82.5126 149.06C82.6737 148.965 82.8651 148.934 83.0478 148.975C83.2305 149.016 83.3909 149.124 83.4963 149.279C83.6017 149.434 83.6442 149.623 83.6152 149.808C81.6496 159.192 79.147 168.457 76.1197 177.555C73.249 189.354 69.2632 204.024 65.4365 216.142L151.862 231.133C149.889 227.188 130.821 196.286 121.879 160.494C121.843 160.375 121.837 160.25 121.861 160.129C121.886 160.008 121.94 159.895 122.019 159.8C122.098 159.705 122.2 159.631 122.314 159.585C122.429 159.54 122.554 159.523 122.676 159.538C122.358 158.262 122.039 157.146 121.879 156.188C121.255 155.883 120.75 155.378 120.445 154.754C117.894 156.508 115.185 155.391 112.949 154.594V154.754C112.981 154.869 112.989 154.989 112.974 155.108C112.959 155.226 112.921 155.341 112.861 155.444C112.802 155.548 112.723 155.639 112.628 155.712C112.533 155.785 112.425 155.839 112.31 155.87C111.286 156.212 110.885 155.081 110.557 154.754C108.803 156.188 107.049 155.391 105.773 153.478V154.275C105.731 154.398 105.662 154.511 105.572 154.604C105.481 154.698 105.371 154.77 105.249 154.816C105.127 154.862 104.996 154.88 104.866 154.869C104.736 154.858 104.61 154.819 104.498 154.754C103.051 153.786 102.492 149.785 102.262 148.056C101.611 143.932 102.4 139.708 104.498 136.097C106.649 132.717 109.495 132.36 111.672 131.626C111.195 130.989 110.732 130.339 110.238 129.713C106.596 125.111 96.3301 109.545 100.83 105.796C100.923 105.7 101.039 105.631 101.167 105.594C101.295 105.558 101.43 105.555 101.559 105.588C101.689 105.62 101.807 105.685 101.903 105.778C101.999 105.87 102.069 105.986 102.106 106.114C114.235 122.289 138.768 135.817 148.827 153.632C154.797 164.162 161.459 174.285 168.767 183.935C168.927 184.094 169.086 184.414 169.246 184.573V184.255C169.947 178.742 171.121 173.3 172.753 167.989C173.694 164.627 175.088 161.409 176.897 158.424C176.987 158.265 177.135 158.146 177.31 158.093C177.485 158.04 177.674 158.056 177.837 158.138C178.001 158.219 178.127 158.361 178.189 158.533C178.251 158.705 178.245 158.894 178.172 159.062C177.361 161.129 176.577 163.208 175.78 165.28C174.241 169.923 173.016 174.664 172.113 179.472L223.939 201.152ZM215.164 141.038C215.181 141.27 215.108 141.499 214.959 141.678C214.81 141.856 214.598 141.97 214.367 141.994C214.137 142.024 213.903 141.977 213.702 141.862C213.5 141.747 213.342 141.57 213.25 141.356C212.552 138.564 212.561 135.385 210.226 130.514C203.868 117.284 191.376 109.934 177.378 105.159C176.423 104.834 176.899 103.406 177.696 103.725C181.83 104.944 185.879 106.436 189.815 108.19C200.336 113.009 209.015 120.595 213.256 130.834C213.963 132.419 214.498 134.076 214.851 135.777C215.118 137.517 215.223 139.278 215.164 141.038Z" fill="#2F80ED"/>
<path d="M128.716 49.5415C129.042 50.3676 129.604 51.0613 130.279 51.47C130.955 51.8787 131.688 51.9689 132.317 51.7208C132.947 51.4727 133.421 50.9065 133.636 50.147C133.851 49.3874 133.788 48.4966 133.463 47.6705C133.137 46.8444 132.575 46.1507 131.9 45.742C131.224 45.3333 130.491 45.2431 129.862 45.4912C129.232 45.7393 128.758 46.3055 128.543 47.065C128.328 47.8246 128.39 48.7154 128.716 49.5415Z" fill="#12121D"/>
<path d="M105.76 60.2636C106.085 61.0897 106.648 61.7833 107.323 62.1919C107.998 62.6006 108.731 62.6907 109.361 62.4425C109.99 62.1944 110.465 61.6282 110.679 60.8686C110.894 60.109 110.832 59.2182 110.506 58.3921C110.18 57.5661 109.618 56.8724 108.943 56.4638C108.267 56.0552 107.534 55.965 106.905 56.2132C106.275 56.4614 105.801 57.0275 105.586 57.7871C105.372 58.5467 105.434 59.4375 105.76 60.2636Z" fill="#12121D"/>
<path d="M130.976 38.8262C129.381 37.7097 126.68 38.3607 125.236 39.464C124.624 40.0097 124.126 40.6709 123.77 41.4098C123.414 42.1486 123.208 42.9505 123.163 43.7693C123.186 43.9827 123.275 44.1837 123.416 44.3454C123.557 44.5071 123.745 44.6217 123.953 44.6738C124.161 44.7259 124.38 44.713 124.581 44.6369C124.782 44.5608 124.955 44.4251 125.076 44.248C125.521 43.2972 126.253 42.5094 127.168 41.9947C128.083 41.48 129.136 41.2642 130.179 41.3773C131.137 41.5259 132.57 41.0591 131.932 39.7835C131.614 39.464 131.295 38.9853 130.976 38.8262Z" fill="#12121D"/>
<path d="M108.971 48.3931C108.435 47.9232 107.784 47.6023 107.085 47.4624C106.385 47.3226 105.661 47.3687 104.985 47.5962C103.976 47.908 103.123 48.592 102.599 49.5095C102.113 50.4465 101.84 51.4793 101.8 52.534C101.783 52.7661 101.856 52.9959 102.005 53.1747C102.154 53.3534 102.367 53.467 102.599 53.4914C103.874 53.8096 104.358 51.745 105.15 51.0994C105.582 50.7893 106.08 50.5845 106.605 50.5014C107.13 50.4183 107.668 50.4592 108.174 50.6207C108.405 50.6781 108.647 50.6688 108.872 50.594C109.097 50.5192 109.297 50.3819 109.447 50.198C109.598 50.0142 109.693 49.7914 109.721 49.5557C109.75 49.32 109.711 49.0809 109.609 48.8665C109.291 48.8717 109.13 48.7126 108.971 48.3931Z" fill="#12121D"/>
<path d="M117.901 66.2521C117.423 62.2663 117.13 58.2753 116.466 54.1343C116.313 53.1756 114.872 53.4965 114.711 54.2934C114.554 58.9384 114.875 63.5874 115.669 68.1668C115.828 68.8045 116.625 69.2819 117.103 68.9637C119.495 68.0063 121.887 67.0503 124.12 65.9391C124.26 65.8698 124.384 65.7724 124.485 65.653C124.586 65.5337 124.661 65.3949 124.705 65.2453C124.75 65.0957 124.764 64.9385 124.745 64.7834C124.727 64.6284 124.676 64.4788 124.598 64.344C124.279 63.7062 123.642 63.7062 123.004 63.8667C121.403 64.6636 119.654 65.4526 117.901 66.2521Z" fill="#12121D"/>
<path d="M130.976 73.1101C129.703 72.9246 123.977 76.011 122.525 76.7763C122.397 76.8673 122.299 76.9941 122.243 77.1408C122.187 77.2875 122.175 77.4474 122.21 77.6005C122.245 77.7536 122.324 77.893 122.438 78.0012C122.552 78.1094 122.695 78.1814 122.85 78.2084C124.443 78.2084 130.503 75.9728 131.3 75.0195C131.932 74.3856 131.936 73.2495 130.976 73.1101Z" fill="#12121D"/>
<path d="M166.057 98.7816C166.695 98.7816 167.013 98.1439 167.172 97.6652C167.175 97.501 167.132 97.3392 167.048 97.1984C166.963 97.0575 166.841 96.9431 166.695 96.8683C165.897 96.5501 164.459 96.2305 163.824 95.911C163.824 95.911 160.509 71.3387 159.519 60.6687C159.387 59.2314 159.36 57.6442 159.36 56.2042C159.254 55.5103 159.308 54.8014 159.519 54.1318C159.883 53.3533 160.309 52.6057 160.794 51.8963C161.641 50.3672 162.182 48.6885 162.389 46.9531C162.522 44.6908 161.78 42.4641 160.316 40.7344C159.348 39.7491 158.138 39.0346 156.808 38.662C156.478 36.9749 155.997 35.3206 155.372 33.7189C154.777 31.7501 154.03 29.8306 153.137 27.9775C150.272 22.4966 146.922 18.7948 141.018 17.6139C141.944 20.0666 142.482 22.6488 142.613 25.2673C142.611 25.4662 142.537 25.6576 142.402 25.8045C142.268 25.9515 142.085 26.0438 141.887 26.0635C141.689 26.0832 141.491 26.0291 141.33 25.9115C141.17 25.7939 141.059 25.6211 141.018 25.4264C138.467 15.0615 133.211 10.2683 130.498 8.52458C116.781 -0.278104 94.2271 0.88831 86.9709 16.0201C82.6932 24.9346 83.9648 36.7565 92.5518 41.0553C96.5692 43.066 101.328 43.0055 105.627 42.1704C115.052 40.3399 123.167 34.6749 130.661 28.6166C131.777 30.8521 135.445 33.4006 138.634 34.1975C140.388 38.1846 144.693 48.0709 146.447 50.4629C147.564 52.2171 150.777 52.0554 150.594 49.9842C150.311 46.7914 148.374 38.925 157.131 41.0553C160.325 41.8312 162.233 47.7513 157.768 53.1731C157.291 74.2212 160.48 87.1372 161.756 95.911C161.915 96.7092 161.915 97.347 162.712 97.5061C163.538 97.8441 164.391 98.1107 165.263 98.303C165.1 98.7816 165.578 98.7816 166.057 98.7816ZM103.072 8.37072C102.115 8.84807 101.157 9.48585 100.201 9.96451C94.3139 13.4993 89.5404 21.1224 89.9954 27.5054C90.055 28.4896 90.2703 29.4581 90.6332 30.3748C90.9932 31.3079 91.4195 32.214 91.9087 33.0863C92.0588 33.3414 92.1096 33.6428 92.0514 33.9329C91.9932 34.223 91.8302 34.4816 91.5935 34.6591C91.3567 34.8366 91.0629 34.9206 90.7681 34.8952C90.4733 34.8697 90.1982 34.7365 89.9954 34.521C87.9282 32.7602 87.2852 29.5779 87.2852 27.0255C87.2852 21.8272 90.6674 14.1462 96.6928 9.32542C97.5385 8.70093 98.4473 8.16675 99.4043 7.73162C100.364 7.27649 101.382 6.95442 102.429 6.7743C103.234 6.62965 104.028 8.05117 103.072 8.37072Z" fill="#12121D"/>
<path d="M137.833 198.602C132.208 186.285 127.414 173.607 123.482 160.65C123.322 160.332 123.163 160.173 122.844 160.173C122.722 160.158 122.597 160.174 122.482 160.22C122.367 160.265 122.265 160.339 122.185 160.434C122.106 160.529 122.052 160.642 122.027 160.764C122.003 160.885 122.01 161.011 122.046 161.129C129.69 190.726 139.913 208.912 150.908 229.695C151.242 230.326 151.705 231.131 152.025 231.769C156.809 240.06 162.205 249.066 171.956 252.02C177.298 253.519 183.013 252.891 187.902 250.267C192.715 247.692 196.863 244.034 200.021 239.582C206.361 231.103 210.074 220.574 212.458 210.402C212.758 209.122 212.936 207.851 213.255 206.576C213.415 205.459 211.645 204.818 211.342 206.097C208.975 216.112 206.041 226.322 200.339 234.959C187.859 253.861 172.758 253.833 162.862 243.57C158.301 238.836 156.287 234.584 154.092 231.132C148.516 220.446 142.869 209.634 137.833 198.602Z" fill="#12121D"/>
<path d="M84.2556 121.584C81.9754 121.376 78.0554 122.222 73.253 122.222C67.5655 122.222 60.6946 121.192 56.192 117.757C55.3793 117.138 54.4378 118.554 55.2347 119.033C61.6125 124.293 70.3836 124.773 78.1961 124.293C80.2952 124.178 82.378 123.857 84.4148 123.337C84.5516 123.228 84.6593 123.087 84.7281 122.927C84.7969 122.766 84.8247 122.591 84.8089 122.417C84.7931 122.243 84.7343 122.076 84.6377 121.931C84.5411 121.785 84.4098 121.666 84.2556 121.584Z" fill="#12121D"/>
<path d="M82.98 128.6C80.0856 129.144 77.1537 129.464 74.2102 129.557C69.0923 129.523 64.0003 128.826 59.0613 127.485C58.8303 127.426 58.5854 127.46 58.3795 127.58C58.1735 127.7 58.0229 127.896 57.9601 128.126C57.8973 128.356 57.9274 128.601 58.0438 128.809C58.1603 129.017 58.3537 129.171 58.5826 129.238C65.5877 132.214 79.7174 133.167 83.9373 130.354C84.1053 130.198 84.2165 129.991 84.2534 129.764C84.2902 129.538 84.2506 129.306 84.1408 129.105C84.031 128.903 83.8572 128.745 83.647 128.653C83.4368 128.562 83.2021 128.543 82.98 128.6Z" fill="#12121D"/>
<path d="M96.693 145.981C97.2513 146.016 97.81 145.916 98.3207 145.687C98.8314 145.459 99.2788 145.109 99.6242 144.669C99.9696 144.229 100.203 143.711 100.303 143.161C100.404 142.61 100.369 142.044 100.201 141.51L86.3294 87.4602C86.1401 86.7065 85.7113 86.0345 85.1072 85.5455C84.5032 85.0565 83.7567 84.7769 82.98 84.7487L52.8426 83.314C52.2719 83.3044 51.7067 83.4263 51.1907 83.6703C50.6747 83.9144 50.2219 84.2739 49.8672 84.7211C49.5126 85.1684 49.2657 85.6912 49.1456 86.2492C49.0256 86.8073 49.0357 87.3854 49.1751 87.9389L55.3898 108.667C54.4815 107.943 53.7509 107.02 53.2536 105.97C52.7563 104.92 52.5055 103.77 52.5205 102.608C52.6796 101.652 51.1094 101.497 50.9253 102.449C49.9378 107.577 54.4338 111.538 58.58 113.611C63.3141 115.978 70.0811 117.417 78.5116 116.481C80.0423 116.394 81.5503 116.071 82.9827 115.524C83.183 115.466 83.357 115.34 83.4747 115.168C83.5924 114.996 83.6465 114.789 83.6277 114.581C83.6088 114.373 83.5183 114.179 83.3715 114.031C83.2248 113.883 83.031 113.79 82.8236 113.77C81.7452 113.77 76.4024 114.114 75.328 114.248C70.4902 114.566 65.6423 113.803 61.1364 112.013C60.3474 111.684 59.3822 111.215 58.5853 110.896L51.5671 87.3011C51.5149 87.1141 51.5021 86.9184 51.5295 86.7262C51.5569 86.534 51.6239 86.3496 51.7262 86.1847C51.8457 86.045 51.992 85.9307 52.1564 85.8485C52.3209 85.7663 52.5001 85.7178 52.6835 85.706L82.8209 87.1407C83.0886 87.1478 83.3457 87.2469 83.549 87.4212C83.7523 87.5956 83.8895 87.8345 83.9374 88.098L97.8094 142.313C97.8615 142.5 97.8743 142.696 97.8469 142.888C97.8195 143.079 97.7526 143.264 97.6503 143.428C97.5308 143.568 97.3845 143.682 97.22 143.765C97.0556 143.847 96.8764 143.895 96.693 143.907L67.672 142.631C67.4268 142.629 67.1884 142.551 66.9888 142.408C66.7892 142.266 66.638 142.066 66.5556 141.835L65.4404 138.008C69.2454 138.951 73.1943 139.167 77.0796 138.646C77.8903 138.563 78.6913 138.402 79.4716 138.167C80.3454 138.089 81.1771 137.756 81.8636 137.21C81.9832 137.089 82.068 136.937 82.109 136.772C82.1501 136.607 82.1459 136.434 82.097 136.271C82.048 136.108 81.9561 135.961 81.8308 135.846C81.7055 135.73 81.5515 135.651 81.3849 135.616C80.5746 135.555 79.7605 135.664 78.9942 135.934C78.3156 136.111 77.6208 136.218 76.9205 136.254C75.3857 136.439 73.8425 136.545 72.2969 136.572C69.2236 136.556 66.1664 136.127 63.2075 135.296C62.9787 135.244 62.7386 135.282 62.5373 135.403C62.336 135.524 62.1891 135.718 62.1273 135.944C62.0655 136.17 62.0936 136.412 62.2057 136.618C62.3178 136.824 62.5053 136.979 62.7289 137.051L64.324 142.311C64.629 143.107 65.1895 143.78 65.9178 144.224C66.9093 144.854 64.9144 145.286 96.693 145.981Z" fill="#12121D"/>
<path d="M62.7288 96.0713C62.7288 96.8327 63.0312 97.5629 63.5696 98.1012C64.1079 98.6396 64.8381 98.942 65.5994 98.942C66.3608 98.942 67.0909 98.6396 67.6293 98.1012C68.1677 97.5629 68.4701 96.8327 68.4701 96.0713C68.4701 95.31 68.1677 94.5798 67.6293 94.0415C67.0909 93.5031 66.3608 93.2007 65.5994 93.2007C64.8381 93.2007 64.1079 93.5031 63.5696 94.0415C63.0312 94.5798 62.7288 95.31 62.7288 96.0713Z" fill="#12121D"/>
<path d="M58.2644 101.333C58.2644 102.094 58.5669 102.824 59.1052 103.362C59.6436 103.901 60.3737 104.203 61.1351 104.203C61.8964 104.203 62.6266 103.901 63.1649 103.362C63.7033 102.824 64.0057 102.094 64.0057 101.333C64.0057 100.571 63.7033 99.8411 63.1649 99.3027C62.6266 98.7644 61.8964 98.4619 61.1351 98.4619C60.3737 98.4619 59.6436 98.7644 59.1052 99.3027C58.5669 99.8411 58.2644 100.571 58.2644 101.333Z" fill="#12121D"/>
<path d="M55.7117 93.6793C55.7117 94.4406 56.0141 95.1708 56.5525 95.7091C57.0908 96.2475 57.821 96.5499 58.5823 96.5499C59.3437 96.5499 60.0738 96.2475 60.6122 95.7091C61.1506 95.1708 61.453 94.4406 61.453 93.6793C61.453 92.9179 61.1506 92.1878 60.6122 91.6494C60.0738 91.111 59.3437 90.8086 58.5823 90.8086C57.821 90.8086 57.0908 91.111 56.5525 91.6494C56.0141 92.1878 55.7117 92.9179 55.7117 93.6793Z" fill="#12121D"/>
<path d="M97.4912 44.5663C99.3901 56.5632 100.012 62.5964 103.71 74.3855C107.033 84.9832 110.991 94.0173 121.887 94.7958C121.537 95.8762 121.373 97.0084 121.403 98.1438C121.543 99.539 123.158 99.1958 123.158 98.4633C123.3 97.2693 123.567 96.0934 123.955 94.9549C126.5 94.8825 129.024 94.4531 131.45 93.6793C136.045 92.2897 140.325 90.0146 144.047 86.982C145.132 86.0547 146.144 85.0434 147.071 83.9575C147.274 83.7442 147.385 83.4601 147.381 83.1659C147.378 82.8716 147.259 82.5905 147.051 82.3825C146.843 82.1744 146.562 82.0558 146.268 82.0521C145.973 82.0483 145.689 82.1597 145.476 82.3624C138.789 88.7599 126.56 94.3881 117.891 91.2926C117.45 91.1128 117.024 90.8996 116.615 90.6548C115.159 89.8294 113.862 88.7493 112.787 87.4659C108.185 81.8324 106.594 74.8195 104.503 67.8525C102.204 60.2123 101.159 52.221 99.4046 44.2481C98.7668 42.9725 97.3137 43.4525 97.4912 44.5663Z" fill="#12121D"/>
<path d="M175.147 180.422C175.147 179.724 173.886 179.877 173.711 180.263C173.525 180.675 171 186.323 170.84 186.641C169.42 185.221 163.029 176.26 161.592 174.204C146.311 152.327 150.786 152.298 134.484 136.732C124.14 126.854 110.317 117.208 102.115 106.275C102.078 106.148 102.008 106.032 101.912 105.939C101.816 105.847 101.698 105.781 101.569 105.749C101.44 105.717 101.304 105.719 101.176 105.756C101.048 105.792 100.932 105.862 100.839 105.957C98.8064 107.651 99.9557 112.163 101.159 114.568C103.891 120.749 107.429 126.541 111.679 131.795C108.806 132.315 106.239 133.912 104.503 136.259C102.268 139.607 101.782 144.233 102.268 148.218C102.387 149.402 102.601 150.575 102.905 151.726C103.071 152.936 103.632 154.057 104.5 154.915C104.613 154.98 104.739 155.02 104.869 155.031C104.999 155.041 105.129 155.023 105.251 154.978C105.373 154.932 105.484 154.859 105.574 154.766C105.665 154.672 105.734 154.56 105.776 154.436C105.833 153.456 105.67 152.476 105.297 151.567C105.013 150.628 104.8 149.668 104.66 148.696C104.358 146.795 104.358 144.858 104.66 142.956C105.178 139.614 106.414 136.259 109.603 134.664C110.849 134.198 112.128 133.824 113.429 133.547C115.184 133.229 116.779 133.07 118.533 132.751C119.01 132.751 119.171 132.272 119.171 131.795C119.171 131.317 118.692 131.157 118.374 130.996C117.043 130.887 115.704 130.941 114.387 131.157C113.908 130.359 107.084 121.414 103.867 114.891C103.078 113.294 101.794 109.789 102.271 109.311C102.591 109.151 110.539 117.95 115.348 122.227C124.901 130.724 139.443 141.794 145.963 152.523C153.756 166.525 162.775 179.81 172.914 192.219C173.564 193.001 174.256 193.748 174.986 194.455C175.058 194.53 175.145 194.591 175.241 194.632C175.337 194.673 175.44 194.694 175.545 194.694C175.649 194.694 175.752 194.673 175.848 194.632C175.944 194.591 176.031 194.53 176.103 194.455C177.113 193.445 176.654 193.755 172.276 187.918C172.594 186.641 175.147 180.901 175.147 180.422Z" fill="#12121D"/>
<path d="M113.277 145.668C114.952 142.967 117.565 140.978 120.614 140.081C120.838 140.009 121.025 139.855 121.138 139.648C121.25 139.442 121.278 139.201 121.216 138.974C121.154 138.748 121.007 138.554 120.806 138.433C120.605 138.313 120.365 138.274 120.136 138.326C118.256 138.731 116.471 139.489 114.876 140.562C113.413 141.601 112.212 142.966 111.367 144.548C109.804 147.595 109.132 151.883 111.048 155.068C111.208 155.228 111.367 155.547 111.526 155.706C112.668 156.847 113.693 155.829 113.44 155.068C112.848 153.541 112.525 151.923 112.484 150.285C112.297 149.502 112.271 148.689 112.407 147.895C112.544 147.102 112.839 146.344 113.277 145.668Z" fill="#12121D"/>
<path d="M123.322 155.868C123.075 154.889 122.755 153.929 122.366 152.998C122.148 151.715 122.398 150.398 123.072 149.285C123.745 148.173 124.796 147.339 126.033 146.938C126.205 146.845 126.34 146.696 126.415 146.515C126.49 146.334 126.5 146.133 126.443 145.946C126.387 145.759 126.268 145.597 126.106 145.487C125.944 145.377 125.749 145.327 125.554 145.344C124.634 145.493 123.755 145.833 122.974 146.341C122.192 146.848 121.525 147.514 121.015 148.294C120.505 149.074 120.163 149.952 120.011 150.872C119.859 151.791 119.9 152.733 120.133 153.635C120.58 154.978 120.811 156.127 122.206 156.824H122.366C122.603 156.782 122.823 156.667 122.994 156.496C123.164 156.325 123.279 156.106 123.322 155.868Z" fill="#12121D"/>
<path d="M61.6123 215.983C62.4105 215.504 62.0949 214.092 61.135 214.228C54.8413 215.13 47.0525 218.534 39.2887 214.069C35.946 212.147 33.5421 208.809 32.7518 203.704C31.6801 196.795 33.0937 183.694 34.0274 176.756C35.2981 167.265 37.0537 157.845 39.2874 148.533C39.319 148.402 46.9039 117.092 46.9421 116.961C47.1012 116.004 45.6665 115.525 45.5061 116.482C39.93 135.33 35.5104 154.5 32.2718 173.886C31.2553 180.469 29.3867 195.437 30.1994 202.11C30.941 208.21 33.1726 213.563 38.6496 216.302C43.5043 218.466 48.9228 219.024 54.1168 217.896C55.5296 217.729 56.9199 217.409 58.263 216.94C59.4318 216.846 60.5703 216.52 61.6123 215.983Z" fill="#12121D"/>
<path d="M63.3666 189.991C63.5257 190.788 64.9617 190.629 64.8026 189.832C64.3095 179.969 58.9495 157.154 61.135 140.401C61.2941 139.603 59.8384 139.44 59.699 140.24C57.1768 154.763 60.6038 170.233 61.4533 179.148C62.0963 182.656 62.4106 186.324 63.3666 189.991Z" fill="#12121D"/>
</svg>
