<svg width="256" height="256" viewBox="0 0 256 256" fill="none" xmlns="http://www.w3.org/2000/svg">
<rect width="256" height="256" fill="#E5E5E5"/>
<rect x="-60" y="-110" width="375" height="812" rx="40" fill="white"/>
<path d="M23.5492 27.871C16.2996 34.212 12.7774 42.7213 12.7774 51.5732C12.7774 65.1707 20.3054 74.0809 14.299 87.5069C12.4071 91.7358 8.54299 95.3124 4.46914 97.9849C-2.36869 102.471 -7.57459 107.457 -12.4372 113.533C-34.4932 141.092 14.3297 180.544 41.6148 192.477C57.177 199.283 74.2552 199.346 91.4644 197.674C106.11 196.25 121.144 192.203 135.856 194.927C163.924 200.126 179.621 211.152 211.59 207.138C243.089 203.184 272.749 189.82 272.749 161.318C272.749 147.216 274.718 121.835 267.629 108.843L267.307 108.254C263.458 101.204 259.569 94.0793 257.412 86.4506C249.978 60.1587 268.226 39.5215 250.964 12.0695C244.699 2.10639 229.842 1 218.286 1C208.624 1 198.251 2.17707 189.111 5.01375C161.562 13.5638 139.943 18.4338 112.235 9.45C100.88 5.76841 87.1488 5.49576 75.3792 7.929C55.6103 12.016 38.4282 14.8567 23.5492 27.871Z" fill="#2F80ED" fill-opacity="0.1"/>
<path d="M252.382 112.694C246.897 141.649 214.459 143.375 201.038 140.743C199.76 146.353 188.219 199.51 186.941 203.984C182.147 207.499 123.665 230.615 118.978 232C110.882 229.337 23.4994 186.904 12.2751 179.162C10.3112 169.619 6.70529 132.171 6.31596 119.214C6.22723 116.3 5.969 116.83 9.20945 115.017C11.7283 113.741 14.3184 112.611 16.9669 111.632C17.7959 111.306 18.4315 112.467 17.6079 112.89C15.6559 113.897 13.7556 114.983 11.8858 116.14C9.15383 117.834 8.80952 118.602 11.7692 119.82C38.2318 130.716 120.38 163.653 122.344 163.328C124.475 162.973 194.372 141.037 198.936 139.026C201.244 136.449 222.656 79.8648 226.677 52.1919C238.498 58.1537 258.81 78.7749 252.382 112.694ZM97.2815 131.219C97.2529 131.078 97.1839 130.947 97.0828 130.844C96.9818 130.74 96.8529 130.669 96.7118 130.637C96.5707 130.605 96.4235 130.615 96.288 130.665C96.1524 130.716 96.0343 130.804 95.9479 130.92C95.1707 133.038 94.551 135.21 94.094 137.419C93.7025 139.431 93.7323 141.501 94.1814 143.5C94.308 144.784 94.5527 146.053 94.9124 147.292C94.9792 147.452 95.0969 147.587 95.2474 147.674C95.3979 147.761 95.573 147.797 95.7457 147.775C95.9184 147.753 96.0791 147.675 96.2032 147.553C96.3273 147.431 96.4079 147.272 96.4326 147.1C96.3035 145.843 96.1041 144.594 95.8354 143.359C95.4772 141.552 95.4772 139.693 95.8354 137.887C96.4884 135.705 96.9719 133.476 97.2815 131.219ZM95.989 127.828C94.3324 126.321 91.0893 124.374 89.0751 122.843C88.929 122.729 88.7454 122.674 88.5606 122.689C88.3759 122.704 88.2036 122.789 88.078 122.925C87.9525 123.061 87.8829 123.24 87.8831 123.425C87.8834 123.611 87.9534 123.789 88.0792 123.925C90.1665 125.966 92.5289 127.704 95.0978 129.09C95.2653 129.186 95.4626 129.216 95.651 129.174C95.8395 129.132 96.0056 129.022 96.1169 128.864C96.2283 128.706 96.2769 128.513 96.2532 128.321C96.2295 128.13 96.1353 127.954 95.989 127.828ZM85.5632 121.094C83.3371 123.864 81.0607 126.606 78.9604 129.474C78.8425 129.633 78.7909 129.831 78.8164 130.027C78.8419 130.223 78.9425 130.402 79.0971 130.525C79.2517 130.648 79.4481 130.707 79.6449 130.688C79.8418 130.669 80.0237 130.575 80.1523 130.425C82.6776 127.644 85.0229 124.687 87.425 121.797C87.7799 121.369 98.4706 118.751 99.3539 118.518C102.452 120.263 105.444 122.188 108.316 124.283C105.423 125.86 101.744 126.905 98.705 128.256C98.5396 128.347 98.4126 128.495 98.3473 128.672C98.282 128.85 98.2828 129.045 98.3496 129.222C98.4163 129.399 98.5445 129.546 98.7107 129.636C98.8769 129.726 99.07 129.753 99.2546 129.712C99.7168 129.569 109.571 126.227 109.716 126.077C111.112 128.349 112.329 130.725 113.357 133.186C108.252 135.427 103.033 137.399 97.7224 139.096C96.7729 139.414 97.349 140.754 98.2746 140.517C103.252 139.251 108.137 137.646 112.894 135.711C111.198 139.475 108.922 142.772 107.2 146.438C107.136 146.601 107.132 146.782 107.189 146.948C107.246 147.114 107.36 147.255 107.512 147.345C107.663 147.434 107.841 147.467 108.014 147.438C108.187 147.408 108.344 147.318 108.457 147.183C110.529 144.266 112.378 141.196 113.988 138.001C115.196 135.862 116.314 134.317 115.33 131.975C114.52 130.021 113.529 128.147 112.371 126.376C111.543 124.978 110.435 123.766 109.116 122.816C106.487 120.829 103.71 119.047 100.809 117.483C100.365 117.231 99.8735 117.074 99.3654 117.023C98.8573 116.972 98.3442 117.027 97.8588 117.186C94.271 117.93 90.7276 118.874 87.245 120.013C86.2531 120.364 86.2253 120.268 85.5632 121.094ZM90.7277 137.453C87.4171 135.491 83.6483 133.584 80.2291 131.671C79.4252 131.221 78.6612 132.042 79.1313 133.079C79.8424 134.652 83.2987 142.505 84.7964 143.739C85.4281 144.26 86.4941 143.571 86.077 142.904C84.3896 140.119 82.8561 137.242 81.4831 134.289C84.1733 136.035 87 137.561 89.9358 138.852C90.7476 139.165 91.5395 137.94 90.7185 137.453H90.7277ZM143.772 131.387C143.651 132.949 145.439 133.514 145.549 131.615C145.844 126.551 143.408 120.529 143.745 115.895C144.069 111.101 145.367 106.423 147.559 102.148C148.138 104.889 150.241 106.976 152.296 108.729C158.473 113.982 166.453 116.62 174.544 116.083C175.457 116.026 175.407 114.429 174.477 114.462C166.099 114.763 157.069 111.562 151.435 105.179C147.635 100.875 148.894 97.035 154.878 96.7583C159.185 96.6417 163.459 97.5454 167.35 99.3958C171.241 101.246 174.639 103.991 177.266 107.405C177.919 108.229 179.095 107.23 178.516 106.388C175.804 102.614 172.189 99.5798 168.002 97.5628C163.815 95.5459 159.189 94.6104 154.547 94.8421C149.041 95.1202 147.1 97.9911 145.056 102.88C143.605 106.448 142.588 110.178 142.028 113.989C141.325 119.354 144.194 125.8 143.763 131.387H143.772ZM176.799 115.922C174.223 121.845 170.245 125.385 164.009 128.456C160.762 130.055 157.357 130.905 154.21 132.848C151.569 134.489 149.634 137.053 148.78 140.043C148.725 140.229 148.743 140.429 148.831 140.602C148.919 140.775 149.07 140.908 149.253 140.973C149.436 141.039 149.637 141.031 149.815 140.953C149.992 140.874 150.133 140.73 150.208 140.551C151.698 137.286 154.276 134.639 157.5 133.063C160.811 131.341 162.76 131.138 166.108 129.573C171.717 126.953 176.073 122.236 178.241 116.437C178.309 116.244 178.298 116.032 178.21 115.848C178.123 115.664 177.965 115.522 177.773 115.453C177.58 115.385 177.369 115.396 177.184 115.484C177 115.572 176.858 115.729 176.79 115.922H176.799ZM33.4883 93.8462C35.7235 96.5217 37.7506 99.3644 39.552 102.349C41.3828 105.27 42.9422 108.353 44.2107 111.558C44.6213 112.713 45.7058 111.938 45.535 111.063C44.9484 108.069 42.1979 103.01 41.1809 101.353C39.3142 98.264 37.0954 95.4017 34.5689 92.8239C33.973 92.2253 32.9546 93.1894 33.4883 93.8462ZM42.2389 94.7414C49.1131 97.3542 50.7141 93.4172 50.1712 87.3256C50.0206 84.4146 49.3599 81.5527 48.2193 78.8703C47.822 78.0492 46.6487 78.665 46.8248 79.4688C47.4772 81.8852 47.9936 84.3363 48.3715 86.8105C48.8761 91.6374 48.9675 95.5505 42.4323 92.9802C40.2995 92.1281 38.3412 90.892 36.6546 89.3332C36.5101 89.2046 36.3218 89.1364 36.1285 89.1426C35.9351 89.1488 35.7516 89.229 35.6157 89.3666C35.4798 89.5042 35.4019 89.6887 35.3981 89.8821C35.3942 90.0755 35.4648 90.263 35.5952 90.4058C37.4669 92.3185 39.7345 93.7983 42.2389 94.7414ZM50.534 77.7539C51.1058 80.8088 52.2473 83.7288 53.899 86.3616C57.7525 92.5948 61.9769 94.948 67.3269 88.4142C69.1919 86.1545 70.3596 83.4013 70.6878 80.4898C70.7938 79.494 69.3821 79.4198 69.1808 80.3442C68.6791 82.7242 67.665 84.9665 66.2092 86.9151C61.3161 93.3563 57.9644 89.8735 54.9531 84.7089C53.664 82.4556 52.698 80.0324 52.0834 77.5103C51.8411 76.5383 50.3526 76.7448 50.534 77.7539ZM73.1218 80.7547C70.9408 87.7878 69.9079 97.6482 71.2851 104.896C71.3163 105.084 71.419 105.254 71.5718 105.368C71.7246 105.483 71.9157 105.535 72.1055 105.512C72.2952 105.49 72.469 105.395 72.5907 105.247C72.7124 105.1 72.7727 104.912 72.759 104.721C72.4094 95.7995 72.5272 89.9582 74.556 81.1626C74.7427 80.3495 73.38 79.9442 73.1218 80.7547ZM75.5624 71.5909C75.0729 70.9443 74.3659 70.4969 73.572 70.3313C72.7781 70.1658 71.9511 70.2933 71.244 70.6904C71.1133 70.7928 71.0192 70.9347 70.9758 71.0951C70.9324 71.2554 70.942 71.4254 71.0033 71.5798C71.0645 71.7342 71.1741 71.8646 71.3156 71.9516C71.4571 72.0385 71.6229 72.0774 71.7883 72.0623C72.2613 71.8863 72.7808 71.8797 73.2581 72.0437C73.7355 72.2076 74.1412 72.532 74.4063 72.9615C75.7981 75.1107 74.1547 78.563 71.2374 76.3674C70.8389 76.1132 70.5479 75.7212 70.4199 75.2662C70.292 74.8112 70.3359 74.325 70.5435 73.9003C70.6091 73.7384 70.6149 73.5583 70.5597 73.3924C70.5046 73.2265 70.3921 73.0858 70.2425 72.9953C70.093 72.9049 69.916 72.8708 69.7435 72.899C69.571 72.9273 69.4143 73.0161 69.3013 73.1495C68.8792 73.756 68.6816 74.4906 68.7425 75.227C68.8035 75.9634 69.119 76.6556 69.6351 77.1845C73.8131 81.7545 79.0836 75.7517 75.5624 71.5922V71.5909ZM50.3924 75.2988C50.8207 74.7433 51.0974 74.0861 51.1953 73.3915C51.2933 72.697 51.2092 71.9889 50.9512 71.3366C50.7124 70.6759 50.2999 70.0918 49.7572 69.6458C49.2144 69.1997 48.5614 68.9082 47.867 68.802C47.0876 68.6766 46.2885 68.8088 45.591 69.1785C44.8934 69.5482 44.3354 70.1352 44.0015 70.8506C43.9405 71.022 43.9408 71.2092 44.0025 71.3804C44.0642 71.5515 44.1834 71.6959 44.3397 71.789C44.4961 71.882 44.6799 71.9178 44.8597 71.8904C45.0395 71.863 45.2043 71.7739 45.3258 71.6385C45.6581 71.1975 46.1216 70.8731 46.6498 70.712C47.178 70.5509 47.7437 70.5614 48.2656 70.742C50.1831 71.4849 49.8216 73.7878 48.5305 74.7982C46.9506 76.035 45.1006 75.259 45.0424 74.0765C44.9881 72.9853 43.7711 72.6489 43.6069 73.564C43.1143 76.2761 47.5889 78.7074 50.3924 75.2961V75.2988ZM27.5609 87.3018C28.3555 86.4198 29.2732 85.6107 30.5418 85.9961C30.9194 86.1037 31.2623 86.3082 31.5364 86.5893C31.8105 86.8704 32.0064 87.2183 32.1045 87.5984C32.2026 87.9786 32.1996 88.3778 32.0957 88.7565C31.9919 89.1351 31.7908 89.48 31.5125 89.7569C31.1805 90.0572 30.747 90.2203 30.2995 90.2134C29.8519 90.2066 29.4236 90.0302 29.101 89.7199C27.7013 88.2725 26.8617 89.7794 28.0257 90.9037C28.4344 91.2987 28.9355 91.5848 29.4834 91.7359C30.0312 91.8871 30.6082 91.8984 31.1615 91.7689C31.7148 91.6394 32.2268 91.3732 32.6507 90.9946C33.0745 90.6161 33.3967 90.1372 33.5876 89.602C33.7803 89.0824 33.8655 88.5291 33.8381 87.9756C33.8107 87.4221 33.6713 86.8799 33.4283 86.3818C33.1853 85.8837 32.8437 85.4402 32.4242 85.078C32.0048 84.7158 31.5162 84.4424 30.9881 84.2745C29.1196 83.6588 26.4856 84.7062 26.1268 86.7827C26.116 86.9542 26.1611 87.1245 26.2553 87.2682C26.3495 87.4119 26.4878 87.5212 26.6493 87.5796C26.8109 87.6381 26.9871 87.6427 27.1514 87.5926C27.3158 87.5425 27.4595 87.4404 27.5609 87.3018ZM72.2783 124.524C74.3288 124.579 76.3281 125.176 78.0732 126.255C78.9287 126.733 79.4795 125.41 78.8386 124.836C76.7492 123.274 74.1828 122.484 71.5764 122.601C67.4063 122.631 59.9336 125.663 61.2592 130.811C61.8643 133.159 64.2559 134.223 66.3469 134.932C66.5444 134.995 66.7583 134.98 66.9447 134.889C67.1311 134.799 67.2756 134.64 67.3486 134.446C67.4216 134.252 67.4175 134.038 67.3371 133.847C67.2566 133.656 67.1061 133.503 66.9164 133.42C65.4213 132.876 63.2773 132.064 62.9635 130.27C62.2788 126.351 69.1941 124.369 72.2783 124.524ZM88.0183 116.523C88.4198 116.342 88.7762 116.074 89.062 115.74C89.3478 115.405 89.5559 115.01 89.6712 114.586C89.7866 114.161 89.8064 113.715 89.7292 113.282C89.6519 112.848 89.4797 112.437 89.2247 112.079C87.135 108.817 79.8027 107.89 76.4934 109.446C75.5168 109.887 74.6715 110.575 74.0402 111.441C73.4088 112.307 73.013 113.322 72.8914 114.387C72.7895 115.503 73.0955 116.618 73.7529 117.526C74.4103 118.434 75.3745 119.073 76.4669 119.325C76.6729 119.373 76.8897 119.338 77.0698 119.227C77.2498 119.116 77.3783 118.938 77.427 118.732C77.4756 118.526 77.4404 118.309 77.3292 118.129C77.2179 117.949 77.0397 117.82 76.8337 117.771C76.4286 117.647 76.0534 117.44 75.7312 117.165C75.4091 116.89 75.1468 116.551 74.9607 116.17C74.7745 115.789 74.6684 115.375 74.6489 114.951C74.6294 114.528 74.6969 114.105 74.8473 113.709C75.232 112.788 75.8737 111.998 76.6956 111.432C77.5175 110.867 78.485 110.55 79.4822 110.52C83.1027 110.24 86.8662 111.256 87.7601 113.315C87.9109 113.617 87.9577 113.96 87.8932 114.292C87.8288 114.623 87.6568 114.923 87.4039 115.147C86.7258 115.601 87.184 116.839 88.0183 116.523ZM81.7228 105.987C82.565 105.971 82.6048 104.636 81.7837 104.513C79.3273 104.144 79.4451 101.274 80.8952 99.8517C83.7635 97.039 90.5211 98.1196 93.6596 100.037C95.0488 100.886 96.7756 103.215 94.8806 104.325C94.1456 104.754 94.3218 105.968 95.2222 105.829C95.7024 105.715 96.1499 105.493 96.5302 105.178C96.9106 104.864 97.2137 104.466 97.4162 104.016C97.6186 103.566 97.7149 103.076 97.6978 102.583C97.6806 102.089 97.5504 101.607 97.3172 101.172C95.2964 96.892 87.3946 95.7042 83.2643 96.6868C76.1861 98.3672 77.0773 106.078 81.7228 105.987ZM103.225 109.414C102.769 108.678 102.592 107.804 102.726 106.949C102.86 106.094 103.297 105.315 103.956 104.754C104.693 104.17 105.55 103.757 106.466 103.546C107.383 103.335 108.335 103.331 109.253 103.533C112.802 104.129 117.573 106.446 117.803 110.534C117.798 110.732 117.871 110.924 118.006 111.068C118.141 111.212 118.328 111.298 118.526 111.305C118.723 111.313 118.916 111.243 119.062 111.11C119.208 110.977 119.296 110.791 119.306 110.594C119.669 108.013 117.956 105.749 115.928 104.37C113.713 102.842 111.141 101.913 108.461 101.673C107.286 101.558 106.1 101.724 105.002 102.158C103.904 102.592 102.925 103.28 102.145 104.167C101.42 105.053 101.021 106.161 101.015 107.305C101.009 108.45 101.396 109.562 102.112 110.455C102.759 111.212 103.793 110.188 103.23 109.414H103.225ZM115.756 121.686C115.883 123.139 116.512 124.503 117.534 125.545C118.556 126.586 119.908 127.239 121.359 127.393C121.573 127.409 121.785 127.341 121.95 127.204C122.115 127.067 122.221 126.872 122.246 126.659C122.271 126.446 122.213 126.231 122.084 126.06C121.955 125.888 121.765 125.773 121.554 125.738C120.91 125.643 120.293 125.413 119.745 125.062C119.197 124.712 118.729 124.248 118.373 123.704C118.018 123.159 117.781 122.544 117.681 121.901C117.58 121.258 117.617 120.601 117.789 119.974C119.154 115.243 129.105 114.564 132.745 116.964C133.906 117.666 134.764 118.776 135.151 120.076C135.538 121.377 135.427 122.775 134.839 123.998C134.441 124.748 135.633 125.363 136.123 124.705C136.892 123.616 137.286 122.307 137.247 120.974C137.207 119.642 136.736 118.358 135.905 117.316C131.227 110.999 115.226 113.039 115.756 121.686ZM123.834 157.593C122.981 157.99 123.384 159.325 124.32 159.011C127.33 158 130.703 156.377 131.672 153.079C133.875 145.577 123.368 143.196 117.543 144.736C114.587 145.513 111.087 147.269 109.669 150.136C107.891 153.732 111.046 156.351 114.039 157.647C114.993 158.062 115.708 156.626 114.754 156.191C111.569 154.725 109.239 152.436 112.526 149.364C116.744 145.419 128.209 144.067 129.919 150.564C130.924 154.383 126.567 156.307 123.834 157.593ZM136.494 147.915C135.609 148.13 135.905 149.584 136.806 149.482C139.503 149.251 141.998 147.959 143.743 145.891C149.813 138.165 140.366 131.622 131.64 132.747C128.727 133.122 125.824 134.526 125.108 137.607C124.875 138.611 126.412 138.914 126.671 137.927C127.448 134.964 131.152 134.469 133.709 134.396C138.741 134.252 145.76 137.528 143.148 143.355C141.939 146.04 139.186 147.256 136.487 147.915H136.494ZM169.449 142.379C166.914 142.985 164.276 143.023 161.725 142.49C159.625 142.056 156.905 141.248 155.846 139.179C155.406 138.317 154.026 138.807 154.412 139.742C154.897 140.722 155.589 141.584 156.44 142.27C157.291 142.956 158.281 143.449 159.341 143.715C161.84 144.546 164.482 144.861 167.107 144.642C171.671 144.263 177.597 141.579 174.157 136.167C173.354 135.138 172.294 134.339 171.084 133.85C169.874 133.362 168.556 133.202 167.264 133.386C167.073 133.409 166.896 133.499 166.767 133.641C166.637 133.783 166.562 133.967 166.556 134.16C166.55 134.352 166.614 134.54 166.735 134.69C166.856 134.839 167.027 134.941 167.217 134.975C169.294 135.339 171.751 135.723 172.646 137.945C173.705 140.611 171.727 141.823 169.443 142.379H169.449ZM57.2612 108.961C59.464 108.085 61.8419 107.739 64.203 107.951C67.0461 108.287 67.5573 109.36 69.1729 111.306C69.2816 111.412 69.4184 111.483 69.5668 111.513C69.7153 111.542 69.869 111.528 70.0096 111.472C70.1502 111.416 70.2717 111.321 70.3593 111.197C70.447 111.074 70.4971 110.928 70.5038 110.777C70.3647 108.694 68.1784 107.201 66.3986 106.539C62.9913 105.285 55.7953 106.375 53.5057 109.434C52.8872 110.277 52.5038 111.268 52.3949 112.308C52.286 113.347 52.4555 114.397 52.8859 115.349C53.3919 116.383 54.1983 117.239 55.1992 117.806C56.2002 118.373 57.3491 118.625 58.4954 118.528C59.49 118.443 59.5549 116.913 58.5219 116.946C57.5496 116.988 56.5936 116.687 55.8204 116.096C55.0472 115.505 54.5059 114.662 54.291 113.713C54.129 112.696 54.3405 111.654 54.8864 110.781C55.4324 109.907 56.2759 109.261 57.2612 108.961ZM47.4247 129.453C47.2394 129.437 47.0548 129.491 46.9075 129.604C46.7602 129.718 46.661 129.883 46.6295 130.066C46.598 130.249 46.6365 130.438 46.7375 130.594C46.8384 130.75 46.9944 130.863 47.1744 130.909C54.0393 132.498 59.1165 128.143 54.9518 122.53C51.849 118.346 43.6228 116.026 39.3256 119.708C37.0744 121.63 36.1037 125.178 38.094 127.653C38.225 127.794 38.4028 127.883 38.5943 127.903C38.7858 127.923 38.978 127.872 39.1352 127.761C39.2923 127.65 39.4038 127.485 39.4488 127.298C39.4938 127.111 39.4693 126.914 39.3799 126.743C39.0944 126.175 38.9289 125.555 38.8934 124.92C38.858 124.286 38.9535 123.65 39.1739 123.054C39.3944 122.458 39.7351 121.914 40.1749 121.455C40.6147 120.996 41.1442 120.632 41.7304 120.387C45.2596 118.714 51.1737 120.617 53.5401 123.698C57.3142 128.629 51.5524 130.059 47.4247 129.453ZM32.2143 120.035C33.1519 119.835 33.0168 118.238 32.0607 118.518C29.4347 119.286 24.1603 119.596 23.8967 115.857C23.6319 112.141 29.8876 109.81 32.8222 109.765C34.8748 109.735 38.384 110.56 37.7749 113.341C37.7491 113.519 37.7879 113.701 37.8845 113.854C37.981 114.006 38.1289 114.119 38.3014 114.173C38.4739 114.226 38.6598 114.216 38.8255 114.144C38.9912 114.072 39.1258 113.944 39.2051 113.782C40.132 111.387 38.2781 109.257 36.0812 108.545C28.7978 106.191 18.0422 113.503 23.6266 119.199C25.5348 121.144 29.4241 120.631 32.2143 120.035ZM12.2645 95.2989C12.4775 95.2571 12.6652 95.1324 12.7863 94.9523C12.9073 94.7721 12.9519 94.5512 12.9101 94.3382C12.8683 94.1252 12.7436 93.9375 12.5634 93.8164C12.3832 93.6954 12.1623 93.6508 11.9493 93.6926C8.97903 93.9469 5.46049 94.0594 2.58554 94.5838C2.41117 94.6229 2.25651 94.723 2.14943 94.8661C2.04236 95.0092 1.98994 95.1858 2.0016 95.3641C2.01326 95.5424 2.08825 95.7107 2.21305 95.8386C2.33784 95.9665 2.50423 96.0457 2.68221 96.0617C5.67634 96.0789 9.22666 95.5704 12.2645 95.2989ZM10.5562 73.6898C13.4841 75.2114 16.4928 76.6031 19.5029 77.9552C20.4073 78.3604 20.9741 76.9859 20.1014 76.5475C17.155 75.0657 14.1741 73.6117 11.1468 72.302C10.2463 71.9113 9.70472 73.2475 10.5562 73.6898ZM39.2528 62.4601C39.3667 62.5922 39.5248 62.6783 39.6976 62.7025C39.8703 62.7266 40.046 62.6871 40.1918 62.5914C40.3376 62.4956 40.4437 62.3501 40.4902 62.182C40.5367 62.0139 40.5205 61.8346 40.4446 61.6775C39.4418 59.6165 38.31 57.6209 37.0558 55.7025C36.9706 55.5258 36.8188 55.3902 36.6336 55.3255C36.4485 55.2608 36.2452 55.2723 36.0686 55.3575C35.8919 55.4427 35.7563 55.5945 35.6916 55.7797C35.6269 55.9648 35.6384 56.1681 35.7236 56.3447C36.7698 58.4556 37.9485 60.4982 39.2528 62.4601ZM64.4215 62.3714C64.3341 59.5031 64.3129 56.6242 64.109 53.7638C64.0845 53.5714 63.9858 53.3962 63.8341 53.2754C63.6823 53.1547 63.4895 53.0979 63.2965 53.1173C63.1035 53.1366 62.9257 53.2305 62.801 53.3789C62.6762 53.5274 62.6143 53.7187 62.6284 53.9121C62.6073 56.7831 62.7688 59.6593 62.8642 62.529C62.8973 63.5394 64.4519 63.3752 64.4215 62.3714ZM79.2849 63.4692C80.2728 60.6989 81.4447 57.7485 82.2525 54.9437C82.2996 54.7593 82.2728 54.5639 82.1779 54.399C82.0829 54.2341 81.9273 54.1128 81.7443 54.061C81.5612 54.0092 81.3651 54.031 81.1978 54.1216C81.0306 54.2123 80.9053 54.3647 80.8488 54.5464C79.7312 57.2452 78.8055 60.2804 77.852 63.0653C77.5395 63.9751 78.9644 64.3657 79.2849 63.4692ZM49.5356 216.42C48.5146 216.182 48.0206 217.354 49.0482 217.779C50.926 218.555 54.7041 220.017 53.3521 222.79C51.9285 225.71 45.539 226.139 42.5991 225.822C39.5083 225.49 34.5305 223.537 37.6305 219.653C39.5851 217.202 43.2798 217.321 46.0978 217.362C47.0698 217.376 47.2314 215.912 46.2302 215.839C42.8997 215.597 39.119 215.546 36.6135 218.15C32.2845 222.652 36.7327 227.086 41.7847 227.743C45.6833 228.25 52.8263 227.478 54.8657 223.731C56.8905 220.018 52.7455 217.17 49.5356 216.422V216.42ZM37.9073 203.972C34.6443 202.027 30.3591 202.516 26.9849 203.951C25.8844 204.421 26.5691 205.922 27.6642 205.629C30.3127 204.922 32.9612 204.053 35.6826 204.944C40.8551 206.634 41.0577 212.257 33.8657 213.455C31.3631 213.907 28.7945 213.843 26.3175 213.267C22.9989 212.233 23.2134 209.441 25.0833 207.192C25.7083 206.439 24.6237 205.715 23.9802 206.429C22.0441 208.574 21.1092 212.025 23.6279 214.132C25.8553 215.998 30.2346 215.93 32.9731 215.647C41.4073 214.778 44.4941 207.904 37.9073 203.975V203.972ZM11.7017 217.312C11.5316 217.378 11.3898 217.502 11.3002 217.661C11.2105 217.821 11.1786 218.006 11.2097 218.186C11.2408 218.366 11.3331 218.53 11.4709 218.65C11.6088 218.77 11.7838 218.839 11.9665 218.845C14.4244 218.898 17.7853 217.97 19.4141 220.49C20.8814 222.761 19.1903 225.481 17.3324 226.882C14.0959 229.324 5.31217 230.535 4.17332 225.932C3.42114 222.887 6.71985 220.826 8.90752 219.553C9.80801 219.024 8.95519 217.688 8.05338 218.187C5.32409 219.7 2.39088 221.762 2.35909 225.229C2.30745 231.952 13.4682 231.801 18.0647 228.55C20.5636 226.783 22.5672 223.689 21.4469 220.541C20.0882 216.7 15.0653 216.21 11.7017 217.312Z" fill="#2F80ED"/>
<path d="M56.1648 150.013C56.5356 145.961 61.3373 145.486 62.5636 149.748C62.8492 150.72 62.8112 151.758 62.4553 152.705C62.0994 153.653 61.4449 154.46 60.5905 155.003C60.6858 156.253 60.5916 157.51 60.311 158.732C60.1776 158.94 59.9887 159.106 59.7657 159.213C59.5426 159.319 59.2943 159.36 59.0488 159.333C58.8034 159.305 58.5705 159.21 58.3765 159.057C58.1825 158.904 58.0352 158.7 57.9512 158.467C57.7793 157.276 57.7936 156.066 57.9936 154.88C56.5621 154.08 55.9476 152.421 56.1648 150.013ZM122.286 169.306C120.87 188.721 120.035 208.218 119.175 227.665C119.132 228.638 120.657 228.863 120.726 227.832C122.034 208.442 123.175 188.899 123.826 169.473C123.862 168.484 122.362 168.298 122.289 169.302L122.286 169.306ZM15.6745 130.771C25.8553 136.14 34.6537 139.182 45.7509 143.763C46.6858 144.149 47.34 142.703 46.3945 142.306C34.8735 137.539 25.9441 134.455 15.2454 128.881C15.1259 128.813 14.9909 128.777 14.8534 128.776C14.716 128.775 14.5806 128.81 14.4602 128.876C14.3399 128.943 14.2386 129.039 14.166 129.155C14.0934 129.272 14.052 129.406 14.0456 129.543C13.819 137.027 14.0459 144.519 14.725 151.976C15.1672 158.67 15.982 165.334 17.1656 171.938C17.3205 172.864 18.6964 172.515 18.5693 171.606C17.4397 163.543 16.8954 159.662 16.3009 151.539C15.7447 143.891 15.8453 138.227 15.6771 130.772L15.6745 130.771ZM113.727 169.48C98.9342 164.412 84.3542 158.796 69.8456 152.968C69.6744 152.891 69.4865 152.86 69.2998 152.878C69.1132 152.895 68.9341 152.96 68.7797 153.066C68.6254 153.172 68.5009 153.317 68.4184 153.485C68.3358 153.653 68.2979 153.84 68.3082 154.027C68.1903 158.225 67.6527 165.135 67.3812 167.578C61.5509 165.497 55.8584 163.048 50.3381 160.246C50.1395 154.918 50.1183 150.869 50.2057 145.532C50.2242 144.376 48.8165 144.107 48.7146 145.378C48.2339 151.365 48.4722 155.286 48.4643 159.201C48.4643 160.341 48.4378 161.285 49.4456 161.849C55.2579 164.995 61.3572 167.578 67.6606 169.564C68.1427 169.714 68.8392 169.647 68.9359 169.035C69.4894 165.537 69.4365 159.478 69.8417 154.558C83.9291 160.517 98.2972 165.85 112.759 170.828C112.403 179.247 111.724 187.678 111.24 195.877C110.764 203.966 110.264 209.86 109.822 217.765C91.7342 209.983 73.2728 201.476 55.3477 192.633C43.5301 186.797 32.0157 180.648 20.3517 174.537C19.532 174.108 18.7414 175.301 19.5678 175.766C31.151 182.287 40.9889 187.247 52.8886 193.165C71.783 202.567 90.8562 211.319 110.242 219.64C110.347 219.697 110.465 219.728 110.585 219.728C110.705 219.729 110.823 219.699 110.929 219.642C111.034 219.584 111.123 219.502 111.189 219.401C111.254 219.3 111.292 219.185 111.301 219.065C111.847 210.537 112.326 204.396 112.83 195.865C113.292 188.009 113.88 179.919 114.232 172.055C114.265 171.254 114.584 169.776 113.727 169.48ZM189.514 149.858C171.645 157.142 151.364 163.875 132.926 169.527C132.3 169.719 132.383 170.599 132.332 171.126C130.728 187.329 129.302 201.553 127.829 217.835C127.778 218.395 128.188 218.873 128.772 218.674C137.661 215.655 146.385 212.028 155.157 208.687C163.928 205.346 171.659 202.525 180.364 198.985C180.544 198.912 180.689 198.771 180.769 198.593C180.848 198.415 180.855 198.213 180.789 198.029C180.722 197.846 180.587 197.695 180.412 197.609C180.237 197.523 180.036 197.508 179.85 197.567C170.995 200.71 163.413 203.893 154.63 207.234C146.27 210.412 137.772 213.368 129.507 216.799C131.034 200.743 132.491 186.913 133.886 170.775C152.553 165.476 170.909 159.139 188.868 151.793C186.47 167.251 184.913 179.367 181.043 194.716C180.814 195.623 182.133 195.794 182.378 194.88C186.63 179.063 188.099 166.766 190.613 150.585C190.709 149.942 189.998 149.664 189.517 149.861L189.514 149.858ZM231.588 67.0316C230.844 66.2821 229.838 67.5931 230.578 68.3334C241.767 79.514 247.777 95.6752 242.658 111.076C238.116 124.74 225.094 134.428 210.472 132.14C218.042 112.825 224.506 93.094 229.833 73.0437C229.889 72.8505 229.867 72.6428 229.77 72.4661C229.674 72.2894 229.511 72.1582 229.318 72.1015C229.125 72.0448 228.917 72.0671 228.74 72.1636C228.564 72.2601 228.433 72.4228 228.376 72.616C222.899 92.7529 216.402 112.598 208.909 132.075C208.713 132.574 208.568 133.297 209.277 133.439C221.026 135.781 233.329 130.024 239.919 120.204C251.581 102.834 245.435 80.9747 231.588 67.0316ZM224.366 51.4783C221.418 70.4402 199.109 135.722 196.475 136.652C193.841 137.581 176.465 131.16 172.257 129.103C179.927 122.071 190.331 105.759 172.311 95.997C154.669 86.4385 140.992 91.3621 139.39 112.243C134.547 106.071 127.135 107.68 123.725 108.887C123.31 99.779 108.075 95.7533 101.536 99.8823C95.1905 91.2005 82.5095 91.5726 77.0761 95.6209C79.4915 85.6784 98.4349 23.9789 100.033 23.0241C101.632 22.0693 220.902 49.8177 224.366 51.4783ZM92.0256 84.9487C91.2507 82.7445 90.3636 80.5814 89.3678 78.4678C89.2739 78.314 89.1285 78.1985 88.9574 78.142C88.7863 78.0854 88.6007 78.0915 88.4337 78.1591C88.2666 78.2267 88.1291 78.3515 88.0455 78.5111C87.9619 78.6707 87.9377 78.8549 87.9773 79.0307C88.7555 81.2336 89.6456 83.3954 90.6443 85.5076C90.9807 86.2756 92.3288 85.742 92.0256 84.9487ZM102.222 77.0535C102.376 76.2391 101.044 75.9425 100.797 76.7291C100.011 79.2452 99.391 82.2128 98.811 84.807C98.6309 85.6109 100.015 85.93 100.236 85.1315C100.959 82.5081 101.719 79.7219 102.226 77.0535H102.222ZM110.592 84.3793C109.459 85.9766 108.007 87.3206 106.326 88.3256C105.524 88.8248 106.165 90.108 106.988 89.6379C108.96 88.6107 110.624 87.079 111.811 85.199C111.92 85.0373 111.96 84.839 111.922 84.6478C111.885 84.4565 111.773 84.2881 111.611 84.1794C111.531 84.1255 111.441 84.088 111.347 84.0689C111.252 84.0498 111.155 84.0496 111.06 84.0681C110.869 84.1056 110.7 84.2176 110.592 84.3793ZM130.132 54.728C128.319 48.7561 125.216 43.255 121.044 38.6131C116.872 33.9711 111.732 30.3014 105.987 27.8629C105.8 27.7833 105.589 27.7814 105.4 27.8575C105.212 27.9337 105.061 28.0816 104.981 28.2688C104.902 28.456 104.9 28.6671 104.976 28.8557C105.052 29.0443 105.2 29.195 105.387 29.2745C111.424 32.0923 116.713 36.2903 120.827 41.5295C124.942 46.7687 127.766 52.9021 129.073 59.4344C131.5 71.7168 128.51 86.9364 117.419 94.2092C116.678 94.6952 117.405 96.0115 118.202 95.5838C131.991 88.1918 134.325 68.4658 130.13 54.728H130.132ZM139.243 93.9152C137.621 92.0402 135.881 90.2709 134.033 88.6182C133.395 88.0726 132.475 89.0235 133.002 89.6657C134.62 91.5441 136.357 93.3173 138.201 94.9747C138.798 95.5242 139.807 94.5628 139.24 93.9152H139.243ZM150.622 86.4491C149.892 83.7147 149.024 81.0186 148.023 78.3712C147.961 78.2074 147.842 78.0713 147.688 77.9877C147.534 77.9041 147.355 77.8786 147.184 77.9158C147.013 77.9531 146.861 78.0505 146.755 78.1905C146.65 78.3304 146.598 78.5036 146.61 78.6784C147.313 81.4864 148.165 84.255 149.163 86.9722C149.465 87.9164 150.92 87.392 150.622 86.4491ZM168.804 77.3515C168.937 76.5133 167.59 76.2921 167.356 77.0867C166.471 80.2353 165.756 83.4291 165.213 86.6544C165.073 87.4807 166.429 87.7058 166.651 86.9192C167.54 83.7686 168.258 80.5726 168.804 77.3449V77.3515ZM186.508 86.7537C187.004 86.1445 186.037 85.1646 185.377 85.783C183.535 87.5045 181.501 89.8207 179.822 91.7342C179.749 91.7997 179.689 91.879 179.646 91.9676C179.603 92.0563 179.578 92.1525 179.572 92.2508C179.566 92.3491 179.58 92.4476 179.612 92.5406C179.645 92.6337 179.695 92.7194 179.761 92.7929C179.826 92.8665 179.905 92.9264 179.994 92.9694C180.083 93.0123 180.179 93.0373 180.277 93.043C180.375 93.0487 180.474 93.035 180.567 93.0027C180.66 92.9703 180.746 92.92 180.819 92.8545C182.667 90.9926 184.872 88.7626 186.508 86.7497V86.7537ZM193.622 122.559C191.339 122.108 189.096 121.479 186.912 120.676C185.953 120.325 185.338 121.513 186.294 121.906C188.566 122.813 190.915 123.517 193.312 124.009C193.41 124.036 193.512 124.044 193.613 124.03C193.714 124.016 193.81 123.982 193.897 123.93C193.984 123.877 194.06 123.808 194.118 123.725C194.177 123.642 194.219 123.548 194.24 123.449C194.261 123.35 194.262 123.247 194.242 123.148C194.222 123.048 194.182 122.954 194.124 122.87C194.066 122.787 193.992 122.716 193.905 122.663C193.819 122.609 193.723 122.574 193.622 122.559ZM195.733 103.37C193.303 103.484 190.883 103.758 188.489 104.19C188.278 104.202 188.08 104.295 187.936 104.451C187.792 104.606 187.715 104.811 187.719 105.022C187.724 105.234 187.811 105.435 187.961 105.584C188.111 105.733 188.314 105.818 188.525 105.82C191.025 105.676 193.513 105.366 195.973 104.893C196.149 104.835 196.299 104.716 196.395 104.557C196.491 104.398 196.528 104.21 196.498 104.027C196.468 103.844 196.374 103.677 196.233 103.557C196.092 103.436 195.912 103.37 195.726 103.37H195.733Z" fill="#12121D"/>
</svg>
