<svg width="256" height="256" viewBox="0 0 256 256" fill="none" xmlns="http://www.w3.org/2000/svg">
<rect width="256" height="256" fill="#E5E5E5"/>
<rect x="-60" y="-70" width="375" height="812" rx="40" fill="white"/>
<rect x="-60" y="-70" width="375" height="812" fill="white"/>
<path opacity="0.1" d="M23.5492 67.871C16.2996 74.212 12.7774 82.7213 12.7774 91.5732C12.7774 105.171 20.3054 114.081 14.299 127.507C12.4071 131.736 8.54299 135.312 4.46914 137.985C-2.36869 142.471 -7.57459 147.457 -12.4372 153.533C-34.4932 181.092 14.3297 220.544 41.6148 232.477C57.177 239.283 74.2552 239.346 91.4644 237.674C106.11 236.25 121.144 232.203 135.856 234.927C163.924 240.126 179.621 251.152 211.59 247.138C243.089 243.184 272.749 229.82 272.749 201.318C272.749 187.216 274.718 161.835 267.629 148.843L267.307 148.254C263.458 141.204 259.569 134.079 257.412 126.451C249.978 100.159 268.226 79.5215 250.964 52.0695C244.699 42.1064 229.842 41 218.286 41C208.624 41 198.251 42.1771 189.111 45.0137C161.562 53.5638 139.943 58.4338 112.235 49.45C100.88 45.7684 87.1488 45.4958 75.3792 47.929C55.6103 52.016 38.4282 54.8567 23.5492 67.871Z" fill="#2F80ED"/>
<path d="M64.8948 43.8668C63.3902 44.2374 62.039 46.6458 63.0421 46.9951C63.7514 47.2439 63.6786 45.9709 65.2256 45.3701C66.1228 45.0208 65.8595 43.63 64.8948 43.8668Z" fill="#12121D"/>
<path d="M66.6219 49.6329C67.138 49.0625 66.5716 46.9611 65.6069 47.6016C64.9056 48.1442 65.734 50.6188 66.6219 49.6329Z" fill="#12121D"/>
<path d="M49.3564 59.1601C49.5496 62.2042 49.5496 65.2575 49.3564 68.3016C49.3564 69.0731 50.3713 69.0956 50.5473 68.3016C50.9216 65.3279 51.0438 62.3278 50.9126 59.3335C53.1979 58.8452 55.036 56.2899 55.7572 54.7111C56.1281 55.2208 56.6807 55.5684 57.3007 55.6819C57.9207 55.7955 58.5606 55.6663 59.088 55.3212C59.7682 54.6913 59.2508 53.8391 58.3972 54.1434C57.7356 54.3777 57.2063 53.9793 56.8543 53.3812C56.3885 52.5978 55.8366 49.619 56.9959 49.0646C58.0876 48.5432 59.751 49.8585 60.0024 48.7298C60.7077 46.5186 60.8613 44.1684 60.4497 41.8842C64.3601 41.8842 73.2449 40.635 73.9475 32.8751C74.7574 23.9268 46.678 30.685 42.1985 36.7855C38.0526 42.4294 45.8112 56.9793 49.3564 59.1601Z" fill="#12121D"/>
<path d="M69.5872 53.8816C70.8774 53.7903 71.0428 52.6721 70.8774 51.5248C70.3765 48.3255 69.4615 45.2049 68.1553 42.2417C68.097 42.1136 67.9915 42.0128 67.8608 41.9603C67.7301 41.9079 67.5842 41.9078 67.4534 41.96C67.3226 42.0123 67.217 42.113 67.1584 42.2411C67.0999 42.3692 67.0929 42.5149 67.139 42.648C68.1104 45.7931 68.9174 48.9866 69.5567 52.2156C69.6057 52.4604 69.6282 52.4392 69.3741 52.4697C68.3366 52.594 66.7513 51.9972 66.8598 54.1053C66.8438 54.6011 66.8743 55.0973 66.9511 55.5874C65.8947 55.7816 64.804 55.5597 63.9075 54.9681C63.1492 54.4612 62.6371 55.1004 62.8303 55.9844C63.0336 56.912 63.531 57.7492 64.2484 58.3713C64.9659 58.9934 65.8651 59.3671 66.8122 59.4369C66.8122 60.6663 66.7513 62.0478 65.3565 62.413C63.7194 62.6153 62.0607 62.5573 60.4417 62.241C59.8753 62.1365 59.4823 62.9688 60.0553 63.256C60.5763 63.5131 61.1353 63.6847 61.7108 63.7642C61.842 65.5055 62.1102 67.2338 62.5127 68.933C62.5257 69.0168 62.556 69.0969 62.6017 69.1683C62.6473 69.2397 62.7074 69.3008 62.778 69.3477C62.8486 69.3946 62.9282 69.4262 63.0117 69.4407C63.0952 69.4551 63.1808 69.452 63.263 69.4315C63.3453 69.411 63.4224 69.3736 63.4893 69.3217C63.5563 69.2697 63.6117 69.2044 63.6521 69.1299C63.6924 69.0554 63.7168 68.9732 63.7236 68.8888C63.7305 68.8043 63.7196 68.7193 63.6918 68.6392C63.447 67.1161 63.1426 65.5003 62.9904 63.8965C64.0117 64.0192 65.0473 63.9328 66.0341 63.6424C68.0653 62.8696 68.2069 60.9402 68.0653 59.0717C68.0653 58.6244 68.0654 57.9945 67.2528 58.1268C67.2528 58.1268 65.7284 58.5543 64.3879 56.5124C65.179 56.8538 66.0465 56.9799 66.9022 56.8776C68.8223 56.6434 68.2321 56.0214 68.2321 53.9928C68.6766 53.894 69.1325 53.8566 69.5872 53.8816Z" fill="#12121D"/>
<path d="M16.709 76.4084C16.822 76.6015 17.0071 76.7417 17.2235 76.7983C17.4399 76.8549 17.6699 76.8232 17.863 76.7101C18.056 76.5971 18.1962 76.4121 18.2528 76.1957C18.3094 75.9793 18.2777 75.7492 18.1647 75.5562C16.9737 73.7168 15.4228 73.0565 14.1021 71.9608C13.0133 70.8542 12.1066 69.5822 11.4158 68.192C10.7157 67.177 9.83706 67.4416 10.3187 68.802C11.6063 72.4133 13.2803 72.8209 16.709 76.4084Z" fill="#12121D"/>
<path d="M20.1561 66.4567C19.8188 63.25 19.9351 60.0118 20.5015 56.8375C20.7053 55.6624 20.1111 55.4547 19.4852 56.5543C18.4636 58.3474 18.2558 64.5194 18.9267 66.6287C19.1464 67.3208 20.1865 66.994 20.1561 66.4567Z" fill="#12121D"/>
<path d="M17.3228 70.1624C15.7891 64.5052 16.2271 62.2503 16.7432 56.8366C16.8041 56.1974 15.9161 56.2199 15.7282 56.7148C14.2223 60.6649 14.6206 66.6172 16.0326 70.5488C16.115 70.6763 16.2366 70.7735 16.3791 70.826C16.5216 70.8785 16.6772 70.8833 16.8227 70.8397C16.9681 70.7962 17.0955 70.7066 17.1857 70.5844C17.2759 70.4623 17.324 70.3142 17.3228 70.1624Z" fill="#12121D"/>
<path d="M23.6802 65.8759C23.6848 63.5232 23.9023 61.1758 24.3299 58.8623C24.5655 57.6422 23.8535 56.9131 23.2024 58.4653C22.471 60.818 22.1785 63.2851 22.3396 65.7436C22.4402 67.3646 23.6643 67.5525 23.6802 65.8759Z" fill="#12121D"/>
<path d="M28.4533 75.3825C28.7312 71.2696 26.4168 68.7395 27.2862 62.1798C27.3867 61.4176 26.6245 60.8207 26.1997 62.1798C24.8407 66.5335 26.7754 71.6693 27.2147 75.2806C27.351 76.4068 28.3541 76.8143 28.4533 75.3825Z" fill="#12121D"/>
<path d="M131.521 133.265C128.619 132.374 125.975 130.796 123.813 128.664C120.974 125.416 119.565 131.36 131.167 134.355C131.311 134.402 131.468 134.389 131.604 134.32C131.739 134.252 131.841 134.132 131.888 133.987C131.935 133.843 131.923 133.686 131.854 133.55C131.785 133.415 131.666 133.312 131.521 133.265Z" fill="#12121D"/>
<path d="M129.094 135.458C126.482 134.632 123.973 133.507 121.618 132.107C121.221 131.867 120.122 132.239 121.03 133.223C123.29 134.999 125.976 136.151 128.82 136.565C130.272 136.587 130.323 135.78 129.094 135.458Z" fill="#12121D"/>
<path d="M116.876 126.716C116.581 127.314 117.448 128.039 117.892 127.435C120.365 124.086 125.327 126.42 128.403 124.146C128.585 124.035 128.715 123.857 128.765 123.651C128.815 123.444 128.781 123.226 128.671 123.045C128.561 122.863 128.383 122.733 128.177 122.682C127.971 122.632 127.753 122.665 127.571 122.775C124.339 124.609 118.775 122.855 116.876 126.716Z" fill="#12121D"/>
<path d="M121.182 123.352C121.985 123.261 122.354 122.807 122.055 122.337C121.621 121.652 119.901 122.035 119.012 122.174C117.262 122.439 115.604 122.325 115.549 123.119C115.449 124.478 119.303 123.567 121.182 123.352Z" fill="#12121D"/>
<path d="M122.229 138.902C118.295 137.426 114.455 135.709 110.732 133.762C110.236 133.505 109.276 133.843 110.213 134.777C111.718 136.27 119.629 139.521 121.858 139.856C122.361 139.856 122.786 139.107 122.229 138.902Z" fill="#12121D"/>
<path d="M127.398 137.653C124.354 136.818 122.898 136.735 119.855 134.992C119.184 134.607 118.492 135.533 119.153 136.007C121.53 137.703 124.36 138.647 127.279 138.718C127.396 138.695 127.502 138.635 127.583 138.547C127.664 138.459 127.714 138.348 127.728 138.229C127.741 138.111 127.716 137.991 127.657 137.887C127.597 137.784 127.507 137.702 127.398 137.653Z" fill="#12121D"/>
<path d="M197.559 57.7818C197.559 61.9463 199.579 63.5276 201.551 66.7406C202.238 67.8602 203.259 67.27 203.094 66.4958C202.634 64.3415 199.499 63.3371 198.697 57.7209C198.683 57.5745 198.613 57.4392 198.501 57.3432C198.39 57.2472 198.245 57.198 198.098 57.2059C197.952 57.2137 197.813 57.278 197.713 57.3854C197.612 57.4927 197.557 57.6347 197.559 57.7818Z" fill="#12121D"/>
<path d="M206.893 55.8204C207.31 52.3137 205.695 46.4712 204.008 43.5215C203.932 43.383 203.806 43.2794 203.655 43.2325C203.504 43.1857 203.341 43.1992 203.2 43.2703C203.059 43.3414 202.951 43.4644 202.899 43.6136C202.847 43.7627 202.855 43.9261 202.922 44.0694C204.505 47.7569 205.323 51.7269 205.329 55.7397C205.304 56.9889 206.737 57.1596 206.893 55.8204Z" fill="#12121D"/>
<path d="M213.751 66.3233C212.746 60.9175 213.649 51.0853 212.125 46.2644C211.914 45.5935 210.67 45.2481 210.928 46.5185C212.305 53.1351 211.128 59.9753 212.217 66.4556C212.377 67.4203 213.933 67.3184 213.751 66.3233Z" fill="#12121D"/>
<path d="M209.829 56.3085C210.539 54.2163 209.229 46.8335 208.558 44.9438C207.887 43.0541 206.609 42.9589 207.269 45.5539C208.132 49.0346 208.545 52.6116 208.497 56.1973C208.531 56.3421 208.609 56.4726 208.722 56.5699C208.834 56.6672 208.974 56.7263 209.122 56.7387C209.27 56.751 209.419 56.716 209.546 56.6387C209.672 56.5614 209.772 56.4457 209.829 56.3085Z" fill="#12121D"/>
<path d="M199.946 46.2234C201.908 50.3792 202.598 55.0221 201.931 59.569C201.781 60.584 203.299 60.8672 203.443 59.884C204.178 55.0031 203.318 50.0154 200.991 45.6623C200.917 45.5237 200.79 45.4203 200.64 45.3749C200.489 45.3294 200.327 45.3457 200.188 45.4201C200.049 45.4945 199.946 45.621 199.9 45.7716C199.855 45.9222 199.871 46.0848 199.946 46.2234Z" fill="#12121D"/>
<path d="M191.191 42.7292C188.422 37.5365 181.398 36.8934 176.333 38.5648C171.448 40.1739 169.567 45.9396 169.222 50.6612C168.905 55.0096 169.146 61.8353 170.441 65.3884C170.898 66.9212 171.797 68.2851 173.026 69.3094C174.254 70.3338 175.758 70.9731 177.348 71.1474V74.7204C177.368 74.8687 177.442 75.0045 177.555 75.1028C177.668 75.2011 177.813 75.2553 177.962 75.2553C178.112 75.2553 178.257 75.2011 178.37 75.1028C178.483 75.0045 178.556 74.8687 178.577 74.7204C178.709 73.5294 178.729 72.3239 178.801 71.1249C181.217 70.8603 184.701 68.9005 185.331 66.3517C185.378 66.2181 185.37 66.0717 185.31 65.9435C185.25 65.8153 185.143 65.7155 185.011 65.6653C184.878 65.615 184.732 65.6182 184.602 65.6742C184.472 65.7303 184.369 65.8347 184.315 65.9653C182.162 70.5969 173.315 71.9679 171.203 62.665C170.145 55.834 169.491 44.9233 175.082 40.8898C178.057 38.7447 187.22 38.1109 189.942 43.5206C191.126 46.5033 191.155 49.8207 190.022 52.8235C189.32 52.6137 188.564 52.6718 187.902 52.9867C187.24 53.3015 186.718 53.8506 186.437 54.5279C186.08 55.1565 186.936 55.789 187.364 55.1988C190.349 51.0516 191.936 59.8304 188.835 59.9006C188.461 59.9098 187.079 59.3329 187.079 60.4299C187.079 60.9989 187.668 61.3748 188.186 61.5071C188.079 65.259 188.559 69.0045 189.608 72.6084C189.656 72.7649 189.763 72.8963 189.907 72.9742C190.051 73.0522 190.22 73.0705 190.377 73.0252C190.534 72.9798 190.667 72.8745 190.747 72.7319C190.828 72.5893 190.849 72.4209 190.806 72.263C190.059 68.7167 189.598 65.1164 189.426 61.4965C192.665 60.7449 192.391 55.748 191.264 53.9205C192.075 52.9968 193.541 47.1346 191.191 42.7292Z" fill="#12121D"/>
<path d="M181.197 59.2928C180.976 58.2765 180.071 58.1865 179.663 58.8561C179.168 59.5901 178.484 60.1767 177.683 60.5539C176.883 60.931 175.995 61.0847 175.114 60.9986C174.595 60.9986 174.386 61.4644 174.595 62.0149C176.433 66.8357 182.483 65.2226 181.197 59.2928ZM180.069 60.501C180.171 63.7921 177.51 64.6549 176.057 62.3391C176.814 62.3133 177.558 62.1379 178.247 61.8228C178.936 61.5078 179.555 61.0595 180.069 60.5037V60.501Z" fill="#12121D"/>
<path d="M177.947 55.8724C178.962 55.8023 178.873 52.8672 177.673 53.1715C176.706 53.4177 176.759 55.9545 177.947 55.8724Z" fill="#12121D"/>
<path d="M172.3 53.2063C171.285 53.4034 171.071 55.8344 172.3 55.7761C173.396 55.7206 173.224 53.0223 172.3 53.2063Z" fill="#12121D"/>
<path d="M179.741 49.321C177.227 48.6091 176.38 50.8653 178.096 50.692C178.471 50.6015 178.862 50.6042 179.236 50.7C179.609 50.7957 179.954 50.9815 180.239 51.2411C181.784 52.6518 182.598 50.1322 179.741 49.321Z" fill="#12121D"/>
<path d="M172.959 49.3828C172.618 49.3838 172.282 49.4642 171.977 49.6177C171.672 49.7711 171.407 49.9933 171.203 50.2668C170.634 50.906 171.203 51.6377 171.66 51.2103C171.839 51.0025 172.068 50.844 172.326 50.75C172.584 50.656 172.861 50.6295 173.132 50.673C173.965 50.7432 174.331 49.3802 172.959 49.3828Z" fill="#12121D"/>
<path d="M176.739 59.3667C177.308 59.1881 177.469 58.271 176.739 58.279C176.019 58.2925 175.3 58.2246 174.595 58.0765C174.899 56.339 175.562 54.0086 175.114 53.7797C174.294 53.3642 173.354 57.2944 173.254 57.9852C172.943 60.1475 176.404 59.47 176.739 59.3667Z" fill="#12121D"/>
<path d="M171.425 182.514C175.174 183.956 180.943 184.697 187.056 184.992C185.601 177.582 183.863 169.078 183.776 161.632C183.768 160.932 184.783 160.719 184.864 161.449C185.791 169.407 187.243 177.295 189.209 185.062C195.924 185.275 202.646 185.092 209.34 184.514C209.889 178.136 210.619 156.717 211.026 139.998C199.248 144.812 177.51 144.61 164.803 141.014C166.439 155.355 168.998 171.423 171.425 182.514Z" fill="#12121D"/>
<path d="M54.7793 163.876C53.5038 164.054 52.2118 164.081 50.9298 163.958C55.2231 172.755 58.9104 181.836 61.9663 191.136C66.4655 206.025 70.4778 234.901 70.7319 239.765C72.1743 240.537 85.8442 240.152 89.2067 239.765C89.2067 236.495 91.2063 199.62 90.2217 186.171C89.6924 179.001 86.7811 157.113 84.5037 140.72C69.1982 145.321 48.9567 145.525 33.9146 139.41C35.0818 158.048 37.1065 175.609 33.3654 185.886C27.9605 199.303 21.5576 212.295 14.2104 224.755C14.9833 225.721 24.8949 231.865 30.5732 235.156C47.026 211.998 56.5102 198.226 59.6108 189.847C56.9367 180.886 53.5154 172.166 49.3829 163.778C47.7093 163.5 46.0664 163.061 44.4773 162.468C43.8779 162.243 43.9109 161.128 44.8624 161.451C48.0809 162.491 51.456 162.962 54.8362 162.843C55.5111 162.826 55.6435 163.751 54.7793 163.876Z" fill="#12121D"/>
<path d="M28.2217 235.161C28.1178 234.987 27.9493 234.863 27.7534 234.814C27.5575 234.765 27.3501 234.795 27.1769 234.899C27.0037 235.003 26.8789 235.172 26.8298 235.368C26.7808 235.563 26.8117 235.771 26.9155 235.944C26.9963 236.076 35.5528 249.761 34.7628 250.618C33.7386 251.729 12.7375 238.305 10.9246 235.383C9.77066 233.522 13.0498 231.331 15.2412 228.437C15.7626 227.749 14.8734 226.654 14.1654 227.268C12.5858 228.696 11.1687 230.294 9.94004 232.032C7.13329 235.841 11.2514 238.289 13.9312 240.299C19.0117 244.077 24.3502 247.494 29.9076 250.527C33.0134 252.239 38.5091 254.109 35.7301 248.17C33.5742 243.642 31.0635 239.292 28.2217 235.161Z" fill="#12121D"/>
<path d="M102.413 247.866C97.9724 245.314 93.3448 243.102 88.5702 241.249C88.4604 241.203 88.3424 241.179 88.2232 241.179C88.104 241.179 87.986 241.202 87.8761 241.248C87.7662 241.294 87.6666 241.362 87.5831 241.447C87.4997 241.532 87.434 241.633 87.39 241.744C87.3459 241.854 87.3245 241.973 87.3268 242.092C87.3291 242.211 87.3552 242.329 87.4035 242.438C87.4517 242.547 87.5213 242.645 87.608 242.727C87.6947 242.808 87.7969 242.872 87.9085 242.914C91.5304 244.336 95.0888 245.941 98.5427 247.667C100.111 248.45 105.652 250.958 100.807 251.08L73.2528 251.751C70.0636 251.821 70.0768 251.323 70.7028 248.327C71.1695 246.258 71.8503 244.243 72.7341 242.314C73.0781 241.536 71.8422 240.796 71.4041 241.564C70.3394 243.462 69.5802 245.517 69.1545 247.651C67.8312 254.036 70.5665 253.46 75.5832 253.359L101.634 252.779C105.744 252.674 105.702 250.128 102.413 247.866Z" fill="#12121D"/>
<path d="M140.469 222.967C167.494 227.102 202.533 229.887 229.978 231.792C231.086 231.869 231.085 230.147 229.978 230.072C200.086 228.132 167.276 224.779 140.602 221.591C139.87 221.507 139.687 222.846 140.469 222.967Z" fill="#12121D"/>
<path d="M244.177 33.6204C244.028 26.6227 243.4 14.124 234.843 12.536C234.141 12.4037 233.829 13.5444 234.488 13.7442C241.957 16.0124 242.135 27.2116 242.542 33.8044C242.547 33.8275 242.547 33.8514 242.542 33.8745C243.222 104.635 245.503 159.002 244.979 228.311C244.917 236.436 241.242 244.085 235.29 246.003C234.7 246.193 234.803 247.292 235.544 247.181C243.352 246.009 247.01 235.328 247 228.33C246.902 163.173 245.65 102.774 244.177 33.6204Z" fill="#12121D"/>
<path d="M178.779 18.9629C174.98 19.6722 175.735 26.3735 179.267 25.991C183.137 25.5676 183.035 18.1689 178.779 18.9629ZM178.962 20.5985C180.526 20.224 181.058 23.4291 179.185 24.1529C177.726 24.718 177.601 20.924 178.962 20.5985Z" fill="#12121D"/>
<path d="M138.56 36.7688C166.764 33.5928 196.444 29.2841 224.982 25.596C226.179 25.4412 226.173 23.5634 224.982 23.7169C196.304 27.4354 164.322 31.3829 138.336 35.1332C137.412 35.2668 137.636 36.872 138.56 36.7688Z" fill="#12121D"/>
<path d="M234.701 33.0606C234.588 18.3136 235.219 4.833 215.658 7.83295C194.146 11.1307 171.933 15.3759 150.474 18.0807C131.958 20.4097 132.972 32.9905 133.066 49.0781C133.183 69.1673 133.33 88.7643 133.583 110.18C133.592 110.921 134.906 110.86 134.893 110.18C134.552 88.1093 134.798 66.5101 134.782 45.1161C134.771 30.8414 135.146 21.9752 150.809 19.7256C172.691 16.5814 194.532 12.8721 216.399 9.56915C230.78 7.39626 232.886 15.7953 232.994 28.744C233.555 95.0156 234.883 161.277 235.666 227.547C235.838 242.142 232.69 248.569 217.111 246.418C195.04 243.374 170.9 242.489 149.509 238.76C136.306 236.458 136.288 226.572 136.305 215.887C136.346 191.197 135.752 164.173 135.29 138.993C135.275 138.181 134.059 138.303 134.061 139.074C134.111 163.988 134.279 191.41 134.549 216.782C134.668 228.03 135.564 238.25 149.357 240.456C171.701 244.029 194.451 245.536 217.404 248.175C232.345 249.895 237.783 243.899 237.651 228.431C237.074 163.246 235.202 98.1532 234.701 33.0606Z" fill="#12121D"/>
<path d="M214.703 68.0103C212.012 67.8779 204.638 69.3614 202.068 69.9304C201.647 78.6093 202.499 87.3031 204.597 95.735C204.782 96.3636 203.712 96.5383 203.5 95.9587C201.403 90.2155 200.535 81.5862 200.23 75.401C197.933 73.9899 195.401 73.0038 192.755 72.4897C190.256 73.7892 182.974 81.2037 180.019 82.2293C178.221 80.9391 176.976 79.5271 175.255 74.9166C163.728 78.2474 154.851 95.5339 151.001 100.735C147.152 105.935 139.941 111.983 128.77 120.631C131.428 124.296 133.485 128.361 134.864 132.673C144.628 128.931 153.705 123.597 161.727 116.89C162.208 108.578 163.319 100.316 165.052 92.1727C165.23 91.3589 166.243 91.5229 166.069 92.3249C163.214 110.2 162.717 121.067 164.613 138.994C176.974 142.66 199.681 142.832 211.12 137.826C211.272 130.798 211.363 124.826 211.343 121.474C205.636 119.279 199.144 107.352 196.494 102.177C196.209 101.619 196.984 101.088 197.327 101.619C200.189 106.034 207.229 118.45 212.186 119.839C216.401 121.02 221.091 117.869 221.987 112.018C222.958 105.733 217.526 72.9873 214.703 68.0103Z" fill="#2F80ED"/>
<path d="M93.5365 103.228C90.3605 97.8848 79.5808 72.1794 64.7835 69.9351C58.6962 72.8199 50.6359 73.2063 47.853 69.4375C37.5748 71.6474 32.1254 82.8996 29.9419 92.1932C29.758 92.9753 28.7126 92.843 28.9256 92.0516C29.5315 88.8913 30.4678 85.8034 31.7191 82.8387C31.3936 81.6914 30.9767 80.1272 30.368 77.6394C28.2507 77.0598 19.886 77.8326 16.7074 78.5022C15.3616 100.846 20.7647 115.257 24.0254 119.595C25.4016 121.427 29.1043 122.389 32.0182 122.109C32.1502 109.628 33.8255 97.2104 37.0058 85.14C37.0354 85.0189 37.112 84.9145 37.2186 84.8499C37.3251 84.7852 37.4531 84.7656 37.5741 84.7952C37.6952 84.8249 37.7996 84.9014 37.8642 85.008C37.9289 85.1146 37.9485 85.2425 37.9189 85.3636C33.7226 102.543 32.8413 119.77 33.8563 137.329C44.4812 142.53 66.4893 144.266 84.3037 138.72C83.4409 132.525 82.6999 127.294 82.2724 124.207C72.0022 116.267 69.1041 113.856 63.2392 100.359C62.9441 99.6792 63.7778 99.232 64.1232 99.9016C67.1668 105.805 70.1972 111.96 75.2959 116.295C84.867 124.85 96.1104 131.324 108.314 135.308C109.459 130.291 111.801 125.625 115.14 121.708C112.752 120.083 95.6909 106.858 93.5365 103.228Z" fill="#2F80ED"/>
<path d="M155.866 188.416C141.393 188.416 143.68 216.674 156.66 217.514C171.427 218.471 169.029 188.416 155.866 188.416ZM154.049 195.811C154.817 193.629 157.38 193.606 158.112 196.054C158.518 197.415 158.701 202.595 157.999 203.986C157.793 204.295 157.511 204.546 157.179 204.714C156.848 204.881 156.478 204.96 156.107 204.943C155.736 204.926 155.376 204.813 155.061 204.615C154.747 204.417 154.489 204.141 154.313 203.814C153.509 202.37 153.454 197.498 154.049 195.811ZM156.75 209.115C156.811 210.293 156.75 211.421 156.913 212.659C157.076 213.898 155.511 213.767 155.325 212.813C155.168 211.553 155.118 210.282 155.173 209.013C150.845 208.151 150.362 202.794 150.765 199.67C150.836 199.111 151.892 199.03 151.923 199.67C152.074 202.845 151.729 206.78 155.883 207.345C160.037 207.91 160.164 202.197 160.109 199.413C160.088 198.337 161.376 198.398 161.432 199.413C161.612 203.093 161.656 208.729 156.75 209.115Z" fill="#2F80ED"/>
<path d="M181.582 189.889C166.346 190.37 168.138 217.767 181.156 219.282C197.592 221.194 196.237 189.427 181.582 189.889ZM181.816 209.278C180.871 209.969 175.478 209.033 174.879 208.313C173.975 207.226 173.965 201.538 174.727 200.858C175.489 200.178 181.915 201.224 182.333 202.118C182.673 202.841 182.598 208.734 181.796 209.318L181.816 209.278ZM187.493 211.41C186.365 211.41 183.634 206.404 183.623 205.692C183.613 204.98 187.158 200.695 188.123 201.01C188.844 201.294 188.357 211.42 187.473 211.451L187.493 211.41Z" fill="#2F80ED"/>
<path d="M207.99 191.564C193.242 190.937 192.825 220.994 208.588 221.207C223.448 221.401 224.006 192.247 207.99 191.564ZM216.389 206.352C216.602 207.043 216.459 209.502 215.577 210.141C213.89 210.726 212.043 210.643 210.416 209.908C209.971 209.519 210.151 207.41 210.181 207.074C210.357 205.431 204.596 205.57 204.769 206.941C204.942 208.312 204.849 209.358 204.454 209.624C203.884 210.007 200.898 210.172 200.116 209.329C199.616 208.154 199.52 206.847 199.842 205.611C202.584 200.595 214.956 201.477 216.408 206.352H216.389Z" fill="#2F80ED"/>
<path d="M114.397 8.7443C113.759 8.30496 112.977 9.2604 113.534 9.76061C114.913 10.9992 121.964 17.2148 123.691 17.8858C123.815 17.9174 123.945 17.9125 124.066 17.8719C124.187 17.8312 124.293 17.7565 124.373 17.6566C124.452 17.5568 124.501 17.4361 124.513 17.3091C124.526 17.1821 124.501 17.0543 124.443 16.9409C123.467 15.4416 115.895 9.77914 114.397 8.7443Z" fill="#2F80ED"/>
<path d="M134.219 10.9933C134.324 9.97965 132.078 3.61317 131.66 2.38117C131.589 2.24531 131.477 2.13601 131.339 2.06972C131.201 2.00342 131.045 1.98372 130.895 2.01356C130.745 2.04341 130.608 2.12119 130.506 2.23522C130.404 2.34924 130.342 2.49333 130.329 2.64583C130.341 4.24042 131.954 10.3647 133.092 11.3797C133.179 11.4682 133.29 11.5303 133.411 11.5587C133.532 11.5871 133.659 11.5808 133.777 11.5404C133.894 11.5001 133.998 11.4273 134.077 11.3306C134.155 11.2338 134.204 11.1169 134.219 10.9933Z" fill="#2F80ED"/>
<path d="M119.628 28.9183C118.755 28.4405 111.26 29.2226 110.041 29.5482C109.896 29.5968 109.77 29.6917 109.684 29.8184C109.597 29.9451 109.555 30.0966 109.563 30.2497C109.571 30.4028 109.629 30.5491 109.728 30.6662C109.827 30.7832 109.961 30.8647 110.111 30.8979C110.965 30.9906 118.775 30.8066 119.679 30.1159C119.779 30.0493 119.861 29.9579 119.916 29.8505C119.97 29.7431 119.997 29.6233 119.992 29.5029C119.986 29.3824 119.95 29.2653 119.887 29.1629C119.823 29.0604 119.734 28.9762 119.628 28.9183Z" fill="#2F80ED"/>
</svg>
