<svg width="256" height="256" viewBox="0 0 256 256" fill="none" xmlns="http://www.w3.org/2000/svg">
<rect width="256" height="256" fill="#E5E5E5"/>
<rect x="-60" y="-70" width="375" height="812" rx="40" fill="white"/>
<path opacity="0.1" d="M23.5492 67.871C16.2996 74.212 12.7774 82.7213 12.7774 91.5732C12.7774 105.171 20.3054 114.081 14.299 127.507C12.4071 131.736 8.54299 135.312 4.46914 137.985C-2.36869 142.471 -7.57459 147.457 -12.4372 153.533C-34.4932 181.092 14.3297 220.544 41.6148 232.477C57.177 239.283 74.2552 239.346 91.4644 237.674C106.11 236.25 121.144 232.203 135.856 234.927C163.924 240.126 179.621 251.152 211.59 247.138C243.089 243.184 272.749 229.82 272.749 201.318C272.749 187.216 274.718 161.835 267.629 148.843L267.307 148.254C263.458 141.204 259.569 134.079 257.412 126.451C249.978 100.159 268.226 79.5215 250.964 52.0695C244.699 42.1064 229.842 41 218.286 41C208.624 41 198.251 42.1771 189.111 45.0137C161.562 53.5638 139.943 58.4338 112.235 49.45C100.88 45.7684 87.1488 45.4958 75.3792 47.929C55.6103 52.016 38.4282 54.8567 23.5492 67.871Z" fill="#2F80ED"/>
<path d="M71.085 75.7936C70.3198 72.5619 65.3419 69.3132 66.7777 56.2173C68.437 41.3085 78.1724 33.0663 92.732 33.5553C90.1096 34.089 87.5906 35.0424 85.2721 36.3787C84.6947 36.5433 80.3889 36.1102 80.2337 37.0989C80.0785 38.0877 82.0466 38.1296 82.6132 38.1296C81.2405 39.1925 79.991 40.4056 78.8879 41.7462C77.3679 41.6056 75.8367 41.64 74.3245 41.8487C74.2371 41.8732 74.1555 41.9147 74.0841 41.9708C74.0128 42.0269 73.9533 42.0966 73.9089 42.1757C73.8645 42.2548 73.8361 42.3419 73.8254 42.432C73.8147 42.5221 73.8218 42.6135 73.8464 42.7008C74.0373 43.3791 74.7079 43.2239 77.5282 43.5499C76.8596 44.5334 76.266 45.566 75.7525 46.6387C74.0823 46.7412 72.4137 46.8141 70.7544 46.9678C70.3214 46.9678 68.8918 48.4113 73.1138 48.5448L74.8864 48.5961C74.3709 49.9609 73.9879 51.3721 73.7424 52.8103C72.2441 52.8392 70.7484 52.9459 69.2612 53.13C68.0443 53.3566 68.7552 55.1898 73.4646 54.8607C73.3264 56.2299 73.2643 57.6057 73.2783 58.9818C72.4029 58.9818 68.1995 58.4354 68.1281 59.7237C68.0567 61.0121 71.6826 60.9189 73.2783 61.0214L73.5577 64.7311C72.2383 64.8957 70.9097 65.0291 69.6012 65.2356C68.9213 65.3396 68.9803 66.3997 70.6318 66.6481C71.7078 66.735 72.7881 66.7552 73.8666 66.7086C74.1014 68.0258 74.4654 69.3168 74.9531 70.5627L72.5115 70.676C72.5115 70.676 69.8852 70.943 71.7183 72.1801C73.0901 72.6876 74.5662 72.8476 76.0148 72.6458C76.7934 73.9171 77.85 74.9955 79.1052 75.7998C79.8161 76.2422 80.8127 75.3559 80.1359 74.6652C74.6241 68.6892 73.893 56.6861 76.7366 49.3411C81.8883 35.9472 99.29 30.9911 108.583 38.5021C108.774 38.6323 109.005 38.6899 109.235 38.6645C109.464 38.6392 109.677 38.5326 109.835 38.3639C109.993 38.1953 110.086 37.9757 110.096 37.7449C110.106 37.5141 110.034 37.2872 109.891 37.1052C106.574 33.4156 101.267 32.4377 96.7351 31.8277C85.2054 30.2926 74.5526 33.1672 68.4215 43.882C64.0117 51.5576 62.7032 63.4583 66.5588 71.7005C69.3233 77.4622 71.3474 76.9065 71.085 75.7936Z" fill="#2F80ED"/>
<path d="M113.875 71.8686C113.423 72.7859 114.615 74.4654 116.15 72.0844C120.746 64.9349 120.426 50.6547 114.564 43.4619C114.184 42.9962 112.978 43.8856 113.286 44.3792C118.336 52.4165 118.558 62.349 113.875 71.8686Z" fill="#2F80ED"/>
<path d="M105.786 60.7714C105.658 62.0911 105.175 63.3515 104.389 64.419C101.016 60.1195 97.6533 55.8157 94.2995 51.5079C96.2878 50.1994 97.5963 50.4788 99.8222 50.0861C99.9365 50.0643 100.045 50.0202 100.142 49.9562C100.24 49.8923 100.323 49.8098 100.388 49.7134C100.454 49.6171 100.499 49.5088 100.522 49.3948C100.546 49.2808 100.546 49.1634 100.524 49.0492C100.302 47.8897 96.7349 46.8963 92.7442 49.5506C92.2599 48.9949 91.7135 48.464 91.2292 47.9534C90.745 47.4427 89.7655 47.9534 90.1054 48.686C90.4509 49.402 90.8504 50.0906 91.3006 50.7458C82.1101 60.0186 94.0729 75.3186 104.108 67.9751C106.169 70.9243 107.509 70.0349 107.384 68.7683C107.127 67.8291 106.613 66.98 105.901 66.3158C107.236 64.8392 108.035 62.9552 108.167 60.9685C108.193 60.6528 108.093 60.3396 107.888 60.0978C107.683 59.8561 107.391 59.7056 107.075 59.6794C106.759 59.6533 106.446 59.7536 106.204 59.9584C105.962 60.1632 105.812 60.4556 105.786 60.7714ZM102.694 66.1389C95.2743 71.5793 86.3026 60.0605 92.7908 52.8381C92.6262 52.8381 92.4384 52.3818 102.694 66.1389Z" fill="#2F80ED"/>
<path d="M169.78 131.308C144.79 84.742 66.7486 82.8793 35.2049 116.955C24.9014 110.968 8.78808 110.999 6.0469 113.472C3.53235 115.749 5.76906 134.078 10.3931 143.118C12.1666 139.445 14.8125 136.261 18.0997 133.846C18.6259 133.495 19.1304 134.257 18.7594 134.67C8.55991 145.292 3.83037 164.317 11.0326 180.188C33.4168 167.182 60.1952 177.954 59.3493 194.505C58.6182 208.776 45.142 212.762 37.2289 213.557C51.0357 221.15 63.2127 224.045 63.6364 225.025C65.9849 230.568 67.3865 238.335 72.456 246.27C78.1526 247.185 88.9403 247.299 93.1343 246.27C96.1518 238.541 98.2131 225.663 98.595 220.193C98.595 219.719 99.5263 219.493 99.6241 220.101C100.01 222.655 99.969 225.256 99.5014 227.797C109.762 226.785 119.643 223.383 128.351 217.863C128.711 217.656 129.082 218.193 128.895 218.543C127.722 220.779 121.097 224.179 118.696 225.261C119.036 226.167 117.299 243.466 116.337 246.072C121.271 247.021 132.523 247.207 138.674 245.506C143.98 244.033 156.6 220.027 161.336 209.445C157.405 183.966 158.96 177.526 169.78 131.308ZM8.43108 116.768C5.42137 115.216 6.7516 114.451 9.25529 115.409C14.1494 117.284 24.4016 126.895 26.9053 130.864C27.5262 131.823 25.9988 132.832 25.2879 131.986C21.3904 127.298 13.8374 119.556 8.43108 116.768ZM26.5033 165.987C24.3504 166.214 23.4749 159.313 26.2968 158.918C28.6469 158.578 28.4513 165.782 26.5033 165.987ZM27.2033 149.388C24.6919 150.069 23.7419 151.716 22.6507 153.633C22.2068 154.395 20.3519 154.169 21.6201 151.109C22.531 149.061 24.2057 147.449 26.2875 146.617C26.473 146.542 26.6718 146.506 26.8718 146.511C27.0718 146.516 27.2687 146.562 27.4503 146.646C27.6318 146.73 27.7942 146.85 27.9273 146.999C28.0605 147.149 28.1616 147.324 28.2244 147.514C28.2871 147.704 28.3103 147.904 28.2923 148.104C28.2744 148.303 28.2158 148.496 28.1201 148.672C28.0243 148.848 27.8936 149.002 27.7359 149.125C27.5782 149.248 27.397 149.338 27.2033 149.388ZM48.3458 165.945C46.2845 165.509 46.9348 158.929 49.572 159.434C52.2092 159.938 50.4676 166.395 48.3458 165.945ZM58.567 149.523C57.7909 147.873 56.5057 145.122 51.416 144.474C50.2317 144.329 49.4897 141.68 53.4773 142.414C55.0488 142.605 56.524 143.273 57.7047 144.327C58.8854 145.382 59.715 146.772 60.0819 148.312C60.3085 149.872 59.475 151.44 58.567 149.523ZM67.3446 203.511C66.7983 203.623 66.5934 202.718 67.0978 202.481C72.7742 199.39 72.5988 194.145 69.2709 189.344C68.5088 188.233 70.3574 186.903 71.1879 187.947C75.4331 193.301 74.9876 201.94 67.3446 203.511ZM88.0742 126.783C84.9698 123.702 77.5969 115.655 68.3862 114.007C72.5072 118.612 77.3501 137.869 76.1471 144.258C76.1047 144.407 76.0149 144.538 75.8912 144.631C75.7676 144.725 75.6168 144.775 75.4618 144.775C75.3069 144.775 75.1561 144.725 75.0324 144.631C74.9088 144.538 74.8189 144.407 74.7765 144.258C73.6233 136.747 71.3865 119.468 66.0842 114.667C60.7897 115.697 52.6904 127.783 49.7552 132.348C49.3314 133.017 48.1052 132.554 48.4358 131.781C51.1473 125.895 55.0493 120.635 59.8956 116.332C64.4917 112.118 67.4486 111.263 73.6403 113.777C78.9876 115.903 83.7419 119.289 87.4983 123.648C89.4448 125.97 88.9108 127.61 88.0742 126.783ZM80.0276 106.775C76.9372 105.534 74.4226 103.848 71.3012 102.808C81.3268 98.0583 101.954 97.4094 112.174 98.9026C115.722 100.068 118.981 101.975 121.735 104.498C111.967 103.261 94.3606 103.004 80.0276 106.775Z" fill="#2F80ED"/>
<path d="M116.656 226.034C113.657 227.198 102.458 230.155 99.335 229.294C98.7591 233.55 97.2752 242.399 95.2139 245.924C101.711 246.784 108.293 246.784 114.79 245.924C115.962 239.357 116.587 232.704 116.656 226.034Z" fill="#2F80ED"/>
<path d="M57.2074 193.126C57.2074 183.853 45.7708 175.897 30.9443 176.496C12.0789 177.272 5.98965 184.668 6.05174 193.519C6.12314 203.696 15.0358 211.609 30.0068 212.125C44.9777 212.64 57.2074 207.437 57.2074 193.126ZM19.6924 200.482C14.1511 201.457 12.8923 190.518 17.9524 189.056C22.578 187.718 25.226 199.508 19.6924 200.482ZM41.9788 200.657C36.4158 200.359 37.9198 188.354 43.1011 189.241C47.3572 189.973 47.5326 200.955 41.9788 200.657Z" fill="#2F80ED"/>
<path d="M37.3931 215.648C40.3422 223.489 49.4381 244.96 52.2088 245.733C55.5475 246.664 64.1296 246.866 69.8169 245.919C67.2309 242.107 63.203 230.464 62.2654 226.179C58.0217 225.941 41.5685 218.39 37.3931 215.648Z" fill="#2F80ED"/>
<path d="M74.5359 86.5601C76.7726 87.7739 81.9446 87.7351 81.1405 86.0138C80.5848 84.8294 77.5549 86.7464 74.0315 84.8093C73.4339 84.4895 72.3116 85.3525 74.5359 86.5601Z" fill="#12121D"/>
<path d="M79.1123 84.4589C79.2146 84.3694 79.2917 84.2546 79.3357 84.1259C79.3797 83.9972 79.3891 83.8593 79.363 83.7258C79.3369 83.5923 79.2762 83.4681 79.187 83.3655C79.0978 83.2629 78.9831 83.1855 78.8546 83.1411C77.8239 82.8633 76.5775 83.9746 72.4347 81.5889C71.744 81.1869 71.0548 82.2486 73.1456 83.6502C74.7025 84.6141 77.8332 85.3763 79.1123 84.4589Z" fill="#12121D"/>
<path d="M106.177 43.0902C105.949 43.3774 106.095 43.9362 106.537 43.8849C108.381 43.6676 109.629 42.5237 113.75 42.2256C113.999 42.2256 114.237 42.1269 114.413 41.951C114.589 41.7752 114.688 41.5368 114.688 41.2881C114.688 41.0395 114.589 40.801 114.413 40.6252C114.237 40.4494 113.999 40.3506 113.75 40.3506C111.555 40.4949 107.527 41.3937 106.177 43.0902Z" fill="#092168"/>
<path d="M101.037 31.3676C103.394 31.0702 105.789 31.3993 107.979 32.3217C110.17 33.2441 112.078 34.7272 113.513 36.6218C114.935 38.3727 116.152 37.075 114.544 35.0448C112.193 32.2025 108.81 30.4093 105.137 30.0591C100.532 29.626 100.152 31.4716 101.037 31.3676Z" fill="#092168"/>
<path d="M77.0394 89.2807C80.5303 90.2027 84.2119 90.1096 87.6517 89.0122C91.5881 87.6928 90.3215 85.9838 89.4755 86.0971C88.3626 86.24 86.992 88.5589 77.2256 88.1569C77.0957 88.1685 76.9734 88.2228 76.8778 88.3115C76.7821 88.4001 76.7187 88.518 76.6974 88.6467C76.6761 88.7753 76.6981 88.9074 76.76 89.0222C76.8219 89.1369 76.9202 89.2279 77.0394 89.2807Z" fill="#12121D"/>
<path d="M84.9728 76.8957C87.0326 78.9585 88.1982 77.6376 86.7143 75.865C85.0438 74.2946 83.8811 72.2604 83.3756 70.0241C83.211 69.4467 81.5005 68.8072 82.3465 72.3415C82.8087 74.0631 83.7142 75.6334 84.9728 76.8957Z" fill="#12121D"/>
<path d="M83.4687 78.1959C83.7884 77.2646 82.5513 76.8253 81.9956 77.4943C79.3367 80.729 74.7842 79.5556 71.7512 78.5249C71.1225 78.2983 70.8199 79.1225 71.2855 79.5556C74.4954 82.2642 82.1586 82.0065 83.4687 78.1959Z" fill="#12121D"/>
<path d="M118.211 39.4235C122.879 45.9768 132.893 61.3389 139.467 65.2753C139.585 65.342 139.722 65.3646 139.855 65.339C139.988 65.3134 140.107 65.2412 140.191 65.1356C140.276 65.0299 140.32 64.8976 140.315 64.7624C140.311 64.6273 140.258 64.4982 140.167 64.3983C131.687 55.3629 126.124 47.3055 118.964 37.3016C117.933 35.8068 117.181 35.5942 116.976 37.3528C116.724 39.1171 116.267 40.8461 115.614 42.5046C115.059 44.184 117.263 44.0506 118.211 39.4235Z" fill="#12121D"/>
<path d="M119.767 64.4707C120.797 66.6655 122.91 70.1781 125.001 71.4152C125.113 71.4971 125.25 71.537 125.388 71.5277C125.526 71.5184 125.657 71.4606 125.757 71.3645C125.856 71.2684 125.919 71.1401 125.934 71.0023C125.948 70.8645 125.914 70.7259 125.836 70.6112C124.301 68.1385 123.177 67.7474 121.384 63.842C121.344 63.7347 121.282 63.6364 121.204 63.553C121.125 63.4695 121.031 63.4024 120.926 63.3556C120.821 63.3089 120.708 63.2834 120.594 63.2805C120.479 63.2777 120.365 63.2977 120.258 63.3392C120.151 63.3808 120.053 63.4431 119.971 63.5226C119.888 63.6021 119.822 63.6973 119.776 63.8025C119.731 63.9077 119.706 64.0209 119.705 64.1356C119.703 64.2503 119.724 64.3642 119.767 64.4707Z" fill="#12121D"/>
<path d="M93.7417 88.4352C101.658 92.3328 129.484 91.7849 144.166 89.5901C154.377 88.0643 169.985 85.6025 178.485 79.864C178.939 79.5443 178.599 78.7402 178.052 78.9467C164.947 84.0984 160.239 85.1291 146.319 87.344C125.365 90.6518 99.2644 89.8058 94.4526 87.1997C91.3622 85.5513 90.6 81.3169 90.6823 78.0293C119.933 79.2245 138.55 71.3425 155.592 62.5757C164.422 58.0743 172.911 50.9839 186.347 53.0452C211.493 56.8977 221.006 103.684 220.522 118.171C219.1 123.138 189.757 131.111 173.335 127.041C176.096 113.537 173.757 98.4919 165.453 87.4775C165.357 87.3411 165.211 87.2482 165.047 87.2194C164.883 87.1906 164.714 87.2281 164.578 87.3239C164.441 87.4196 164.348 87.5656 164.319 87.7298C164.291 87.8939 164.328 88.0628 164.424 88.1993C171.399 99.7682 173.833 113.514 171.254 126.774C170.914 128.482 173.046 128.948 175.611 129.329C187.635 131.08 208.171 128.474 218.451 122.303C220.893 120.839 222.223 119.85 222.223 117.882C222.223 97.379 212.022 57.1445 188.367 51.479C175.59 48.3871 165.86 55.6001 154.921 60.9272C130.355 72.9909 117.099 77.4115 89.9295 76.5563C89.7931 76.5362 89.6539 76.546 89.5217 76.5852C89.3896 76.6244 89.2675 76.6919 89.164 76.7831C89.0606 76.8742 88.9783 76.9869 88.9228 77.1131C88.8674 77.2393 88.8401 77.3761 88.843 77.514C88.652 81.6661 89.7432 86.4686 93.7417 88.4352Z" fill="#12121D"/>
<path d="M156.198 33.3141C155.8 33.2407 155.388 33.3182 155.044 33.5317C154.699 33.7453 154.447 34.0794 154.335 34.469C154.222 35.0355 154.624 35.2451 154.984 34.9222C155.353 34.4793 155.876 34.1922 156.448 34.1182C157.126 33.9226 157.002 33.3871 156.198 33.3141Z" fill="#12121D"/>
<path d="M153.428 30.8923C154.2 30.7483 154.993 30.7694 155.756 30.9544C156.354 31.0988 156.858 30.779 156.611 30.1783C156.251 29.2812 154.17 29.0747 153.077 29.5187C151.984 29.9626 151.944 31.1702 153.428 30.8923Z" fill="#12121D"/>
<path d="M151.82 40.2267C152.529 40.5216 154.746 40.5371 155.016 39.4956C155.036 39.4125 155.036 39.326 155.018 39.2425C155 39.159 154.963 39.0807 154.911 39.0135C154.858 38.9462 154.791 38.8917 154.714 38.8539C154.637 38.8162 154.553 38.7962 154.468 38.7955C153.87 38.7955 153.499 39.4847 152.582 39.3512C153.377 36.0916 152.399 35.0237 152.006 37.0741C151.717 38.5674 151.117 39.9348 151.82 40.2267Z" fill="#12121D"/>
<path d="M156.385 42.8329C157.656 43.6835 160.815 43.1837 161.352 40.9796C161.553 39.9707 161.466 38.9257 161.101 37.9638C160.737 37.0019 160.109 36.1617 159.291 35.5392C158.67 35.0735 158.137 35.817 158.314 36.4705C158.868 38.6249 157.013 40.4068 156.107 41.3552C155.478 41.9823 155.626 42.3254 156.385 42.8329ZM159.522 37.7479C160.986 39.8093 160.413 42.5039 157.038 41.9171C158.376 40.9024 159.266 39.4073 159.522 37.7479Z" fill="#12121D"/>
<path d="M147.71 31.4077C147.25 31.8461 146.913 32.3973 146.732 33.0065C146.551 33.6157 146.533 34.2615 146.679 34.8799C146.772 35.1686 147.474 35.6948 147.71 34.3755C147.85 33.604 148.207 32.8888 148.741 32.3141C149.554 31.3983 148.503 30.748 147.71 31.4077Z" fill="#12121D"/>
<path d="M149.349 37.2808C149.629 37.0133 149.992 36.8491 150.378 36.8151C151.028 36.7313 150.986 36.1756 150.296 36.0514C149.999 35.9975 149.692 36.058 149.438 36.2207C149.184 36.3834 149.001 36.6362 148.925 36.9284C148.812 37.2497 149.066 37.5462 149.349 37.2808Z" fill="#12121D"/>
<path d="M166.575 238.285C162.525 240.165 158.318 241.685 154.002 242.828C151.694 243.458 151.529 245.92 153.867 246.446C155.928 246.889 173.89 246.446 176.04 246.333C177.688 246.26 179.234 245.827 179.532 243.983C179.844 242.128 179.478 240.222 178.502 238.614C178.121 238.122 176.998 238.304 177.131 238.976C177.524 241.118 179.255 244.363 175.02 244.564C171.681 244.719 157.041 245.119 154.62 244.696C158.565 243.522 164.057 241.739 167.22 239.432C167.328 239.327 167.397 239.19 167.418 239.041C167.44 238.893 167.411 238.742 167.338 238.611C167.264 238.48 167.149 238.377 167.011 238.318C166.873 238.26 166.72 238.248 166.575 238.285Z" fill="#12121D"/>
<path d="M246.538 209.847C249.903 211.555 250.761 210.692 248.104 217.225C245.984 222.482 243.129 227.411 239.624 231.865C239.489 227.744 240.09 222.284 239.984 218.08C239.984 217.358 238.789 217.234 238.698 217.987C238.15 222.315 238.007 227.311 237.79 231.772C237.645 234.721 239.511 234.925 241.448 232.35C245.468 227.091 248.658 221.247 250.906 215.021C251.452 213.469 251.935 211.847 250.906 210.384C249.967 209.217 248.649 208.414 247.18 208.117C246.96 208.067 246.73 208.099 246.531 208.206C246.333 208.314 246.18 208.489 246.102 208.701C246.023 208.912 246.024 209.145 246.104 209.356C246.185 209.567 246.339 209.741 246.538 209.847Z" fill="#12121D"/>
<path d="M143.959 33.8802C145.511 39.7319 152.031 53.0544 159.928 50.2108C160.295 51.9498 161.117 53.5604 162.309 54.8783C162.609 55.094 163.206 54.7851 163.009 54.394C162.245 52.866 161.591 51.2855 161.052 49.6644C162.145 48.9081 163.078 47.9425 163.796 46.8235C164.514 45.7045 165.003 44.4544 165.235 43.1452C165.286 42.5057 164.411 42.4747 164.204 42.99C163.092 45.6691 161.165 49.0994 157.857 49.0901C150.924 49.0901 145.237 34.9434 144.353 29.4518C142.654 29.1413 139.273 28.1231 138.253 26.65C138.189 26.5436 138.162 26.4192 138.175 26.2958C138.189 26.1724 138.242 26.0568 138.328 25.9667C138.413 25.8765 138.526 25.8168 138.648 25.7967C138.771 25.7766 138.896 25.7972 139.006 25.8553C144.749 29.1522 151.936 27.9166 157.84 25.5682C158.871 29.4828 161.859 31.451 162.354 30.605C165.012 25.9997 169.226 30.678 166.36 33.7793C165.33 34.8099 165.207 35.0971 165.383 36.0874C166.042 39.8996 171.172 48.3063 173.563 50.439C196.704 43.3097 212.988 63.895 222.246 96.8853C226.531 95.0723 234.135 91.1577 235.113 73.59C236.091 56.0222 222.696 48.5996 216.506 47.8328C210.315 47.0661 209.016 45.8755 209.016 37.6737C209.016 29.4719 199.318 25.638 190.735 26.0913C180.721 26.6268 177.341 19.572 174.89 13.1087C172.642 7.15448 162.527 6.63915 157.89 10.3489C153.254 14.0586 148.8 13.6551 141.702 12.1106C135.211 10.678 129.595 19.4556 131.75 26.2868C132.561 28.7901 134.232 30.9256 136.466 32.3153C138.701 33.7051 141.355 34.2594 143.959 33.8802Z" fill="#12121D"/>
<path d="M222.212 122.852C206.603 132.484 182.504 132.609 172.22 130.661C167.924 142.375 163.072 171.451 162.165 181.868C161.259 192.284 164.514 223.255 166.201 236.267C170.616 237.226 175.188 237.205 179.595 236.207C179.173 232.826 181.315 193.521 182.099 189.357C182.809 185.576 188.548 172.264 193.009 163.022C192.866 159.575 192.277 156.16 191.258 152.863C191.2 152.734 191.196 152.586 191.247 152.454C191.298 152.321 191.399 152.214 191.528 152.155C194.823 150.689 196.137 181.753 202.148 190.696C204.147 193.664 230.122 211.736 237.725 216.558C240.373 214.6 244.7 210.695 245.486 206.398C242.311 204.152 221.211 182.392 220.82 181.228C220.428 180.064 225.746 146.051 222.212 122.852Z" fill="#12121D"/>
</svg>
