<svg width="256" height="256" viewBox="0 0 256 256" fill="none" xmlns="http://www.w3.org/2000/svg">
<rect width="256" height="256" fill="#E5E5E5"/>
<rect x="-60" y="-70" width="375" height="812" rx="40" fill="white"/>
<rect x="-60" y="-70" width="375" height="812" fill="white"/>
<path opacity="0.1" d="M23.5492 67.871C16.2996 74.212 12.7774 82.7213 12.7774 91.5732C12.7774 105.171 20.3054 114.081 14.299 127.507C12.4071 131.736 8.54299 135.312 4.46914 137.985C-2.36869 142.471 -7.57459 147.457 -12.4372 153.533C-34.4932 181.092 14.3297 220.544 41.6148 232.477C57.177 239.283 74.2552 239.346 91.4644 237.674C106.11 236.25 121.144 232.203 135.856 234.927C163.924 240.126 179.621 251.152 211.59 247.138C243.089 243.184 272.749 229.82 272.749 201.318C272.749 187.216 274.718 161.835 267.629 148.843L267.307 148.254C263.458 141.204 259.569 134.079 257.412 126.451C249.978 100.159 268.226 79.5215 250.964 52.0695C244.699 42.1064 229.842 41 218.286 41C208.624 41 198.251 42.1771 189.111 45.0137C161.562 53.5638 139.943 58.4338 112.235 49.45C100.88 45.7684 87.1488 45.4958 75.3792 47.929C55.6103 52.016 38.4282 54.8567 23.5492 67.871Z" fill="#2F80ED"/>
<path d="M198.624 71.4152C198.396 70.7177 197.151 70.7685 197.226 71.5765C197.48 74.5483 197.495 78.8007 200.946 79.5553C206.122 80.6874 212.72 79.4359 217.821 78.262C218.029 78.2005 218.21 78.0718 218.337 77.8962C218.464 77.7205 218.528 77.5078 218.521 77.2913C218.521 73.5712 218.548 69.8512 218.576 66.1311C218.576 65.8666 218.471 65.6129 218.284 65.4259C218.097 65.2389 217.843 65.1338 217.578 65.1338C217.314 65.1338 217.06 65.2389 216.873 65.4259C216.686 65.6129 216.581 65.8666 216.581 66.1311C216.742 68.9142 216.742 71.7042 216.581 74.4873C216.418 75.8353 216.687 76.1542 215.341 76.698C213.706 77.143 212.021 77.3787 210.326 77.3993C198.845 79.3051 200.123 75.9979 198.624 71.4152Z" fill="#12121D"/>
<path d="M205.471 51.5147C206.603 51.676 208.548 51.4537 209.46 51.9454C211.138 52.85 210.535 55.4494 210.485 57.0134C210.427 58.8455 210.424 60.6788 210.377 62.5122C210.314 64.9922 210.913 66.1662 208.275 66.7709C200.664 68.5154 191.94 68.119 184.176 67.4723C184.014 66.2322 183.806 64.9312 183.637 63.6988C183.482 62.5656 181.427 62.7815 181.587 63.9682C181.806 65.5843 182.037 67.1445 182.235 68.7656C182.296 68.993 182.428 69.1946 182.613 69.3405C182.798 69.4864 183.024 69.5686 183.26 69.575C192.729 70.5431 202.147 69.6804 211.563 68.2803C211.773 68.2234 211.957 68.096 212.085 67.9196C212.212 67.7432 212.276 67.5283 212.264 67.3109C212.264 64.5615 212.237 61.8121 212.209 59.1161C212.192 57.2294 212.648 54.4241 212.103 52.592C211.25 49.7321 207.844 50.4627 205.525 50.4322C204.985 50.4296 204.824 51.46 205.471 51.5147Z" fill="#12121D"/>
<path d="M157.976 58.4701C157.795 58.5888 157.659 58.7649 157.59 58.9702C157.521 59.1755 157.523 59.398 157.595 59.6021C158.619 63.3222 163.794 62.1889 166.759 62.1889C177.326 62.1889 188.161 62.3578 198.729 61.9195C200.185 61.8598 201.533 61.8661 202.287 60.3568C202.933 59.0621 202.625 57.1221 202.668 55.7741C202.837 50.0072 202.974 44.2366 203.049 38.4684C203.076 36.2578 204.137 31.9888 202.025 30.3816C200.093 28.9142 195.717 29.6816 193.453 29.627C171.697 29.1022 173.168 29.5126 167.52 29.195C164.878 29.0463 161.069 28.0337 158.679 29.735C156.913 30.9928 157.574 34.2084 157.602 36.0418C157.707 43.4806 157.543 50.9753 157.976 58.4701ZM159.374 32.215C160.418 30.2851 165.034 31.0474 167.083 31.0817C173.817 31.1973 180.616 31.2685 187.354 31.4628C190.754 31.346 194.158 31.4543 197.544 31.7868C199.808 32.1616 201.002 33.0268 200.94 35.4535C200.893 37.2856 200.71 46.7204 200.616 49.6832C200.554 51.6779 201.432 58.7534 199.218 59.8181C198.202 60.3098 195.498 59.8181 194.366 59.8181C191.093 59.8181 184.583 59.9807 171.993 59.9807C170.322 59.9807 160.186 61.0581 159.647 59.01C159.586 58.7767 159.453 58.5689 159.266 58.4167C159.581 49.2462 159.172 32.5911 159.374 32.215Z" fill="#12121D"/>
<path d="M179.862 54.4781C179.835 47.6313 179.285 40.5139 178.623 33.723C178.617 33.6127 178.569 33.5088 178.489 33.4328C178.409 33.3568 178.302 33.3145 178.192 33.3145C178.081 33.3145 177.975 33.3568 177.895 33.4328C177.815 33.5088 177.767 33.6127 177.761 33.723C177.238 40.7055 177.527 47.725 178.623 54.6407C178.733 55.3407 179.865 55.126 179.862 54.4781Z" fill="#12121D"/>
<path d="M163.635 39.0069C166.387 39.2483 169.134 39.2229 171.883 39.2229C172.083 39.2229 172.275 39.1434 172.417 39.0019C172.558 38.8603 172.638 38.6684 172.638 38.4682C172.638 38.2681 172.558 38.0761 172.417 37.9346C172.275 37.793 172.083 37.7135 171.883 37.7135C169.134 37.7135 166.331 37.6589 163.635 37.9283C163.497 37.935 163.366 37.9947 163.27 38.0951C163.175 38.1955 163.121 38.3289 163.121 38.4676C163.121 38.6063 163.175 38.7396 163.27 38.84C163.366 38.9404 163.497 39.0002 163.635 39.0069Z" fill="#12121D"/>
<path d="M168.542 44.398C166.938 44.3542 165.332 44.4448 163.743 44.6687C163.097 44.7779 163.362 45.6304 163.905 45.6927C165.579 45.8845 167.247 45.8274 168.919 45.854C170.409 45.9817 171.907 45.9639 173.393 45.8007C173.986 45.6914 173.876 44.8427 173.393 44.722C171.795 44.4182 170.166 44.3094 168.542 44.398Z" fill="#12121D"/>
<path d="M170.967 51.7291C168.61 51.3969 166.222 51.3427 163.852 51.5677C163.714 51.5745 163.583 51.6342 163.488 51.7346C163.392 51.835 163.339 51.9684 163.339 52.1071C163.339 52.2458 163.392 52.3791 163.488 52.4795C163.583 52.5799 163.714 52.6397 163.852 52.6464C166.171 52.6197 168.486 52.8395 170.753 53.0276C171.559 53.0885 171.721 51.8485 170.967 51.7291Z" fill="#12121D"/>
<path d="M200.03 36.2039C200.031 36.0832 200.008 35.9636 199.962 35.8519C199.916 35.7402 199.849 35.6388 199.763 35.5534C199.678 35.4681 199.576 35.4005 199.465 35.3547C199.353 35.3089 199.233 35.2858 199.113 35.2866C194.158 35.7237 189.191 34.9258 184.234 35.1786C184.049 35.197 183.873 35.2662 183.725 35.3787C183.577 35.4911 183.463 35.6423 183.396 35.8155C183.329 35.9887 183.311 36.1772 183.345 36.3599C183.378 36.5426 183.462 36.7125 183.586 36.8506C183.205 41.1627 183.506 45.5841 183.532 49.8975C183.54 51.1909 182.868 54.3443 184.071 55.2883C185.4 56.3364 189.788 55.7838 191.295 55.8269C193.875 56.1119 196.476 56.1302 199.059 55.8816C199.212 55.8354 199.351 55.7522 199.464 55.6394C199.577 55.5266 199.66 55.3876 199.706 55.2349C200.565 49.0348 199.89 42.4078 200.03 36.2039ZM197.657 53.9911C195.878 53.5591 193.506 53.9364 191.673 53.8831C189.759 53.6504 187.83 53.5782 185.904 53.6671C185.688 53.7006 185.466 53.6823 185.258 53.6137C185.169 52.9344 185.133 52.2493 185.15 51.5644C184.934 46.7123 185.311 41.8069 184.934 36.9535C189.355 36.8455 193.722 37.3347 198.147 37.1149C197.752 46.2079 198.251 54.5933 197.653 53.9949L197.657 53.9911Z" fill="#12121D"/>
<path d="M53.0079 205.056C52.8976 205.062 52.7937 205.11 52.7177 205.19C52.6417 205.27 52.5994 205.377 52.5994 205.487C52.5994 205.598 52.6417 205.704 52.7177 205.784C52.7937 205.864 52.8976 205.913 53.0079 205.918C60.6627 206.188 68.2655 206.25 75.9203 205.972C83.0911 205.711 90.4943 205.845 97.5393 204.301C98.2419 204.147 98.0246 203.219 97.3779 203.169C90.0484 202.594 82.5511 203.441 75.219 203.761C67.7801 204.088 60.3858 204.417 53.0079 205.056Z" fill="#12121D"/>
<path d="M66.4858 200.149C67.0054 197.677 66.7803 195.107 65.8391 192.763C65.6777 192.278 64.8227 192.118 64.7071 192.763C64.2135 195.286 64.4952 197.899 65.5151 200.259C65.5661 200.35 65.6429 200.424 65.7358 200.472C65.8287 200.519 65.9335 200.538 66.0372 200.526C66.1409 200.515 66.2387 200.472 66.3185 200.405C66.3983 200.338 66.4565 200.249 66.4858 200.149Z" fill="#12121D"/>
<path d="M53.6548 210.394C53.5346 210.274 53.3854 210.189 53.2218 210.145C53.0583 210.102 52.8861 210.102 52.7226 210.145C52.559 210.189 52.4097 210.274 52.2895 210.393C52.1693 210.513 52.0824 210.661 52.0374 210.824C50.0974 218.372 48.4597 225.928 46.4853 233.467C45.8501 235.897 43.1972 240.896 46.916 241.393C52.04 242.078 57.4828 241.746 62.6043 241.824C70.7457 241.951 78.8312 242.018 86.9727 241.932C93.8728 241.859 101.04 241.963 107.89 240.8C108.04 240.758 108.18 240.688 108.302 240.592C108.424 240.496 108.525 240.377 108.601 240.242C108.676 240.106 108.724 239.957 108.741 239.802C108.758 239.648 108.744 239.492 108.7 239.344C106.22 229.625 103.887 219.921 101.745 210.122C101.67 209.878 101.52 209.664 101.317 209.509C101.114 209.354 100.868 209.267 100.613 209.259C85.2041 207.651 69.0737 208.776 53.6548 210.394ZM99.6955 211.526C101.853 220.582 104.009 229.639 106.165 238.697C96.194 240.254 56.9962 239.547 47.5093 239.021C49.0886 231.121 53.5277 220.98 53.9241 211.795C69.1817 212.658 84.4393 210.178 99.6955 211.526Z" fill="#12121D"/>
<path d="M244.879 93.0261C240.713 87.3321 236.251 81.8613 231.51 76.6366C231.352 76.4797 231.139 76.3916 230.916 76.3916C230.694 76.3916 230.481 76.4797 230.323 76.6366C225.014 80.9646 219.94 85.5716 215.12 90.4381C212.101 89.5754 207.902 90.6147 205.361 91.6768C202.65 92.8047 200.255 94.578 198.385 96.8426C196.515 99.1072 195.227 101.794 194.633 104.67C194.054 107.422 194.252 110.061 192.316 112.11C192.045 111.517 191.84 110.865 191.561 110.277C191.432 110.063 191.223 109.908 190.981 109.847C190.738 109.786 190.481 109.824 190.266 109.953C177.573 117.82 164.443 126.127 153.391 136.208C146.106 119.26 120.902 84.5391 100.826 87.1487C99.8576 81.4612 98.0786 75.9418 95.5434 70.7592C95.222 70.1112 94.0862 70.5445 94.3568 71.2445C98.6435 82.3411 98.7273 87.2606 99.1517 87.6887C97.5343 92.9181 96.3477 98.2555 94.8929 103.54C93.7139 103.146 88.2748 94.2801 79.0421 91.0314C79.0421 89.8117 75.1035 74.4195 67.1272 58.8469C67.0373 58.6785 66.8904 58.5476 66.7127 58.4778C66.5351 58.4079 66.3383 58.4036 66.1578 58.4657C62.1455 60.1847 60.8725 56.4608 61.3591 53.991C62.11 50.1795 65.8618 50.1871 66.7499 49.7856C68.1644 49.0058 69.3722 47.8994 70.2725 46.5584C71.1729 45.2173 71.7397 43.6806 71.9259 42.0761C71.9767 39.6495 71.0099 37.2774 71.0099 34.7974C71.0099 31.94 71.8751 29.3075 74.8913 28.3826C77.1579 27.6876 80.9478 27.91 81.9541 30.7C82.8218 33.114 83.6629 27.8833 86.1048 25.3092C88.5467 22.7352 93.5221 22.3019 95.4316 25.7412C97.4975 29.4612 95.734 34.8978 99.529 37.811C108.576 58.4886 95.5358 75.1145 79.2009 69.0249C78.3369 68.7035 77.9583 69.9448 78.6075 70.4225C85.4823 75.5248 95.701 71.2331 100.119 64.9237C105.513 57.2168 105.074 46.9168 101.035 38.722C102.433 39.2755 103.979 39.3312 105.413 38.8796C106.848 38.428 108.083 37.4967 108.912 36.242C109.339 35.6461 108.642 35.1099 108.104 35.1633C102.442 36.0806 103.036 27.1311 101.742 23.5191C99.9354 18.2292 96.6646 13.5605 92.31 10.0555C87.1009 6.09911 81.362 6.53744 75.2737 8.27676C72.4684 9.07846 67.9416 10.5408 66.9176 13.7755C64.444 13.2082 61.8534 13.4541 59.5308 14.4769C56.2859 16.1285 55.6482 19.4318 55.1641 22.725C54.2747 28.7396 53.9266 38.7055 52.3067 41.648C51.2014 43.6579 47.7125 43.9705 46.9706 41.4866C46.9148 41.3053 46.7963 41.1497 46.6363 41.0478C46.4763 40.9458 46.2853 40.9041 46.0974 40.93C45.9094 40.956 45.7369 41.048 45.6105 41.1895C45.4842 41.3311 45.4124 41.5129 45.4078 41.7026C45.2195 43.0299 45.3961 44.3834 45.9185 45.618C46.4409 46.8526 47.2894 47.9217 48.3732 48.7107C49.4937 49.3407 50.793 49.5767 52.0635 49.3812C53.3339 49.1856 54.5021 48.5698 55.3814 47.6321C55.8235 47.1569 56.6658 47.7871 56.2974 48.3334C55.5969 49.2182 54.7031 49.9309 53.6846 50.417C52.666 50.903 51.5498 51.1494 50.4213 51.1374C50.4645 51.2645 52.4147 56.7188 52.4706 56.8547C53.8212 60.0869 55.7574 64.568 59.5321 65.5336C62.2815 66.2374 65.4095 65.2109 67.8895 63.8628C71.8789 72.219 73.927 81.2218 76.7831 90.0633C74.2268 89.8371 66.5517 93.0134 63.1429 97.0155C45.4091 102.034 32.1501 114.378 23.0329 130.064C10.3341 151.917 10.2528 165.039 14.5688 182.143C16.8951 191.36 20.0142 201.228 25.1356 209.423C25.3827 210.685 25.9075 211.877 26.6719 212.912C27.4364 213.947 28.4214 214.799 29.5557 215.407C33.7598 217.459 38.3984 214.597 39.5838 210.452C40.3559 211.204 41.205 211.872 42.1172 212.446C38.7758 223.229 36.0264 234.165 32.8984 244.902C32.8551 245.06 32.8487 245.225 32.8798 245.386C32.911 245.547 32.9788 245.699 33.0779 245.829C33.1771 245.959 33.305 246.065 33.4517 246.138C33.5984 246.211 33.7599 246.249 33.9237 246.25C60.3351 248.209 86.7875 248.838 113.281 248.136C120.288 247.958 127.299 248.298 134.307 248.19C133.092 232.401 133.269 219.73 127.137 193.038C131.048 187.14 132.043 176.043 132.043 168.994C135.948 176.805 141.681 178.382 149.942 176.379C161.595 173.555 176.893 165.961 191.13 152.981C194.628 149.794 196.661 147.701 197.169 142.955C197.447 140.25 197.555 137.531 197.492 134.813C202.128 131.74 207.736 128.128 211.132 123.708C211.558 125.41 225.764 125.598 232.858 116.974C235.293 113.736 236.969 109.992 237.764 106.02C238.079 104.724 239.112 101.814 237.872 100.683C240.19 98.5236 242.562 96.3637 244.827 94.1594C244.931 93.9902 244.99 93.7976 244.999 93.5995C245.008 93.4013 244.967 93.2041 244.879 93.0261ZM100.127 88.4396C105.626 88.2782 110.37 90.1649 115.222 92.5916C115.33 101.702 109.886 108.388 103.901 114.749C102.048 110.988 99.4423 107.649 96.2448 104.937C97.6474 99.493 99.2648 93.9968 100.127 88.4396ZM77.3218 91.6159C89.0003 97.4602 91.9098 103.66 92.9567 104.829C89.7236 109.142 87.9485 114.373 87.8886 119.763C82.0659 119.116 76.6167 115.724 72.6857 111.568C69.0698 107.745 66.9176 102.996 64.2216 98.5757C68.164 94.6359 72.6946 91.3961 77.3218 91.6248V91.6159ZM195.225 139.221C195.104 141.754 195.098 144.602 193.828 146.822C192.482 148.75 190.866 150.475 189.029 151.943C179.149 161.039 167.545 168.061 154.903 172.592C150.213 174.265 143.919 176.553 139.107 174.048C135.022 171.921 133.389 166.985 131.721 163.049C131.053 154.404 129.719 145.824 127.731 137.385C127.576 136.682 126.546 137.004 126.653 137.709C128.178 147.786 129.956 157.98 129.888 168.223C129.843 174.8 129.619 187.9 123.741 193.183C121.532 193.399 119.266 193.668 117.057 193.992C116.302 195.686 115.014 197.087 113.39 197.982C113.317 198.02 113.236 198.042 113.154 198.047C113.071 198.051 112.988 198.037 112.911 198.006C112.835 197.975 112.765 197.928 112.709 197.868C112.652 197.808 112.609 197.736 112.582 197.658C117.326 194.855 115.971 184.879 115.709 180.244C115.696 180.081 115.623 179.929 115.503 179.817C115.383 179.706 115.225 179.645 115.062 179.645C114.898 179.645 114.741 179.706 114.62 179.817C114.5 179.929 114.427 180.081 114.414 180.244C113.981 188.557 114.668 192.299 112.366 194.694C110.2 195.059 108.071 195.618 106.005 196.364C103.633 188.278 101.461 180.092 98.9421 172.051C98.87 171.805 98.7213 171.589 98.5176 171.433C98.314 171.278 98.066 171.192 97.81 171.188C90.6121 170.999 83.412 171.467 76.299 172.585C74.843 172.852 75.4363 175.115 76.8924 174.85C83.507 173.817 90.2014 173.384 96.894 173.556C115.227 236.678 115.343 236.233 117.488 245.636C89.9926 247.469 62.4975 246.121 35.057 244.238C40.1238 225.689 45.8195 207.554 51.8277 189.302C52.1479 188.33 50.6906 188.006 50.3184 188.871C47.3552 195.906 44.7461 203.086 42.5009 210.382C35.7088 205.206 34.1156 198.008 32.3127 189.626C32.2676 189.484 32.1741 189.362 32.0484 189.282C31.9228 189.202 31.773 189.168 31.6252 189.188C31.4775 189.207 31.3412 189.277 31.2402 189.387C31.1392 189.497 31.0799 189.638 31.0727 189.787C31.5923 196.312 33.4981 203.696 37.8648 208.871C29.5214 221.386 23.1345 209.313 27.7833 193.183C30.1808 184.866 35.2552 178.699 40.8302 173.128C42.5556 171.403 44.9276 168.761 47.6236 169.139C47.9463 170.325 48.2792 171.509 48.5396 172.696C48.6058 172.91 48.7461 173.093 48.9354 173.212C49.1247 173.331 49.3503 173.379 49.5717 173.347C49.793 173.314 49.9955 173.203 50.1424 173.035C50.2893 172.866 50.3711 172.65 50.373 172.427C50.0706 166.665 46.3988 160.611 45.5743 158.14C49.241 151.993 54.9557 146.98 59.9692 141.966C60.7238 141.211 59.5397 140.027 58.7825 140.78C53.8898 145.646 48.4317 150.484 44.9339 156.522C43.2086 152.209 41.5582 147.799 40.1352 143.368C40.081 143.193 39.9609 143.047 39.8004 142.96C39.6399 142.873 39.4518 142.852 39.2761 142.902C39.1005 142.952 38.9512 143.068 38.8601 143.226C38.769 143.384 38.7433 143.572 38.7885 143.749C40.2572 148.688 46.3899 165.093 47.198 167.74C45.4193 167.47 43.8604 168.393 42.243 169.68C29.7691 179.581 24.0252 192.897 24.3441 205.047C20.5702 196.837 17.609 188.278 15.5026 179.492C7.49837 144.289 33.465 107.594 62.946 99.1093C68.0674 109.731 75.7781 120.731 88.6611 121.699C89.5962 121.769 89.5644 120.962 89.7397 118.68C90.4512 119.392 97.0007 124.921 97.9345 124.287C99.5282 123.199 100.895 121.812 101.96 120.202C101.626 117.384 100.708 114.667 99.2648 112.224C98.937 111.578 99.7463 110.933 100.235 111.469C101.679 113.104 102.747 115.036 103.362 117.129C105.553 117.129 111.678 108.399 113.12 105.861C115.231 102.146 117.325 97.6673 116.732 93.3539C127.211 97.384 145.838 125.836 151.182 136.915C153.602 141.932 154.104 147.478 154.358 152.98C154.372 153.271 154.497 153.546 154.708 153.747C154.919 153.948 155.199 154.06 155.49 154.06C155.781 154.06 156.061 153.948 156.272 153.747C156.483 153.546 156.608 153.271 156.622 152.98C156.726 147.712 155.734 142.48 153.71 137.616C165.78 128.936 177.378 119.986 190.101 112.169C193.915 120.66 195.671 129.932 195.228 139.229L195.225 139.221ZM215.119 118.356C210.464 114.216 206.625 109.243 203.797 103.692C205.269 101.721 207.192 100.131 209.404 99.056C209.892 98.7917 209.565 97.9773 209.023 98.1933C206.295 99.0371 203.901 100.715 202.176 102.991C201.963 103.134 201.807 103.348 201.738 103.595C201.668 103.842 201.688 104.105 201.795 104.339C204.823 110.552 209.12 116.062 214.41 120.512C214.609 120.693 214.869 120.794 215.138 120.794C215.407 120.794 215.667 120.693 215.866 120.512C222.849 114.345 229.767 108.11 236.622 101.805C237.06 103.339 234.251 114.129 228.211 118.518C223.892 121.653 216.777 122.67 211.441 122.67C210.77 120.991 207.015 125.993 197.155 132.643C196.706 126.114 195.237 119.695 192.801 113.621C196.576 111.141 195.562 106.078 197.169 102.187C198.191 99.6664 199.833 97.4454 201.943 95.73C204.054 94.0145 206.563 92.8602 209.239 92.3744C209.778 92.2664 218.08 91.4583 215.654 94.693C215.168 95.3397 216.075 96.0792 216.678 95.7171C218.643 94.5355 218.134 92.1596 216.355 91.0263C221.423 87.1996 226.004 82.6168 230.75 78.4115C231.666 79.4355 232.529 80.4595 233.391 81.5382C233.141 81.995 233.033 82.5161 233.081 83.0347C233.129 83.5533 233.331 84.0458 233.661 84.4489L236.518 87.8996C236.83 88.2957 237.254 88.5894 237.734 88.7431C238.214 88.8968 238.73 88.9035 239.214 88.7623C240.346 90.2717 241.478 91.781 242.555 93.345C233.614 101.868 224.393 110.165 215.121 118.365L215.119 118.356Z" fill="#12121D"/>
<path d="M209.353 105.858C208.757 105.43 208.159 106.239 208.436 106.775C208.915 107.601 209.475 108.377 210.108 109.093C212.64 112.222 213.974 110.529 211.455 107.907C210.815 107.165 210.112 106.479 209.353 105.858Z" fill="#12121D"/>
<path d="M86.5954 44.2368C87.2205 46.2213 87.9447 48.2262 88.6981 50.1675C89.346 51.8382 92.582 58.8311 87.6194 57.8223C87.4478 57.7805 87.2669 57.8019 87.1099 57.8828C86.9529 57.9636 86.8304 58.0985 86.7648 58.2625C86.6993 58.4265 86.6952 58.6086 86.7532 58.7754C86.8112 58.9422 86.9275 59.0824 87.0807 59.1703C89.1491 60.5425 91.5148 58.7422 91.9862 56.5823C92.1865 54.8102 91.8285 53.0197 90.9621 51.4609C89.8657 48.8805 88.7514 46.3395 87.4581 43.8594C87.3937 43.77 87.3007 43.7054 87.1944 43.6763C87.0882 43.6472 86.9752 43.6554 86.8742 43.6995C86.7733 43.7437 86.6906 43.8211 86.6398 43.9189C86.5891 44.0166 86.5734 44.1288 86.5954 44.2368Z" fill="#12121D"/>
<path d="M90.0462 43.373C89.665 43.8583 90.1465 44.6028 90.7462 44.2356C92.5781 43.0161 94.2768 41.6074 95.8143 40.0328C96.0836 39.6021 95.6529 38.9033 95.113 39.1167C93.2692 40.3402 91.5695 41.768 90.0462 43.373Z" fill="#12121D"/>
<path d="M80.6645 48.6572C80.803 48.6505 80.9337 48.5907 81.0293 48.4903C81.125 48.3899 81.1783 48.2566 81.1783 48.1179C81.1783 47.9792 81.125 47.8459 81.0293 47.7454C80.9337 47.645 80.803 47.5853 80.6645 47.5786C78.5618 47.4172 75.7172 47.1682 73.7644 48.2799C70.8193 49.9595 78.5085 48.6572 80.6645 48.6572Z" fill="#12121D"/>
<path d="M80.3481 61.8654C80.2474 61.7699 80.1159 61.7133 79.9772 61.7059C79.8386 61.6985 79.7018 61.7407 79.5914 61.8249C79.4811 61.9091 79.4043 62.0299 79.3749 62.1656C79.3454 62.3013 79.3653 62.4431 79.4308 62.5655C80.9948 65.0455 84.9842 66.5561 87.5723 64.9388C88.003 64.6682 87.8416 63.8601 87.3029 63.9135C84.2778 64.0456 83.0289 64.3277 80.3481 61.8654Z" fill="#12121D"/>
<path d="M100.99 126.183C100.668 124.958 94.23 125.606 94.1436 126.183C92.7587 135.358 92.713 145.05 92.2022 154.324C91.9735 158.475 92.9569 159.66 95.8143 162.519C99.2856 166.044 101.743 170.439 102.929 175.242C102.992 175.458 103.123 175.648 103.302 175.784C103.482 175.919 103.701 175.992 103.926 175.992C104.152 175.992 104.371 175.919 104.551 175.784C104.73 175.648 104.861 175.458 104.924 175.242C110.795 157.201 110.453 161.067 107.673 152.06C105.06 143.587 103.276 134.87 100.99 126.183Z" fill="#12121D"/>
<path d="M96.6767 198.263C97.0827 195.946 96.9523 193.567 96.2955 191.308C95.6939 187.934 94.8103 184.615 93.6541 181.388C93.489 180.959 92.7368 180.958 92.7368 181.496C93.1688 187.103 94.4088 192.656 95.1635 198.21C95.2094 198.372 95.3055 198.515 95.438 198.619C95.5704 198.723 95.7324 198.782 95.9006 198.788C96.0689 198.794 96.2346 198.746 96.3741 198.652C96.5135 198.558 96.6195 198.421 96.6767 198.263Z" fill="#12121D"/>
<path d="M88.7511 198.262C88.8245 191.677 88.0087 185.112 86.3257 178.745C86.1491 178.048 84.9675 178.153 85.031 178.908C85.5888 185.438 86.487 191.953 87.5721 198.423C87.6737 199.071 88.6977 198.908 88.7511 198.262Z" fill="#12121D"/>
<path d="M79.6937 198.263C81.0188 193.712 80.118 188.452 79.6937 183.868C79.639 183.276 78.6773 183.007 78.5617 183.707C77.7866 188.524 77.7322 193.43 78.4003 198.263C78.5159 199.017 79.5222 198.854 79.6937 198.263Z" fill="#12121D"/>
<path d="M87.1883 37.8735C87.0714 38.411 87.7879 38.9573 88.2123 38.4669C91.3581 34.8307 92.9055 36.4036 94.6817 35.6095C94.7797 35.5499 94.8632 35.4691 94.926 35.3731C94.9889 35.2771 95.0295 35.1683 95.045 35.0546C95.0604 34.9409 95.0503 34.8252 95.0154 34.7159C94.9805 34.6066 94.9216 34.5065 94.8431 34.4228C93.368 32.6467 87.9709 34.2526 87.1883 37.8735Z" fill="#12121D"/>
<path d="M72.6323 42.673C72.3134 43.0542 72.5726 43.847 73.171 43.5891C75.7 42.5007 78.489 42.1637 81.2044 42.6184C81.9058 42.7188 81.9667 41.7519 81.5271 41.433C80.1504 40.513 78.4836 40.131 76.8437 40.3596C75.2037 40.5882 73.7049 41.4116 72.6323 42.673Z" fill="#12121D"/>
<path d="M62.011 173.895C60.3723 165.227 59.6856 156.405 59.963 147.587C59.9769 146.94 59.0545 146.995 58.9923 147.587C58.1169 156.52 58.5881 165.534 60.3898 174.327C60.6249 175.455 62.227 174.974 62.011 173.895Z" fill="#12121D"/>
<path d="M69.1268 176.212C62.3931 176.238 55.075 177.249 48.6945 174.54C48.0491 174.267 47.4506 175.194 48.1024 175.565C54.4778 179.192 62.0107 178.072 69.0735 178.099C74.4096 178.119 76.6546 180.144 70.7988 183.76C69.0494 184.808 67.1623 185.606 65.192 186.132C61.1467 187.259 57.4813 186.894 53.4386 186.513C52.3599 186.409 52.3053 187.974 53.2238 188.292C57.6871 189.833 63.0944 189.168 67.4536 187.591C70.2601 186.574 76.2417 184.086 76.295 180.366C76.3522 176.535 71.8775 176.2 69.1268 176.212Z" fill="#12121D"/>
<path d="M88.6428 217.833C94.4096 221.449 90.8026 228.575 84.816 229.425C80.1799 230.082 73.2963 224.872 75.3812 219.666C77.2984 214.87 84.4374 215.197 88.6428 217.833Z" fill="#2F80ED"/>
<path d="M193.987 39.9227C193.552 39.4693 192.992 39.1559 192.377 39.0224C191.763 38.8889 191.123 38.9413 190.539 39.1731C189.955 39.4048 189.453 39.8053 189.097 40.3235C188.741 40.8417 188.548 41.4541 188.542 42.0826C188.621 42.8167 188.967 43.4963 189.513 43.993C190.06 44.4898 190.769 44.7692 191.507 44.7786C192.316 44.7972 193.104 44.5241 193.728 44.0092C194.351 43.4943 194.769 42.772 194.903 41.9746C194.878 41.1971 194.55 40.4604 193.987 39.9227Z" fill="#2F80ED"/>
<path d="M70.692 222.097C70.34 218.267 70.0986 214.657 66.7026 211.908C62.4438 212.016 58.1902 212.016 53.9251 211.745C53.5439 220.55 49.1975 230.532 47.5103 238.971C54.0102 239.352 51.4958 239.178 61.5265 239.456C66.1334 236.662 71.3272 228.986 70.692 222.097Z" fill="#2F80ED"/>
<path d="M197.761 50.8146C197.059 49.4812 195.962 48.3974 194.62 47.7121C193.278 47.0267 191.757 46.7733 190.265 46.9866C188.445 47.3119 186.361 49.1706 185.117 50.8845C185.077 51.7981 185.123 52.7134 185.251 53.6187C185.46 53.6879 185.681 53.7061 185.898 53.672C187.823 53.5831 189.753 53.6554 191.666 53.888C193.191 53.9325 196.643 53.5615 197.705 54.0341C197.71 53.8245 197.824 50.9353 197.761 50.8146Z" fill="#2F80ED"/>
</svg>
