<svg width="256" height="256" viewBox="0 0 256 256" fill="none" xmlns="http://www.w3.org/2000/svg">
<rect width="256" height="256" fill="#E5E5E5"/>
<rect x="-60" y="-70" width="375" height="812" rx="40" fill="white"/>
<path opacity="0.1" d="M23.5492 67.871C16.2996 74.212 12.7774 82.7213 12.7774 91.5732C12.7774 105.171 20.3054 114.081 14.299 127.507C12.4071 131.736 8.54299 135.312 4.46914 137.985C-2.36869 142.471 -7.57459 147.457 -12.4372 153.533C-34.4932 181.092 14.3297 220.544 41.6148 232.477C57.177 239.283 74.2552 239.346 91.4644 237.674C106.11 236.25 121.144 232.203 135.856 234.927C163.924 240.126 179.621 251.152 211.59 247.138C243.089 243.184 272.749 229.82 272.749 201.318C272.749 187.216 274.718 161.835 267.629 148.843L267.307 148.254C263.458 141.204 259.569 134.079 257.412 126.451C249.978 100.159 268.226 79.5215 250.964 52.0695C244.699 42.1064 229.842 41 218.286 41C208.624 41 198.251 42.1771 189.111 45.0137C161.562 53.5638 139.943 58.4338 112.235 49.45C100.88 45.7684 87.1488 45.4958 75.3792 47.929C55.6103 52.016 38.4282 54.8567 23.5492 67.871Z" fill="#2F80ED"/>
<path d="M122.289 69.613C122.065 69.4816 121.812 69.405 121.553 69.3896C121.293 69.3742 121.034 69.4204 120.796 69.5243C120.557 69.6283 120.347 69.7872 120.182 69.9879C120.016 70.1887 119.901 70.4257 119.845 70.6795C119.717 71.2147 119.663 71.7649 119.684 72.3148C119.63 72.7853 119.706 73.2616 119.906 73.6912C120.098 74.4321 120.587 75.0393 121.52 74.8288C122.542 74.607 122.881 73.613 122.972 72.6816C123.07 71.6578 123.282 70.297 122.289 69.613Z" fill="#12121D"/>
<path d="M120.764 66.653C120.274 66.7831 119.822 67.0284 119.445 67.3685C119.069 67.7086 118.78 68.1336 118.601 68.6082C118.483 68.9481 118.945 69.177 119.178 68.9481C121.377 66.8152 122.153 68.2371 123.178 67.6299C123.771 67.283 123.02 65.9421 120.764 66.653Z" fill="#12121D"/>
<path d="M129.19 84.4274C128.112 84.4372 127.043 84.6172 126.021 84.9607C125.044 85.1953 124.513 85.7001 124.585 84.0563C124.633 82.9628 126.51 78.1296 126.54 74.8889C126.538 74.8132 126.511 74.7402 126.465 74.6807C126.418 74.6212 126.353 74.5783 126.28 74.5583C126.207 74.5384 126.13 74.5425 126.059 74.57C125.989 74.5975 125.929 74.647 125.888 74.7112C125.184 76.3716 124.648 78.0985 124.289 79.8658C123.613 82.4865 121.81 86.7111 124.658 86.6187C126.331 86.5232 127.958 86.0419 129.414 85.2124C129.49 85.1628 129.549 85.0899 129.581 85.0043C129.614 84.9188 129.618 84.8252 129.593 84.7373C129.568 84.6493 129.515 84.5718 129.443 84.516C129.37 84.4602 129.282 84.4292 129.19 84.4274Z" fill="#12121D"/>
<path d="M130.36 88.41C130.317 88.3688 130.265 88.3391 130.207 88.3236C130.15 88.3082 130.09 88.3075 130.032 88.3217C129.974 88.3359 129.921 88.3645 129.878 88.4048C129.834 88.4452 129.801 88.4959 129.783 88.5522C129.575 89.2049 129.709 89.9159 129.515 90.5672C129.373 91.0672 129.108 91.5233 128.743 91.8934C128.378 92.2635 127.926 92.5356 127.428 92.6845C125.251 93.2533 124.3 91.3379 123.503 89.7822C123.464 89.7201 123.407 89.6705 123.341 89.6392C123.274 89.6078 123.2 89.5961 123.127 89.6054C123.054 89.6146 122.985 89.6444 122.928 89.6914C122.871 89.7383 122.829 89.8004 122.806 89.8704C122.125 92.3446 125.458 94.3439 127.576 93.9145C129.487 93.5504 132.375 90.1733 130.36 88.41Z" fill="#12121D"/>
<path d="M232.79 132.708C232.399 127.613 233.169 122.504 233.338 117.409C233.333 117.212 233.257 117.022 233.125 116.875C232.993 116.728 232.813 116.633 232.617 116.606C232.422 116.58 232.223 116.623 232.056 116.73C231.89 116.836 231.766 116.999 231.708 117.187C230.86 121.358 230.479 125.61 230.571 129.864C230.588 139.086 235.245 149.651 230.127 176.829C228.576 185.076 224.57 200.594 219.981 207.634C217.463 211.499 213.273 214.831 208.463 214.818C199.101 214.79 192.537 202.622 188.414 193.432C186.387 188.927 184.934 184.189 183.153 179.583C182.901 178.932 181.873 179.184 182.086 179.879C185.529 191.353 192.02 210.967 203.147 215.721C205.27 216.632 207.589 216.987 209.887 216.754C212.185 216.521 214.386 215.707 216.283 214.389C220.358 211.651 222.832 207.488 224.681 203.043C231.192 186.845 234.545 169.552 234.559 152.095C234.559 141.991 233.257 138.793 232.79 132.708Z" fill="#12121D"/>
<path d="M216.973 120.001C216.837 119.393 216.035 119.6 215.966 120.133C215.458 124.039 215.312 127.908 214.574 131.793C211.73 146.762 209.364 147.948 205.45 157.593C202.237 165.513 199.113 178.166 200.189 186.711C200.266 187.318 201.216 187.601 201.374 186.874C202.348 182.421 202.281 177.765 203.137 173.293C207.052 152.841 213.597 151.214 216.361 132.83C216.975 128.766 217.876 124.046 216.973 120.001Z" fill="#12121D"/>
<path d="M204.991 81.5665C207.595 83.0836 210.308 84.4054 213.107 85.521C213.666 84.9292 214.281 84.3934 214.943 83.9212C211.921 82.4021 208.715 81.2776 205.406 80.5754C205.28 80.5433 205.146 80.5575 205.03 80.6156C204.913 80.6737 204.822 80.7718 204.771 80.8919C204.721 81.012 204.715 81.1462 204.756 81.27C204.796 81.3938 204.88 81.499 204.991 81.5665Z" fill="#12121D"/>
<path d="M252.148 107.263C250.455 104.16 247.925 101.594 244.846 99.8585C242.981 98.6413 241.069 97.4739 239.144 96.3477C238.447 96.8861 237.778 97.4594 237.139 98.0654C243.013 101.47 251.052 105.414 250.631 112.076C250.38 116.046 247.181 117.836 243.448 116.911C239.669 115.968 236.134 113.875 231.245 111.43C230.948 112.185 230.666 112.956 230.371 113.697C231.259 114.141 232.164 114.584 233.051 115.015C236.592 116.73 240.383 119.037 244.351 119.547C251.409 120.447 254.838 113.115 252.148 107.263Z" fill="#12121D"/>
<path d="M206.191 97.9781C203.205 96.3045 200.198 94.6351 197.156 93.0752C196.992 92.9899 196.801 92.9711 196.623 93.0227C196.445 93.0742 196.294 93.1921 196.201 93.352C196.108 93.5119 196.08 93.7016 196.123 93.8817C196.165 94.0617 196.276 94.2185 196.431 94.3194C199.325 96.4154 202.325 98.3777 205.406 100.243C205.658 99.474 205.91 98.719 206.191 97.9781Z" fill="#12121D"/>
<path d="M173.4 66.8C175.249 67.7001 176.689 69.4904 178.598 70.1473C178.939 70.2654 179.189 69.8814 179.117 69.5999C178.576 67.5139 175.74 66.062 173.888 65.216C171.574 64.1566 169.058 63.6109 166.512 63.6162C163.636 63.731 160.806 64.3891 158.174 65.5558C156.055 66.409 153.649 67.484 152.636 69.6297C152.493 69.9411 152.86 70.372 153.183 70.1331C159.159 65.698 166.581 63.4968 173.4 66.8Z" fill="#12121D"/>
<path d="M179.102 71.0082C177.437 72.4334 175.568 73.6015 173.557 74.4735C171.452 75.2027 169.243 75.5831 167.016 75.5997C162.436 75.484 157.969 74.1499 154.076 71.7348C153.97 71.6796 153.847 71.664 153.73 71.691C153.614 71.718 153.51 71.7857 153.439 71.882C153.368 71.9783 153.333 72.0968 153.342 72.2163C153.35 72.3358 153.4 72.4485 153.484 72.534C161.462 80.251 177.86 78.064 180.098 71.6893C180.276 71.1774 179.532 70.6982 179.102 71.0082Z" fill="#12121D"/>
<path d="M164.203 67.7492C163.881 67.9384 163.618 68.212 163.44 68.5403C163.263 68.8686 163.178 69.2392 163.196 69.6119C163.122 69.935 163.118 70.2704 163.187 70.5948C163.255 70.9192 163.394 71.2247 163.593 71.49C163.792 71.7552 164.046 71.9737 164.339 72.1302C164.631 72.2868 164.954 72.3775 165.285 72.3961C165.746 72.4061 166.199 72.2814 166.59 72.0375C166.981 71.7936 167.292 71.441 167.485 71.0229C167.678 70.6048 167.746 70.1394 167.678 69.6837C167.611 69.228 167.412 68.8018 167.107 68.4573C166.759 68.0487 166.291 67.7603 165.769 67.6331C165.248 67.506 164.7 67.5466 164.203 67.7492Z" fill="#12121D"/>
<path d="M155.895 63.8836C158.908 61.791 162.449 60.59 166.113 60.4183C169.786 60.4624 172.207 62.7717 175.518 63.7955C175.814 63.8865 176.124 63.4855 175.918 63.2267C174.697 61.923 173.226 60.8786 171.592 60.1559C169.959 59.4333 168.197 59.0471 166.411 59.0205C162.394 59.1248 158.537 60.6159 155.494 63.2409C155.409 63.2941 155.348 63.3789 155.326 63.4768C155.303 63.5747 155.32 63.6775 155.373 63.7628C155.427 63.848 155.511 63.9086 155.609 63.9313C155.707 63.9539 155.81 63.9368 155.895 63.8836Z" fill="#12121D"/>
<path d="M181.012 75.8371C170.466 84.8808 168.417 86.6284 166.616 88.6348C166.539 88.7142 166.497 88.8202 166.497 88.9305C166.497 89.0408 166.539 89.1468 166.616 89.2263C166.728 89.3414 166.877 89.4134 167.037 89.4298C167.197 89.4461 167.357 89.4058 167.49 89.3159C170.505 87.1275 172.41 85.0216 181.663 76.4457C182.073 76.0646 181.445 75.4645 181.012 75.8371Z" fill="#12121D"/>
<path d="M168.112 81.8641C168.047 81.7925 167.956 81.7494 167.86 81.7438C167.763 81.7382 167.668 81.7707 167.595 81.8342C161.452 87.2462 160.363 88.0809 159.049 89.5498C158.707 89.9323 159.299 90.3632 159.7 90.083C160.871 89.2088 161.971 88.2431 162.989 87.195C163.313 86.8836 166.854 83.552 168.108 82.3234C168.167 82.2615 168.2 82.1798 168.201 82.0946C168.201 82.0093 168.17 81.927 168.112 81.8641Z" fill="#12121D"/>
<path d="M135.183 98.0074C133.786 98.0354 132.404 98.3008 131.095 98.7923C129.451 99.2701 127.755 99.5485 126.045 99.6214C123.491 99.7674 120.971 98.9834 118.95 97.4145C114.915 93.9932 116.406 87.5802 116.995 80.5301C117.043 79.9527 116.433 79.6584 115.959 79.7451C112.688 80.348 108.984 78.6204 108.716 74.9773C108.643 74.2246 108.781 73.4664 109.117 72.7885C109.452 72.1107 109.971 71.5404 110.614 71.1424C111.257 70.7444 111.998 70.5346 112.755 70.5368C113.511 70.5391 114.251 70.7532 114.892 71.155C114.996 71.2146 115.113 71.2459 115.233 71.2457C115.353 71.2455 115.47 71.2138 115.574 71.1539C115.677 71.094 115.763 71.0079 115.823 70.9043C115.883 70.8007 115.914 70.6832 115.914 70.5635C116.067 68.2372 116.462 65.9279 116.803 63.6314C120.389 65.1676 124.286 65.8374 128.179 65.5866C128.387 65.5866 128.594 65.5724 128.786 65.5724C129.992 58.7235 132.464 52.1591 136.074 46.2152C132.661 42.3347 129.706 37.9181 125.069 35.4481C123.584 34.6441 121.944 34.1662 120.259 34.0465C118.574 33.9267 116.883 34.1678 115.299 34.7537C113.715 35.3396 112.274 36.2567 111.073 37.4439C109.872 38.6311 108.937 40.0609 108.333 41.6379C105.373 48.8103 108.388 58.3972 115.427 62.8764C115.037 65.0614 114.771 67.2666 114.628 69.4814C113.798 69.1432 112.899 69.0133 112.007 69.1031C111.116 69.1929 110.26 69.4997 109.515 69.9966C108.77 70.4935 108.158 71.1655 107.732 71.9536C107.307 72.7418 107.081 73.6223 107.074 74.518C106.987 79.0939 111.117 81.7003 115.249 81.4643C114.628 87.2545 112.997 94.9729 118.227 98.9701C120.143 100.37 122.432 101.169 124.803 101.265C124.819 102.495 124.968 103.709 124.923 104.938C124.789 106.689 124.294 108.393 123.471 109.943C123.395 110.084 123.372 110.247 123.405 110.403C123.438 110.559 123.525 110.698 123.651 110.796C123.777 110.894 123.934 110.944 124.093 110.937C124.253 110.93 124.404 110.867 124.522 110.758C126.797 108.647 126.878 104.345 125.973 101.295C129.009 101.251 133.154 100.689 135.452 98.6885C135.507 98.6335 135.545 98.5636 135.56 98.4875C135.576 98.4114 135.569 98.3324 135.541 98.2601C135.512 98.1878 135.463 98.1254 135.4 98.0805C135.336 98.0356 135.261 98.0102 135.183 98.0074ZM115.179 56.2856C111.366 54.9831 108.458 47.0243 111.788 41.8754C112.01 41.5341 112.597 41.7545 112.455 42.1598C111.56 44.5318 111.411 47.1206 112.028 49.5796C112.684 52.1391 114.353 53.5398 115.657 55.6812C115.693 55.7536 115.707 55.8345 115.699 55.9147C115.69 55.9949 115.659 56.071 115.609 56.1343C115.559 56.1975 115.492 56.2453 115.416 56.2721C115.34 56.2989 115.258 56.3035 115.179 56.2856Z" fill="#12121D"/>
<path d="M48.7493 44.7646C47.6188 44.3585 46.4128 44.2296 45.226 44.3879C38.3322 44.5587 27.6799 45.0547 17.6714 45.8946C16.2227 45.9153 14.7831 46.1353 13.3904 46.5488C13.0266 46.6932 12.9357 47.3863 13.3904 47.4779C16.1559 48.0266 19.3251 47.321 22.1198 47.1377C47.7697 45.4903 46.9743 46.4044 48.7529 45.464C48.808 45.425 48.853 45.3727 48.884 45.3116C48.9149 45.2504 48.9309 45.1823 48.9306 45.1133C48.9302 45.0442 48.9135 44.9763 48.8819 44.9156C48.8503 44.8548 48.8048 44.8029 48.7493 44.7646Z" fill="#12121D"/>
<path d="M48.6096 53.7054C47.3217 53.3468 45.9812 53.2162 44.6484 53.3194C38.6363 53.2178 29.7433 53.3529 22.7403 53.8298C19.9545 53.9129 17.1799 54.2211 14.4435 54.7513C14.0584 54.8517 14.1704 55.4481 14.5305 55.4684C18.7886 55.7983 27.616 54.5816 44.6484 54.8708C45.9719 55.0213 47.3113 54.9457 48.6096 54.6473C48.7042 54.6103 48.7854 54.5455 48.8426 54.4615C48.8998 54.3775 48.9305 54.2781 48.9305 54.1764C48.9305 54.0746 48.8998 53.9753 48.8426 53.8912C48.7854 53.8072 48.7042 53.7425 48.6096 53.7054Z" fill="#12121D"/>
<path d="M48.5707 61.2912C47.2679 61.0722 45.9371 61.0722 44.6344 61.2912C36.1959 61.8579 29.6578 61.8392 23.9321 61.8392C21.2382 61.8392 18.2986 61.4618 15.6413 61.8999C15.1985 61.9724 15.2351 62.7178 15.6413 62.8124C18.249 63.469 21.263 63.2505 23.9321 63.3229C28.1413 63.4398 36.2314 63.3416 44.6344 62.8486C45.9676 62.9085 47.3008 62.7312 48.5707 62.3252C49.0018 62.1324 49.0963 61.4373 48.5707 61.2912Z" fill="#12121D"/>
<path d="M63.0033 47.6959C62.6417 47.2816 62.1496 47.003 61.6082 46.906C61.0669 46.8091 60.5087 46.8996 60.0257 47.1627L60.677 47.4741C60.3616 47.5661 60.072 47.7305 59.8313 47.954C59.5906 48.1776 59.4054 48.4543 59.2904 48.762C59.1753 49.0698 59.1337 49.4001 59.1688 49.7268C59.2039 50.0534 59.3147 50.3674 59.4925 50.6437C59.706 50.896 59.9708 51.1001 60.2692 51.2424C60.5676 51.3847 60.8929 51.4618 61.2234 51.4688C61.5539 51.4758 61.8821 51.4125 62.1863 51.2829C62.4905 51.1534 62.7636 50.9607 62.9877 50.7176C63.3315 50.2899 63.5202 49.7583 63.523 49.2095C63.5259 48.6607 63.3427 48.1272 63.0033 47.6959Z" fill="#2F80ED"/>
<path d="M73.1866 47.6819C72.4458 46.3794 70.0896 45.4636 69.1141 46.9851C69.0814 47.036 69.064 47.0952 69.064 47.1558C69.064 47.2163 69.0814 47.2755 69.1141 47.3264C68.6266 47.6479 68.2573 48.1197 68.0623 48.6702C67.8672 49.2207 67.8571 49.8198 68.0334 50.3765C68.1781 50.7344 68.3941 51.0591 68.6683 51.3309C68.9425 51.6026 69.2691 51.8157 69.6284 51.9571C69.9876 52.0985 70.3718 52.1653 70.7577 52.1535C71.1435 52.1416 71.5229 52.0513 71.8727 51.888C72.246 51.7099 72.5785 51.4566 72.8494 51.144C73.1203 50.8314 73.3238 50.4663 73.4471 50.0715C73.5704 49.6767 73.6109 49.2607 73.5661 48.8495C73.5213 48.4384 73.3921 48.0408 73.1866 47.6819ZM71.3381 50.658C70.9767 50.8414 70.5588 50.8791 70.1705 50.7635C69.7821 50.6479 69.4529 50.3878 69.2506 50.0366C69.1094 49.6349 69.1256 49.1946 69.2961 48.8043C69.4665 48.4141 69.7785 48.103 70.1692 47.9336C70.2595 47.9089 70.3402 47.8576 70.4009 47.7863C70.4615 47.715 70.4992 47.6271 70.5091 47.534C70.8084 47.5235 71.105 47.5934 71.3681 47.7364C71.6312 47.8795 71.8511 48.0904 72.005 48.3474C72.1201 48.5411 72.1942 48.7564 72.2229 48.9799C72.2515 49.2035 72.234 49.4305 72.1715 49.647C72.1091 49.8635 72.0029 50.065 71.8595 50.2388C71.7162 50.4127 71.5387 50.5554 71.3381 50.658Z" fill="#12121D"/>
<path d="M63.8004 47.6819C63.0595 46.3794 60.7033 45.4636 59.7279 46.9851C59.6948 47.0359 59.6772 47.0952 59.6772 47.1558C59.6772 47.2163 59.6948 47.2756 59.7279 47.3264C59.2399 47.6476 58.8702 48.1193 58.6749 48.6698C58.4795 49.2204 58.4693 49.8196 58.6458 50.3765C58.7904 50.7344 59.0064 51.0591 59.2806 51.3309C59.5548 51.6026 59.8815 51.8157 60.2407 51.9571C60.5999 52.0985 60.9841 52.1653 61.37 52.1535C61.7558 52.1416 62.1352 52.0513 62.4851 51.888C62.8584 51.71 63.1911 51.4568 63.4621 51.1443C63.7332 50.8318 63.9368 50.4667 64.0602 50.0719C64.1837 49.6771 64.2244 49.261 64.1796 48.8498C64.1349 48.4385 64.0058 48.0409 63.8004 47.6819ZM61.9646 50.658C61.6033 50.8417 61.1853 50.8797 60.7969 50.764C60.4084 50.6484 60.0792 50.388 59.8772 50.0366C59.7359 49.6349 59.7522 49.1946 59.9226 48.8043C60.0931 48.4141 60.4051 48.103 60.7958 47.9336C60.886 47.9089 60.9668 47.8576 61.0274 47.7863C61.088 47.715 61.1258 47.6271 61.1356 47.534C61.5137 47.5161 61.8865 47.6284 62.1918 47.8521C62.4972 48.0758 62.7166 48.3974 62.8136 48.7633C62.9105 49.1292 62.8792 49.5173 62.7247 49.8628C62.5702 50.2084 62.3019 50.4906 61.9646 50.6623V50.658Z" fill="#12121D"/>
<path d="M82.5705 47.6821C81.831 46.3782 79.4905 45.4752 78.4979 46.9853C78.4652 47.0363 78.4479 47.0955 78.4479 47.156C78.4479 47.2165 78.4652 47.2757 78.4979 47.3266C78.0101 47.6478 77.6405 48.1196 77.4454 48.6702C77.2503 49.2208 77.2404 49.82 77.4173 50.3767C77.5619 50.7347 77.7779 51.0594 78.0521 51.3311C78.3263 51.6029 78.653 51.8159 79.0122 51.9573C79.3714 52.0988 79.7556 52.1656 80.1415 52.1537C80.5273 52.1418 80.9067 52.0515 81.2566 51.8883C81.6304 51.7108 81.9635 51.4578 82.2349 51.1453C82.5063 50.8329 82.7101 50.4676 82.8335 50.0726C82.9569 49.6775 82.9972 49.2612 82.9519 48.8498C82.9067 48.4385 82.7768 48.0409 82.5705 47.6821Z" fill="#12121D"/>
<path d="M91.2903 90.8985C89.2159 82.3504 85.5753 74.2608 80.553 67.0394C79.7254 65.7937 78.7357 63.6409 77.1403 63.4105C77.0574 63.3919 76.9711 63.3948 76.8896 63.4191C76.8081 63.4433 76.7342 63.4879 76.6749 63.5488C76.6156 63.6097 76.5729 63.6848 76.5508 63.7668C76.5287 63.8489 76.528 63.9353 76.5488 64.0177C77.1623 65.5204 78.0343 66.9041 79.1254 68.1058C85.473 77.4695 86.895 82.3027 90.3958 91.1502C90.4124 91.2089 90.4403 91.2638 90.478 91.3117C90.5158 91.3597 90.5626 91.3997 90.6158 91.4295C90.669 91.4594 90.7276 91.4784 90.7882 91.4857C90.8488 91.4929 90.9102 91.4881 90.9689 91.4715C91.0276 91.455 91.0825 91.4271 91.1305 91.3893C91.1784 91.3516 91.2184 91.3048 91.2483 91.2516C91.2781 91.1984 91.2972 91.1398 91.3044 91.0792C91.3116 91.0186 91.3068 90.9572 91.2903 90.8985Z" fill="#12121D"/>
<path d="M73.2375 83.5475C73.2769 83.0692 73.421 82.6054 73.6597 82.189C73.8984 81.7727 74.2258 81.4139 74.6187 81.1383C75.0116 80.8627 75.4603 80.6769 75.9331 80.5942C76.4058 80.5114 76.891 80.5337 77.3541 80.6595C81.5901 81.8113 82.2727 88.3381 84.7896 92.3452C84.837 92.4207 84.9074 92.4791 84.9905 92.5116C85.0736 92.5441 85.1649 92.5492 85.251 92.5259C85.3371 92.5027 85.4135 92.4524 85.4689 92.3825C85.5244 92.3126 85.5559 92.2267 85.5588 92.1376C85.3718 89.6012 84.6503 87.1331 83.4415 84.8955C82.7082 82.9205 81.4418 81.1874 79.7828 79.8888C76.6545 77.7643 72.0658 79.3385 72.3033 83.5333C72.3078 83.653 72.3581 83.7664 72.4437 83.8501C72.5294 83.9338 72.6439 83.9815 72.7637 83.9834C72.8834 83.9852 72.9993 83.941 73.0875 83.8599C73.1757 83.7788 73.2294 83.667 73.2375 83.5475Z" fill="#12121D"/>
<path d="M67.1935 89.3785C67.28 88.5378 67.5854 87.7345 68.0791 87.0486C68.5729 86.3627 69.2378 85.8183 70.0076 85.4695C72.0083 84.8353 73.7715 86.5929 74.9247 87.9864C77.0776 90.59 78.1512 93.6316 79.5902 96.6362C79.6374 96.7124 79.7079 96.7713 79.7912 96.8043C79.8745 96.8373 79.9663 96.8425 80.0528 96.8192C80.1393 96.7958 80.216 96.7453 80.2715 96.6749C80.3271 96.6045 80.3584 96.5182 80.3609 96.4286C80.1414 94.1163 79.4225 91.8793 78.2539 89.872C77.0853 87.8647 75.4948 86.1351 73.5924 84.8026C70.0062 82.6583 66.7357 85.5719 66.4683 89.2605C66.437 89.6842 67.121 89.7738 67.1935 89.3785Z" fill="#12121D"/>
<path d="M65.9198 102.792C64.73 100.523 63.8582 98.1008 63.329 95.5939C63.0645 93.9487 63.2252 92.3462 64.795 92.1812C67.1782 91.9395 69.6098 94.8019 70.9564 96.4912C72.805 98.8161 74.1615 101.492 75.8138 103.957C76.0513 104.311 76.7182 104.099 76.5547 103.645C74.8625 98.9156 71.6546 93.0799 66.7943 90.9825C66.2028 90.7117 65.553 90.5929 64.9039 90.6369C64.2548 90.6808 63.6269 90.8861 63.0773 91.2342C60.2092 93.2249 62.4246 98.2985 63.4029 100.639C64.5158 103.252 65.8072 105.785 67.2678 108.221C67.7271 108.207 68.2006 108.177 68.6599 108.163C67.683 106.391 66.7645 104.594 65.9198 102.792Z" fill="#12121D"/>
<path d="M85.6322 186.396C83.5575 190.365 81.6052 194.722 78.7612 198.23C73.5142 204.701 62.7314 211.515 55.0144 207.131C50.6775 204.667 49.2171 198.57 48.6455 193.965C48.2058 189.163 48.612 184.32 49.8456 179.657C54.4983 159.369 63.6827 147.74 72.2529 126.221C73.8171 122.281 74.9347 117.429 72.0908 113.84C72.028 113.755 71.9469 113.684 71.8533 113.633C71.4836 113.647 71.0983 113.663 70.7272 113.693C70.8167 113.825 70.9049 113.944 70.9803 114.076C70.9618 114.205 70.9879 114.336 71.0542 114.448C73.3194 119.157 71.303 124.013 69.1729 128.383C66.9789 132.883 65.1075 137.509 62.9675 142.034C55.7325 157.337 42.4116 180.245 47.4311 198.713C48.6185 203.081 50.4983 207.45 54.8253 209.436C63.4311 213.391 73.7446 207.124 79.6926 200.401C82.9492 196.432 85.363 191.842 86.7868 186.909C86.8236 186.763 86.8075 186.608 86.7414 186.473C86.6752 186.337 86.5633 186.229 86.4253 186.167C86.2873 186.106 86.1321 186.095 85.987 186.137C85.842 186.179 85.7163 186.271 85.6322 186.396Z" fill="#12121D"/>
<path d="M93.867 43.6972C93.815 41.3436 93.0848 39.0551 91.764 37.1064C89.0736 33.8145 83.9887 32.9941 80.064 32.5006C72.8748 31.8137 65.6355 31.8337 58.4502 32.5604C58.2817 32.5855 58.1279 32.6704 58.0167 32.7994C57.9055 32.9285 57.8444 33.0932 57.8444 33.2635C57.8444 33.4339 57.9055 33.5985 58.0167 33.7276C58.1279 33.8566 58.2817 33.9415 58.4502 33.9667C67.1739 34.2511 76.4878 33.0396 84.9912 35.4924C87.1086 35.9199 89.0307 37.0214 90.47 38.6321C92.1323 40.9258 92.0171 44.5105 92.2631 47.2364C93.6964 63.2065 93.5741 79.0714 93.3281 95.6373C93.5212 98.5653 93.3473 101.506 92.8105 104.391C91.9218 107.589 89.1376 108.503 86.1757 108.799C65.388 110.912 27.9672 111.219 11.5876 108.148C8.92143 107.649 6.43726 106.562 5.58977 103.72C4.73659 100.846 5.18167 97.3209 5.17598 94.3746C5.08355 55.0672 5.0025 52.3342 4.96837 45.7661C4.95558 43.2635 4.61146 39.9361 6.36048 37.887C8.04693 35.9162 11.053 36.0385 13.4106 35.8735C30.0874 34.7118 30.0343 34.18 43.3788 33.7548C44.9785 33.715 46.5341 33.5202 48.1182 33.341C48.2199 33.3265 48.3129 33.2758 48.3802 33.1982C48.4476 33.1207 48.4846 33.0214 48.4846 32.9187C48.4846 32.816 48.4476 32.7167 48.3802 32.6391C48.3129 32.5615 48.2199 32.5109 48.1182 32.4964C39.5068 31.6332 34.003 32.2717 25.3532 32.4523C16.1858 32.6428 23.8222 32.9599 14.669 33.6211C10.5453 33.9197 5.41771 34.0833 3.75402 38.7018C3.08298 41.2354 2.85733 43.8663 3.08712 46.4771C3.11413 51.9048 3.28477 94.0361 3.32458 99.4993C3.34165 102.032 3.46678 104.738 5.07218 106.8C6.49553 108.43 8.44437 109.51 10.5809 109.854C18.1372 111.495 42.3379 114.033 82.4487 111.054C85.1589 110.852 88.1678 110.894 90.6961 109.75C95.7938 107.447 95.2193 101.102 95.2719 96.3611C95.4525 80.1265 95.7767 61.3651 93.867 43.6972Z" fill="#12121D"/>
<path d="M217.757 85.4784C217.796 85.4079 217.813 85.3276 217.808 85.2472C217.802 85.1669 217.773 85.0899 217.724 85.0256C217.676 84.9614 217.61 84.9126 217.534 84.8852C217.458 84.8578 217.376 84.8529 217.298 84.8712C215.267 85.4301 213.717 87.4208 212.528 89.0632C209.8 93.1532 208.103 97.8434 207.583 102.733C206.99 105.641 207.045 108.645 207.745 111.53C207.91 112.018 208.777 112.152 208.871 111.53C209.239 109.069 208.989 106.539 209.241 104.051C209.676 99.209 211.182 94.5245 213.649 90.3358C214.822 88.5257 216.535 87.236 217.757 85.4784Z" fill="#12121D"/>
<path d="M223.487 88.3224C223.886 87.9499 223.345 87.2019 222.894 87.5517C219.153 90.471 217.018 95.0028 215.327 99.3114C214.324 101.883 213.483 104.514 212.808 107.19C212.035 109.635 211.723 112.201 211.89 114.76C211.962 115.337 212.87 115.604 213.016 114.902C213.873 110.108 215.051 105.378 216.541 100.742C218.1 96.3352 219.981 91.5958 223.487 88.3224Z" fill="#12121D"/>
<path d="M230.923 91.5347C231.041 91.4651 231.126 91.3519 231.161 91.2196C231.196 91.0874 231.178 90.9467 231.11 90.828C231.042 90.7094 230.93 90.6222 230.798 90.5855C230.666 90.5488 230.525 90.5654 230.406 90.6318C225.997 92.8287 224.111 98.2436 222.171 102.45C221.033 104.924 219.903 107.397 218.758 109.87C217.914 111.707 216.55 113.78 216.33 115.809C216.285 116.224 216.863 116.401 217.13 116.135C218.36 114.544 219.312 112.757 219.944 110.848C221.008 108.522 222.077 106.209 223.142 103.887C225.107 99.6456 226.841 94.2123 230.923 91.5347Z" fill="#12121D"/>
<path d="M237.439 93.0907C234.453 93.2528 232.113 96.1152 230.641 98.4515C229.211 100.975 228.011 103.622 227.058 106.36C225.726 109.082 224.535 111.87 223.488 114.713C223.429 114.921 223.682 115.16 223.888 115.01C225.31 113.749 226.39 112.149 227.028 110.359C229.36 105.301 230.327 100.964 233.219 97.5187C234.12 96.2777 235.359 95.3217 236.788 94.7643C238.668 94.2254 239.171 95.3715 240.209 96.5859C240.259 96.634 240.318 96.6704 240.383 96.6923C240.449 96.7142 240.518 96.7211 240.586 96.7125C240.655 96.7039 240.72 96.68 240.778 96.6426C240.836 96.6051 240.884 96.5551 240.92 96.4963C241.877 94.5169 239.083 93.0011 237.439 93.0907Z" fill="#12121D"/>
<path d="M204.65 146.171C201.096 138.998 196.739 132.253 191.661 126.064C186.54 119.855 179.806 115.176 172.2 112.542C168.077 111.245 165.217 110.938 145.304 108.01L144.786 108.335C140.283 112.839 138.491 113.718 131.135 113.282C129.42 113.284 127.718 112.973 126.115 112.364C124.822 111.776 123.733 110.817 122.986 109.609L122.646 109.183C113.263 108.578 103.897 110.604 95.602 115.033C92.0755 120.294 89.0055 124.711 87.8267 130.599C84.3187 148.109 86.8313 155.91 86.9238 170.868C87.6706 165.52 88.9355 160.258 90.7005 155.155C90.7358 155.027 90.8203 154.919 90.9355 154.854C91.0507 154.788 91.1871 154.771 91.3148 154.807C91.4425 154.842 91.5509 154.926 91.6162 155.042C91.6815 155.157 91.6984 155.293 91.6632 155.421C88.697 166.3 87.5693 177.888 86.746 180.11C86.8182 180.153 86.8871 180.2 86.9522 180.253C84.6131 199.195 85.4862 215.117 85.4862 236.917C133 243.5 126.115 233 185.649 236.903C184.479 211.237 183.694 202.512 180.53 178.105C186.911 173.56 193.579 169.434 200.495 165.753C201.649 162.198 203.103 158.704 204.345 155.208C204.998 153.372 205.737 151.565 206.507 149.773C205.909 148.57 205.287 147.371 204.65 146.171ZM181.072 172.089C181.049 172.165 181.004 172.232 180.943 172.282C180.883 172.333 180.809 172.365 180.73 172.374C180.652 172.383 180.572 172.37 180.502 172.335C180.431 172.3 180.372 172.245 180.331 172.177C179.753 170.641 179.394 169.03 179.265 167.394C177.416 156.79 176.835 155.038 176.644 151.636C176.614 151.118 177.331 151.1 177.487 151.518C178.584 155.02 179.367 158.613 179.828 162.255C180.152 164.062 180.434 165.881 180.701 167.69C181.034 169.131 181.159 170.612 181.072 172.089Z" fill="#2F80ED"/>
<path d="M31.899 95.6043C30.3218 97.3792 28.1778 98.5523 25.8325 98.9236C23.4873 99.2949 21.0858 98.8415 19.0374 97.6405C11.2166 93.1073 12.6727 81.7899 19.2535 78.5393C21.4814 77.4522 24.0299 77.2175 26.4188 77.8795C32.8432 79.7081 35.3388 87.4436 30.3548 92.2882C29.3992 93.2296 28.1294 93.905 27.4469 92.7347C26.9778 91.6717 26.7945 90.5047 26.9151 89.349C26.8852 87.3804 27.0236 85.4128 27.3289 83.4678C27.3545 83.299 27.3393 83.1265 27.2846 82.9648C27.23 82.8031 27.1374 82.6568 27.0146 82.5382C26.8918 82.4196 26.7424 82.3321 26.5789 82.2831C26.4154 82.234 26.2425 82.2248 26.0747 82.2563C23.9289 79.9541 18.7942 80.6452 17.0438 85.4912C16.3224 87.7248 16.4095 90.1409 17.2898 92.3167C17.6818 93.0255 18.2635 93.6111 18.9696 94.0078C19.6758 94.4045 20.4785 94.5967 21.2878 94.5627C22.0971 94.5288 22.8809 94.2701 23.5513 93.8156C24.2218 93.3611 24.7524 92.7288 25.0836 91.9896C25.7946 95.6569 29.0509 96.8513 32.3527 93.1272C33.3601 92.0343 34.1197 90.7367 34.5796 89.3233C35.0395 87.9099 35.1889 86.4138 35.0176 84.9373C34.8463 83.4608 34.3583 82.0387 33.587 80.7681C32.8156 79.4975 31.7791 78.4084 30.5482 77.5752C28.0747 75.8226 25.0248 75.0819 22.023 75.5049C19.0212 75.9279 16.2947 77.4825 14.4018 79.8503C12.3485 82.4765 11.3463 85.7729 11.5902 89.0975C11.8341 92.4221 13.3068 95.537 15.7214 97.8353C20.785 102.403 29.3381 102.427 33.3537 96.7262C33.9893 95.8375 32.5873 94.7639 31.899 95.6043ZM25.0736 83.9769C24.8162 85.1144 23.5436 90.9729 22.7899 91.8688C22.4329 92.2555 21.9536 92.5077 21.4326 92.5828C20.9117 92.6578 20.3807 92.5513 19.929 92.2811C19.5044 91.9772 19.1611 91.5735 18.9295 91.1055C18.6979 90.6376 18.585 90.1198 18.6008 89.5979C18.1074 85.3946 20.6584 82.9516 22.8497 82.9516C23.277 82.922 23.7049 83.0001 24.0941 83.1787C24.4834 83.3573 24.8217 83.6308 25.0779 83.974L25.0736 83.9769Z" fill="#2F80ED"/>
<path d="M182.535 35.2254C175.087 31.5197 166.124 30.7348 158.572 34.5443C157.803 34.9325 158.335 36.2606 159.164 35.952C165.909 33.4412 173.36 33.6055 179.988 36.4113C197.922 44.0515 207.795 71.3745 194.251 91.0147C190.153 96.8304 184.38 101.258 177.7 103.706C171.021 106.154 163.753 106.506 156.868 104.715C150.267 102.87 144.365 99.0963 139.92 93.8782C135.474 88.66 132.686 82.2342 131.913 75.4229C131.002 67.16 132.692 58.8187 136.748 51.5623C140.513 44.8415 146.521 39.6575 153.72 36.9161C153.862 36.8769 153.982 36.7831 154.054 36.6553C154.126 36.5276 154.145 36.3764 154.106 36.235C154.066 36.0936 153.973 35.9735 153.845 35.9012C153.717 35.829 153.566 35.8104 153.424 35.8496C143.023 37.61 130.775 50.7547 129.769 69.8673C129.375 77.2855 131.268 84.6458 135.19 90.9546C139.112 97.2634 144.876 102.217 151.703 105.146C158.621 107.987 166.237 108.667 173.549 107.096C180.862 105.526 187.527 101.778 192.668 96.3457C210.777 76.8534 202.285 45.0511 182.535 35.2254Z" fill="#12121D"/>
<path d="M178.496 44.5109C175.802 43.0773 172.814 42.2859 169.764 42.1985C166.714 42.1112 163.685 42.7303 160.914 44.0075C160.353 44.2919 160.738 45.2674 161.341 45.0442C166.289 43.2161 171.746 43.3325 176.612 45.3698C189.762 50.9425 196.987 71.0064 187.067 85.4166C184.064 89.683 179.83 92.9316 174.932 94.7287C170.033 96.5258 164.703 96.7859 159.653 95.4741C154.812 94.1216 150.485 91.3562 147.224 87.5314C143.964 83.7065 141.918 78.9962 141.348 74.0024C140.674 67.9409 141.911 61.8202 144.888 56.4967C147.646 51.563 152.056 47.7607 157.342 45.7594C157.443 45.727 157.527 45.6568 157.577 45.5637C157.627 45.4705 157.639 45.3617 157.61 45.26C157.581 45.1583 157.514 45.0717 157.423 45.0185C157.332 44.9652 157.223 44.9495 157.121 44.9745C149.476 46.2742 140.521 55.9435 139.773 69.9299C139.484 75.3712 140.872 80.7699 143.748 85.3978C146.624 90.0256 150.851 93.6597 155.858 95.8097C160.929 97.8951 166.513 98.3957 171.874 97.2456C177.236 96.0955 182.123 93.3487 185.893 89.3668C199.225 75.0248 192.97 51.6947 178.496 44.5109Z" fill="#12121D"/>
<path d="M142.55 103.768C142.338 102.925 142.165 102.062 142.017 101.209C141.406 100.645 140.827 100.047 140.285 99.417C140.458 101.119 140.749 102.807 141.158 104.468C141.56 106.082 142.001 108.172 143.586 109.018C143.838 109.152 144.253 108.988 144.224 108.663C144.064 106.938 142.971 105.446 142.55 103.768Z" fill="#12121D"/>
<path d="M96.7556 99.2959C96.6234 99.9031 96.6803 100.776 96.5196 101.369C96.4421 101.895 96.328 102.415 96.1783 102.925C96.2082 103.087 96.1655 102.761 96.1783 102.925C96.5779 108.145 90.8303 112.645 87.6338 119.882C83.9864 128.138 83.5342 136.594 82.3611 145.208C81.134 154.211 79.6992 177.157 76.3476 185.433C74.453 189.883 71.9455 194.047 68.8979 197.804C68.8176 197.894 68.7746 198.012 68.7775 198.133C68.7804 198.254 68.8291 198.369 68.9137 198.455C68.9984 198.542 69.1126 198.593 69.2335 198.599C69.3543 198.604 69.4727 198.563 69.5649 198.485C75.2527 193.545 79.3565 185.019 80.7159 175.766C80.8879 174.602 83.4333 150.67 84.0191 146.383C85.3785 136.429 85.8279 126.987 90.5218 118.108C92.5879 114.201 96.0262 110.974 97.5263 106.528C97.8936 105.333 98.0147 104.076 97.8822 102.833C97.7498 101.59 97.3665 100.387 96.7556 99.2959Z" fill="#12121D"/>
<path d="M76.1547 106.405C78.5223 106.31 80.688 104.719 82.6119 103.277C85.2087 101.241 88.1547 99.6952 91.3058 98.7154C91.3498 98.0627 91.4082 97.4257 91.448 96.7744C83.8405 98.3955 81.0818 102.825 75.8874 105.447C75.7927 105.506 75.7198 105.595 75.6794 105.699C75.6391 105.804 75.6336 105.918 75.6636 106.026C75.6937 106.134 75.7577 106.229 75.8462 106.297C75.9347 106.366 76.0429 106.403 76.1547 106.405Z" fill="#12121D"/>
</svg>
