<svg width="256" height="256" viewBox="0 0 256 256" fill="none" xmlns="http://www.w3.org/2000/svg">
<rect width="256" height="256" fill="#E5E5E5"/>
<rect x="-60" y="-70" width="375" height="812" rx="40" fill="white"/>
<rect x="-60" y="-70" width="375" height="812" fill="white"/>
<path opacity="0.1" d="M23.5492 67.871C16.2996 74.212 12.7774 82.7213 12.7774 91.5732C12.7774 105.171 20.3054 114.081 14.299 127.507C12.4071 131.736 8.54299 135.312 4.46914 137.985C-2.36869 142.471 -7.57459 147.457 -12.4372 153.533C-34.4932 181.092 14.3297 220.544 41.6148 232.477C57.177 239.283 74.2552 239.346 91.4644 237.674C106.11 236.25 121.144 232.203 135.856 234.927C163.924 240.126 179.621 251.152 211.59 247.138C243.089 243.184 272.749 229.82 272.749 201.318C272.749 187.216 274.718 161.835 267.629 148.843L267.307 148.254C263.458 141.204 259.569 134.079 257.412 126.451C249.978 100.159 268.226 79.5215 250.964 52.0695C244.699 42.1064 229.842 41 218.286 41C208.624 41 198.251 42.1771 189.111 45.0137C161.562 53.5638 139.943 58.4338 112.235 49.45C100.88 45.7684 87.1488 45.4958 75.3792 47.929C55.6103 52.016 38.4282 54.8567 23.5492 67.871Z" fill="#2F80ED"/>
<path d="M229.992 35.2399C229.67 32.7319 228.218 32.8 225.279 32.7152C219.591 32.5483 201.387 32.33 196.882 33.2443C196.054 33.4113 196.092 34.7391 196.95 34.7198C204.979 34.5336 214.474 34.463 227.679 34.8161C223.264 39.0089 217.075 44.676 211.475 46.6819C206.806 43.7225 202.383 40.3926 198.248 36.7244C197.578 36.1324 196.753 37.1803 197.285 37.8622C198.773 39.7717 205.315 45.0535 208.909 47.3856C210.579 48.4643 211.799 48.933 213.729 48.002C218.543 45.6789 224.331 40.7541 228.187 37.1289C228.543 43.4522 228.804 49.7138 228.601 55.549C217.965 56.2555 207.297 56.3746 196.648 55.906C196.041 49.5057 195.727 43.7064 195.685 36.7244C195.676 35.4043 194.046 34.9702 194.046 36.5793C194.046 41.5439 194.141 49.5494 194.596 54.392C194.787 56.4467 195.039 57.6525 197.487 57.795C207.798 58.2281 218.125 58.1424 228.427 57.5382C230.596 57.4368 230.577 57.3083 230.703 55.1574C231.082 48.5105 230.844 41.8428 229.992 35.2399V35.2399Z" fill="#2F80ED"/>
<path d="M36.9452 37.7176C15.438 34.5637 6.7557 55.0538 17.0123 63.6847C15.3068 67.2119 13.8788 70.8665 12.7412 74.6156C12.5601 75.5145 13.1765 76.0359 14.0138 75.6853C16.8531 74.4936 22.8245 70.2301 24.8483 68.8612C40.0773 76.5662 56.1294 64.323 52.5864 50.0841C50.6935 42.4703 44.2791 38.7937 36.9452 37.7176ZM45.8997 64.9766C40.4831 69.6895 32.9296 70.1634 26.5537 67.3472C23.7119 66.0913 25.4789 66.7552 15.1246 72.8511C16.2919 70.076 17.2628 67.2123 18.5919 64.5143C19.1055 63.4536 19.1055 63.1993 18.4635 62.588C16.3946 60.5725 15.1081 57.8882 14.8327 55.013C14.5573 52.1378 15.311 49.2582 16.9597 46.8865C20.834 41.2362 27.6889 38.9709 34.3101 39.3973C53.1604 40.6121 54.6372 57.3743 45.8997 64.9766Z" fill="#2F80ED"/>
<path d="M135.291 224.508C134.693 220.364 130.174 216.64 125.834 215.726C116.631 213.791 109.69 221.505 110.991 228.364C108.422 227.785 103.716 228.519 101.767 231.072C97.1063 237.177 101.959 243.407 111.405 243.777C117.184 244.003 130.953 244.277 139.465 243.689C148.939 243.034 154.292 236.661 148.92 227.622C145.987 222.685 138.105 222.679 135.291 224.508ZM139.33 241.715C130.509 242.486 115.958 241.831 111.453 241.831C104.359 241.831 99.9045 237.024 103.26 232.356C104.588 230.511 108.397 229.788 110.509 230.236C111.685 230.485 113.401 231.624 113.034 228.878C112.773 227.714 112.744 226.511 112.949 225.336C113.154 224.162 113.589 223.039 114.229 222.033C118.747 214.824 130.609 216.609 133.026 224.125C133.986 227.114 134.558 226.881 136.697 225.923C139.829 224.51 145.572 225.476 147.356 228.876C151.556 236.847 146.905 241.054 139.33 241.713V241.715Z" fill="#2F80ED"/>
<path d="M59.625 67.2946C59.0368 68.1139 55.7018 72.7986 55.8277 74.0416C55.9137 74.8995 56.8011 75.0895 57.6679 73.8002C58.8237 72.0743 59.9332 70.3111 61.0902 68.5762C61.2605 68.3819 61.3466 68.1279 61.3297 67.8701C61.3127 67.6123 61.194 67.3718 60.9997 67.2015C60.8054 67.0312 60.5514 66.9451 60.2936 66.9621C60.0358 66.979 59.7953 67.0977 59.625 67.292V67.2946Z" fill="#2F80ED"/>
<path d="M49.3697 86.0554C49.0319 87.1739 47.6733 91.4618 47.8556 92.6291C47.9481 93.2172 48.7648 93.7104 49.2053 93.1119C49.8641 92.213 50.9697 87.6273 51.3165 86.4702C51.3715 86.2121 51.3217 85.9426 51.178 85.7212C51.0344 85.4997 50.8086 85.3444 50.5505 85.2894C50.2923 85.2344 50.0228 85.2842 49.8014 85.4279C49.58 85.5715 49.4247 85.7973 49.3697 86.0554V86.0554Z" fill="#2F80ED"/>
<path d="M126.345 211.785C127.894 211.973 129.459 211.989 131.011 211.833C133.411 211.428 132.408 209.751 131.454 209.799C129.931 209.876 128.399 209.962 126.865 210.021C123.975 210.133 123.591 211.463 126.345 211.785Z" fill="#2F80ED"/>
<path d="M73.1189 55.81C71.4209 56.8238 69.914 58.1278 68.6667 59.6625C67.7678 61.0019 68.885 61.5887 69.929 60.781C71.3121 59.7151 72.6425 58.5581 74.0551 57.5038C75.8991 56.1297 74.7678 54.9521 73.1189 55.81Z" fill="#2F80ED"/>
<path d="M46.8631 104.871C45.3311 104.806 45.7073 107.473 45.697 108.563C45.697 109.372 45.3696 112.014 46.4971 112.11C47.6246 112.206 47.5861 109.542 47.6348 108.737C47.6836 107.931 48.2898 104.932 46.8631 104.871Z" fill="#2F80ED"/>
<path d="M143.185 210.899C145.446 210.632 147.668 210.101 149.806 209.318C150.674 208.999 150.77 207.198 148.929 207.52C146.833 208.01 144.764 208.61 142.731 209.318C141.411 209.887 141.662 210.927 143.185 210.899Z" fill="#2F80ED"/>
<path d="M105.014 209.405C105.869 209.873 110.948 211.031 111.761 210.689C111.907 210.626 112.035 210.528 112.133 210.403C112.232 210.278 112.298 210.13 112.325 209.974C112.353 209.817 112.341 209.656 112.292 209.505C112.242 209.354 112.155 209.218 112.04 209.108C109.839 208.49 107.576 208.125 105.293 208.02C105.133 208.031 104.981 208.095 104.86 208.201C104.74 208.307 104.658 208.449 104.626 208.606C104.595 208.764 104.615 208.927 104.685 209.071C104.755 209.215 104.871 209.333 105.014 209.405V209.405Z" fill="#2F80ED"/>
<path d="M164.197 200.883C162.38 201.679 160.61 202.58 158.896 203.58C157.633 204.544 158.27 205.506 159.735 205.092C161.688 204.354 163.586 203.474 165.412 202.461C166.202 202.089 165.999 200.206 164.197 200.883Z" fill="#2F80ED"/>
<path d="M178.23 188.508C176.861 189.78 175.636 191.199 174.578 192.739C173.482 194.332 174.781 195.051 176.505 193.182C177.018 192.621 179.384 190.29 179.444 189.529C179.458 189.374 179.435 189.218 179.376 189.073C179.316 188.929 179.223 188.802 179.104 188.701C178.985 188.601 178.843 188.531 178.691 188.497C178.539 188.464 178.381 188.467 178.23 188.508Z" fill="#2F80ED"/>
<path d="M174.26 55.8569C175.886 56.8111 177.519 57.7678 179.079 58.7489C180.148 59.4218 181.334 57.9501 180.303 57.2079C173.766 52.4963 171.704 54.357 174.26 55.8569Z" fill="#2F80ED"/>
<path d="M74.7487 190.282C73.9191 189.415 72.8224 189.578 73.2077 190.994C73.999 192.638 75.0874 194.122 76.4181 195.371C77.787 196.636 78.6101 194.866 77.8551 194.051C77.3247 193.479 75.6733 191.246 74.7487 190.282Z" fill="#2F80ED"/>
<path d="M189.393 66.807C188.109 65.8426 187.176 66.6336 188.208 68.0308C189.239 69.428 190.134 70.7571 191.099 72.0412C192.181 73.4847 193.39 72.1196 192.843 71.1346C191.929 69.5187 190.765 68.058 189.393 66.807V66.807Z" fill="#2F80ED"/>
<path d="M198.088 78.8935C197.586 78.3927 196.57 78.8935 196.863 79.578C197.558 81.2214 198.376 82.8098 199.312 84.3294C199.473 84.5337 199.708 84.6657 199.967 84.6963C200.225 84.7269 200.485 84.6536 200.689 84.4925C200.894 84.3314 201.026 84.0957 201.056 83.8373C201.087 83.5789 201.014 83.3189 200.853 83.1146C200.076 81.6179 199.149 80.2037 198.088 78.8935V78.8935Z" fill="#2F80ED"/>
<path d="M91.4916 203.775C89.9866 202.828 88.2902 202.033 86.6721 201.018C85.8425 200.505 85.0618 201.298 85.7077 202.205C87.0832 203.596 88.7214 204.7 90.5272 205.453C92.031 205.953 92.736 204.56 91.4916 203.775Z" fill="#2F80ED"/>
<path d="M90.3835 46.2347C88.5337 46.8116 86.7675 47.6284 85.13 48.6643C83.4233 49.8984 84.5996 50.8808 86.0289 50.2451C87.7548 49.4824 89.3164 48.7414 91.0795 48.0865C92.8427 47.4315 92.2173 45.6774 90.3835 46.2347Z" fill="#2F80ED"/>
<path d="M164.071 47.5491C162.703 46.9327 157.651 45.2299 156.101 46.0556C155.985 46.1159 155.888 46.2054 155.818 46.3152C155.748 46.4249 155.708 46.5511 155.702 46.6811C155.697 46.8111 155.725 46.9403 155.785 47.0559C155.844 47.1715 155.933 47.2694 156.043 47.3398C156.564 47.6762 160.187 47.8599 163.262 49.266C163.377 49.3486 163.509 49.4048 163.648 49.4308C163.787 49.4568 163.93 49.4519 164.067 49.4164C164.204 49.3809 164.332 49.3157 164.44 49.2255C164.549 49.1352 164.637 49.0221 164.697 48.8941C164.758 48.7662 164.789 48.6265 164.79 48.4851C164.79 48.3436 164.759 48.2038 164.699 48.0756C164.64 47.9473 164.552 47.8338 164.444 47.743C164.335 47.6523 164.208 47.5865 164.071 47.5504V47.5491Z" fill="#2F80ED"/>
<path d="M204.42 94.3063C203.514 92.9092 202.879 93.8826 202.869 94.3063C203.158 95.9379 203.557 97.5481 204.063 99.1258C204.35 100.65 206.413 100.686 205.989 98.5967C205.684 97.0962 205.155 95.65 204.42 94.3063V94.3063Z" fill="#2F80ED"/>
<path d="M216.363 198.281C215.789 194.043 215.098 190.097 214.733 185.75C214.526 183.273 212.66 183.407 212.807 186.007C213.067 190.248 213.784 194.449 214.946 198.537C214.999 198.705 215.112 198.848 215.263 198.939C215.414 199.03 215.593 199.063 215.767 199.032C215.94 199.001 216.097 198.907 216.206 198.769C216.316 198.631 216.372 198.457 216.363 198.281Z" fill="#12121D"/>
<path d="M191.919 198.483C192.854 194.153 193.455 189.758 193.717 185.336C193.822 183.888 192.068 183.331 191.896 185.182C191.41 190.406 190.922 194.171 190.199 198.378C189.919 200.025 191.504 200.29 191.919 198.483Z" fill="#12121D"/>
<path d="M222.609 201.173C213.654 201.539 197.78 201.418 185.508 201.471C183.773 201.479 183.157 203.14 185.508 203.269C194.394 203.732 212.68 203.694 222.532 203.269C223.899 203.205 223.948 201.118 222.609 201.173Z" fill="#12121D"/>
<path d="M243.631 168.806C217.391 169.338 184.903 168.825 158.876 168.633C158.046 168.633 158.258 169.961 158.972 169.991C179.542 170.861 222.153 171.147 243.514 170.599C244.662 170.569 244.788 168.782 243.631 168.806Z" fill="#12121D"/>
<path d="M244.603 113.171C217.825 113.034 185.026 113.204 158.949 113.325C158.081 113.325 157.984 114.895 158.891 114.895C187.509 114.895 216.142 115.396 244.753 114.789C245.878 114.765 245.712 113.176 244.603 113.171Z" fill="#12121D"/>
<path d="M249.52 121.219C249.239 111.58 249.649 105.099 237.954 104.91C214.821 104.536 192.285 104.322 169.122 104.341C160.005 104.349 154.942 106.403 154.723 116.872C154.363 133.894 154.338 152.671 154.851 167.697C155.202 178.03 157.194 181.746 167.526 182.02C190.438 182.629 213.499 182.686 236.184 182.29C247.25 182.097 250.115 179.939 249.997 168.796C249.849 155.132 249.97 136.583 249.52 121.219ZM236.256 180.546C213.885 180.894 189.026 181.019 167.82 180.382C158.384 180.099 156.735 176.709 156.697 167.852C156.629 151.672 156.204 133.95 156.611 116.842C156.826 107.753 161.131 105.936 169.527 105.927C190.568 105.914 215.705 106.606 237.788 106.64C247.957 106.655 247.43 111.237 247.756 121.098C248.26 136.423 248.18 153.504 248.199 168.906C248.213 179.322 244.923 180.411 236.256 180.546Z" fill="#12121D"/>
<path d="M12.2123 173.496C12.2315 174.354 13.6107 174.016 13.5799 173.313C13.2165 164.985 13.0894 144.301 13.0662 133.428C13.047 126.276 12.6129 121.434 21.1051 121.312C41.1831 121.024 61.2508 121.025 81.3185 120.888C91.6804 120.816 90.9382 127.22 91.0448 134.998C91.2233 148.07 91.1167 161.58 91.2862 173.824C91.2978 174.723 92.7681 174.538 92.7797 173.727C92.9081 165.053 93.2998 146.547 93.2805 134.998C93.2638 125.051 92.4907 118.931 80.625 118.931C60.7397 118.931 40.9519 119.298 21.1051 119.509C11.1092 119.615 10.9435 125.287 11.0809 133.283C11.2915 145.943 11.9375 161.78 12.2123 173.496Z" fill="#12121D"/>
<path d="M86.2576 126.077C64.7529 126.194 36.7631 126.376 15.5371 126.462C14.574 126.462 14.66 128.071 15.5371 128.082C23.7879 128.186 33.3408 128.217 43.1724 128.197C40.2207 129.137 37.7035 131.103 36.0774 133.74C31.4608 130.26 26.0339 137.287 35.1785 149.306C34.2629 152.632 35.8527 157.645 39.2262 157.645C39.781 161.476 40.0774 165.34 40.1135 169.211C40.1135 170.319 41.4555 171.457 41.5878 168.247C41.6571 166.577 41.0292 156.911 40.1225 156.276C39.3803 155.754 36.8402 156.147 36.7978 151.321C36.7734 148.671 37.9677 147.983 40.3152 149.138C40.9919 149.473 41.4324 148.838 41.6173 148.289C42.0951 145.727 42.2109 143.111 41.9615 140.516C46.6654 140.613 60.3174 138.197 61.789 135.098C62.3569 133.925 62.5009 132.591 62.1966 131.323C61.8922 130.056 61.1583 128.932 60.1196 128.145H86.0161C87.2926 128.068 87.5006 126.071 86.2576 126.077Z" fill="#12121D"/>
<path d="M98.6817 176.883C71.2595 177.048 35.1449 176.569 8.74111 176.342C6.33201 176.322 5.83119 176.046 6.04436 178.935C6.42961 184.163 9.80312 185.484 14.5456 185.769C39.2196 187.25 67.5586 186.54 92.3661 186.026C97.6094 185.918 100.528 183.915 100.424 178.595C100.391 176.785 100.455 176.871 98.6817 176.883ZM92.1953 184.092C76.0893 184.655 28.8576 184.873 15.0066 183.908C9.4641 183.523 8.20048 181.547 7.78698 177.895C34.7763 178.858 71.4034 178.762 98.5661 178.858C98.5276 183.383 96.234 183.951 92.1953 184.092Z" fill="#12121D"/>
<path d="M141.903 20.0768C132.35 20.245 116.99 20.5404 107.202 20.5404C106.017 20.5404 105.698 22.2329 107.116 22.2368C115.705 22.2599 134.104 22.3652 142.124 22.0441C144.167 21.9632 144.457 20.037 141.903 20.0768Z" fill="#12121D"/>
<path d="M143.039 80.8311C131.569 80.8747 119.049 80.9466 107.685 80.9852C106.258 80.9852 106.152 82.7368 107.685 82.7689C119.106 83.0013 131.646 82.7689 143.232 82.7689C144.485 82.7689 144.293 80.8259 143.039 80.8311Z" fill="#12121D"/>
<path d="M147.85 22.9117C147.913 16.1647 146.481 11.2258 138.895 11.1141C130.452 10.9857 121.072 10.9035 112.648 11.2194C106.981 11.4326 103.009 12.9646 103.221 22.5547C103.664 42.4786 103.451 62.4217 103.771 82.0464C103.857 87.3384 105.612 90.8776 111.617 91.155C119.858 91.5402 129.15 91.4208 137.488 91.2128C146.511 90.9881 148.147 88.186 148.09 79.3663C147.96 60.5905 147.674 41.6786 147.85 22.9117ZM136.688 89.2082C128.399 89.2236 119.656 89.5934 111.433 89.3623C106.692 89.2275 105.385 86.0376 105.409 81.8628C105.438 77.1113 105.486 72.2238 105.486 67.2695C108.127 65.7491 111.069 64.8284 114.105 64.5727C114.105 64.9387 113.998 65.3047 113.976 65.6707C113.976 66.2974 115.059 66.6338 115.21 65.9609C118.028 53.43 119.481 51.767 118.844 51.5307C118.278 51.3214 115.472 51.2739 115.664 47.293C115.8 44.4485 117.82 43.4404 118.757 44.7182C118.997 45.0469 119.427 44.8993 119.895 44.5166C122.308 42.5078 124 39.7666 124.714 36.7088C128.512 38.6351 141.158 40.1504 143.182 38.3577C145.563 36.2465 147.548 24.2319 129.177 23.6964C112.56 23.2161 108.848 41.4808 105.456 48.9405C105.379 40.0438 105.244 31.0033 105.205 21.9525C105.181 16.4678 106.737 13.2779 112.742 13.1418C121.119 12.9517 130.507 12.9761 139.008 13.0647C145.341 13.1302 145.883 18.2887 145.929 23.089C146.097 40.266 146.141 57.4225 146.333 74.5841C143.379 68.9081 140.888 63.0027 138.885 56.9255C139.173 55.9838 139.363 55.0152 139.454 54.0348C139.558 52.9831 138.211 52.9163 138.057 53.977C137.681 56.5698 135.571 61.7655 133.323 63.2783C129.913 65.5744 126.185 62.6824 123.307 60.936C122.707 60.5725 122.176 61.2275 122.665 61.7938C123.997 63.3017 125.688 64.4499 127.581 65.1326C127.581 66.4039 127.475 67.5725 127.418 68.7848C127.395 68.9526 127.439 69.1225 127.539 69.2589C127.64 69.3953 127.789 69.4876 127.956 69.5166C128.122 69.5457 128.294 69.5091 128.434 69.4146C128.575 69.3201 128.673 69.175 128.709 69.0095C128.734 68.8644 128.934 67.3196 128.96 67.1269C133.962 68.727 140.122 74.8319 141.692 79.2238C142.55 79.3522 144.261 79.2238 146.377 79.2919C146.385 86.9031 144.741 89.1928 136.688 89.2082V89.2082Z" fill="#12121D"/>
<path d="M182.385 148.968C182.716 153.4 184.825 155.89 188.834 157.364C188.445 158.839 188.257 160.359 188.276 161.884C188.308 162.036 188.389 162.173 188.507 162.274C188.626 162.374 188.774 162.433 188.929 162.441C189.084 162.449 189.237 162.405 189.365 162.316C189.492 162.228 189.587 162.1 189.634 161.952C189.923 160.594 190.222 159.244 190.511 157.884C194.946 159.013 201.775 158.431 205.056 155.601C205.698 155.042 205.056 153.931 204.362 154.29C202.233 155.548 199.858 156.333 197.398 156.591C194.938 156.849 192.452 156.573 190.108 155.783C185.944 154.512 184.428 152.39 184.026 148.207C183.542 143.184 184.835 134.2 186.358 128.649C186.42 128.477 186.41 128.289 186.333 128.124C186.255 127.96 186.115 127.833 185.944 127.772C185.772 127.71 185.584 127.72 185.419 127.797C185.255 127.875 185.128 128.015 185.066 128.186C182.785 134.863 181.873 141.931 182.385 148.968V148.968Z" fill="#12121D"/>
<path d="M199.205 118.433C197.279 114.144 189.393 115.993 189.798 119.396C188.218 116.11 182.164 117.15 182.675 122.769C183.272 129.343 201.952 128.795 206.965 128.919C206.097 133.43 207.294 140.883 209.085 139.578C210.223 138.75 211.774 137.652 213.201 138.613C215.33 140.05 213.426 144.777 211.128 146.267C208.162 148.183 208.344 147.356 208.613 150.691C208.768 152.617 208.705 158.139 209.577 160.773C209.756 161.311 210.681 161.391 210.762 160.773C210.929 159.489 210.339 151.568 210.213 149.052C212.632 148.146 218.281 143.394 215.186 137.92C227.871 128.637 215.64 117.793 210.106 122.381C211.985 115.936 200.882 113.873 199.205 118.433Z" fill="#12121D"/>
<path d="M180.38 166.599C182.602 165.623 184.053 164.584 186.511 163.639C191.144 168.343 203.462 169.658 212.72 163.572C214.801 165.102 217.068 166.362 219.467 167.322C220.702 167.805 221.307 166.474 220.064 165.876C217.788 164.779 216.322 163.521 214.285 162.319C212.359 161.189 212.473 161.52 210.891 162.464C207.597 164.459 203.843 165.572 199.994 165.693C196.144 165.815 192.328 164.941 188.915 163.157C186.758 161.989 187.415 161.298 184.607 162.387C182.773 163.093 181.055 164.067 179.507 165.278C178.53 166.252 179.037 167.188 180.38 166.599Z" fill="#12121D"/>
<path d="M202.425 132.67C201.996 131.928 201.387 131.308 200.654 130.866C199.921 130.424 199.087 130.176 198.232 130.144C197.985 130.145 197.746 130.235 197.56 130.398C197.374 130.561 197.253 130.785 197.219 131.03C197.185 131.275 197.24 131.524 197.375 131.731C197.51 131.939 197.715 132.09 197.953 132.158C199.112 132.253 200.194 132.775 200.989 133.624C201.789 134.751 203.064 133.791 202.425 132.67Z" fill="#12121D"/>
<path d="M189.827 130.897C190.076 130.896 190.316 130.799 190.495 130.625C190.674 130.452 190.779 130.216 190.788 129.966C190.797 129.717 190.709 129.474 190.542 129.288C190.376 129.102 190.144 128.989 189.895 128.97C189.235 128.84 188.552 128.926 187.945 129.216C187.339 129.506 186.843 129.984 186.53 130.579C186.083 131.422 186.945 131.98 187.619 131.437C187.923 131.188 188.28 131.01 188.662 130.916C189.044 130.823 189.442 130.816 189.827 130.897Z" fill="#12121D"/>
<path d="M193.923 142.608C193.268 142.105 191.12 142.453 191.031 142.145C190.831 141.441 192.572 138.512 192.584 136.824C192.584 136.14 191.927 135.974 191.514 136.535C190.884 137.391 188.959 141.827 189.354 142.916C189.949 144.549 195.633 143.921 193.923 142.608Z" fill="#12121D"/>
<path d="M197.217 136.111C196.032 136.044 195.577 138.63 196.475 138.819C197.74 139.08 198.434 136.179 197.217 136.111Z" fill="#12121D"/>
<path d="M187.533 137.016C188.785 137.472 189.347 134.65 188.497 134.347C187.391 133.954 186.347 136.585 187.533 137.016Z" fill="#12121D"/>
<path d="M200.767 145.798C200.556 142.412 199.473 145.441 193.47 146.299C192.014 146.507 191.956 147.018 192.612 148.225C194.558 151.811 201.149 151.922 200.767 145.798ZM199.273 146.01C199.396 146.663 199.274 147.337 198.932 147.906C198.59 148.475 198.051 148.899 197.417 149.096C196.783 149.294 196.099 149.251 195.494 148.977C194.889 148.703 194.406 148.217 194.136 147.61C195.929 147.386 197.668 146.846 199.272 146.015L199.273 146.01Z" fill="#12121D"/>
<path d="M33.9469 174.387C32.8296 175.787 34.16 176.169 34.9742 175.466C36.2157 174.276 37.693 173.36 39.3108 172.776C43.0991 173.741 49.8179 175.947 53.5086 176.237C55.5915 176.4 59.8614 172.507 61.4704 171.061C63.4244 172.156 65.3135 173.363 67.1285 174.676C68.8981 175.96 69.386 174.538 67.6884 173.345C66.2052 172.303 64.3495 170.836 62.8085 169.991C61.4306 169.237 61.2367 168.93 60.0322 170.12C58.2639 172.084 56.1375 173.694 53.7667 174.862C49.2939 174.12 40.8993 171.515 39.7423 171.383C37.9573 171.174 35.0756 172.972 33.9469 174.387Z" fill="#12121D"/>
<path d="M45.254 163.937C48.4156 165.956 52.8884 168.111 57.0812 167.456C57.0812 168.506 57.4755 170.348 58.2858 170.409C59.0961 170.471 58.9599 168.365 58.6132 167.071C66.0357 164.487 64.5872 155.591 63.7319 149.412C63.3313 146.521 62.2757 140.351 61.1199 137.893C61.0412 137.753 60.9158 137.645 60.7656 137.588C60.6153 137.531 60.4499 137.529 60.2982 137.582C60.1465 137.635 60.0182 137.739 59.9358 137.877C59.8534 138.015 59.822 138.177 59.8473 138.336C60.9226 142.284 61.7499 146.296 62.3245 150.347C63.0385 155.462 64.0221 163.565 57.6295 165.393C53.4766 166.581 48.7688 164.412 45.7651 162.502C44.7275 161.84 44.2357 163.287 45.254 163.937Z" fill="#12121D"/>
<path d="M51.5861 156.121C50.0811 157.097 53.2684 159.707 55.8753 159.013C56.9026 158.741 56.7536 157.819 55.7597 157.914C52.6764 158.215 52.7303 155.379 51.5861 156.121Z" fill="#12121D"/>
<path d="M50.7861 141.614C50.0059 141.607 49.2472 141.87 48.6387 142.359C48.0302 142.847 47.6093 143.531 47.4473 144.294C47.3189 145.355 48.3244 145.692 48.7571 144.786C48.9927 144.38 49.3277 144.04 49.7308 143.799C50.1338 143.558 50.5915 143.424 51.0609 143.408C52.0587 143.244 52.146 141.76 50.7861 141.614Z" fill="#12121D"/>
<path d="M51.0944 146.463C50.1338 146.78 50.3329 149.458 51.6735 149.056C52.6457 148.764 52.3708 146.042 51.0944 146.463Z" fill="#12121D"/>
<path d="M57.0041 153.055C59.9666 152.481 59.3734 152.149 57.3791 147.214C57.3531 147.147 57.3143 147.087 57.2649 147.035C57.2154 146.984 57.1564 146.942 57.091 146.914C57.0257 146.885 56.9553 146.87 56.884 146.868C56.8127 146.867 56.7418 146.879 56.6753 146.905C56.6089 146.931 56.5482 146.97 56.4968 147.02C56.4453 147.069 56.4041 147.128 56.3755 147.193C56.3469 147.259 56.3314 147.329 56.33 147.4C56.3285 147.472 56.3412 147.543 56.3671 147.609C56.8326 148.857 57.1767 150.147 57.3945 151.462C57.3071 151.808 55.7559 151.74 55.3128 152.232C55.047 152.486 54.6322 153.515 57.0041 153.055Z" fill="#12121D"/>
<path d="M58.6234 144.92C57.7733 145.236 58.1598 147.518 59.182 147.31C60.3955 147.065 59.6918 144.522 58.6234 144.92Z" fill="#12121D"/>
<path d="M59.2013 140.255C58.842 140.032 58.4374 139.892 58.017 139.845C57.5966 139.799 57.1712 139.847 56.7717 139.986C56.0487 140.304 55.8085 141.489 56.9001 141.605C57.4497 141.663 58.2587 141.364 58.9342 141.652C59.6097 141.941 60.271 141.007 59.2013 140.255Z" fill="#12121D"/>
<path d="M134.414 49.5537C133.671 49.5537 134.046 51.8652 134.104 52.9375C133.463 52.8862 132.819 52.8862 132.178 52.9375C131.215 53.2174 131.793 54.3501 134.694 54.1331C135.464 54.0753 135.409 52.9465 135.359 52.3879C135.265 51.3567 135.03 49.5537 134.414 49.5537Z" fill="#12121D"/>
<path d="M128.717 42.1792C129.592 41.955 130.5 41.8962 131.396 42.0059C133.073 42.3346 132.774 40.4931 131.492 40.2902C130.324 40.0955 129.126 40.3656 128.154 41.0427C128.057 41.1429 127.995 41.2702 127.974 41.4073C127.953 41.5445 127.974 41.6848 128.036 41.8091C128.098 41.9334 128.196 42.0356 128.318 42.1019C128.44 42.1681 128.579 42.1951 128.717 42.1792V42.1792Z" fill="#12121D"/>
<path d="M130.673 56.7152C128.105 56.0307 128.373 53.8039 127.233 54.1802C125.147 54.8685 128.774 58.2086 130.711 57.921C131.468 57.808 131.853 57.0285 130.673 56.7152Z" fill="#12121D"/>
<path d="M136.604 42.8058C137.261 42.9734 137.905 43.188 138.531 43.4479C139.301 43.6406 139.417 43.0717 139.224 42.6094C138.949 42.1862 138.562 41.8476 138.106 41.6313C137.649 41.415 137.142 41.3295 136.64 41.3843C135.734 41.582 135.676 42.6389 136.604 42.8058Z" fill="#12121D"/>
<path d="M138.346 48.3211C137.72 48.1323 136.958 49.8518 137.989 50.0072C138.75 50.1228 138.877 48.4803 138.346 48.3211Z" fill="#12121D"/>
<path d="M130.142 46.566C129.073 46.4003 128.938 48.4922 129.699 48.5706C130.461 48.6489 131.068 46.7085 130.142 46.566Z" fill="#12121D"/>
<path d="M121.883 44.8694C122.576 44.9213 123.265 45.0178 123.945 45.1583C123.046 49.486 123.329 49.7325 127.859 50.4401C131.483 51.0064 132.45 51.1669 132.968 49.4757C133.234 48.5902 133.427 47.6844 133.546 46.7674C133.893 46.6554 134.262 46.6276 134.623 46.6864C134.983 46.7451 135.324 46.8886 135.618 47.1051C135.408 47.9966 135.295 48.908 135.28 49.8237C135.275 50.2706 135.424 50.7057 135.701 51.0563C135.978 51.4069 136.367 51.6518 136.803 51.75C137.897 52.0258 139.008 52.2253 140.129 52.3471C141.157 52.446 141.755 52.2315 142.259 49.7544C142.537 48.3854 143.286 46.2871 141.536 45.7452C140.322 45.3599 136.977 44.6357 136.399 45.4884C135.983 45.1978 135.503 45.0112 135 44.9441C134.497 44.8771 133.985 44.9316 133.507 45.1031C133.764 43.4337 128.264 42.6991 125.902 42.7325C125.064 42.7441 124.64 42.9252 124.388 43.4452C120.475 42.5938 120.957 44.8 121.883 44.8694ZM137.304 46.6428C138.542 46.7608 139.768 46.9833 140.968 47.308C140.852 48.4869 140.623 49.6519 140.284 50.7868C139.07 50.6455 137.866 50.4311 136.678 50.1447C136.825 48.9715 137.051 47.8093 137.353 46.6659L137.304 46.6428ZM132.157 45.4948C132.031 46.7793 131.766 48.0465 131.368 49.2741C129.246 49.1 127.14 48.7778 125.064 48.3097C125.216 46.9411 125.48 45.5874 125.853 44.262C127.993 44.441 130.107 44.8544 132.157 45.4948V45.4948Z" fill="#12121D"/>
<path d="M139.974 44.1658C139.918 45.3023 141.095 45.1764 141.208 44.4547C141.434 43.1173 141.398 41.7489 141.103 40.425C141.062 40.2772 140.966 40.1506 140.835 40.0714C140.704 39.9922 140.547 39.9664 140.397 39.9993C140.248 40.0323 140.116 40.1215 140.03 40.2484C139.944 40.3754 139.91 40.5306 139.936 40.6818C140.026 41.841 140.039 43.0049 139.974 44.1658V44.1658Z" fill="#12121D"/>
<path d="M107.897 69.7962C109.351 69.0011 110.882 68.3557 112.466 67.8699C114.989 70.5406 117.916 72.7979 121.141 74.5591C122.959 75.5595 123.749 75.5467 125.323 74.4911C126.738 73.5297 128.09 72.4801 129.372 71.3487C132.932 73.4261 136.091 76.1224 138.703 79.3106C139.426 80.0721 140.317 79.8782 139.859 78.6171C138.831 75.7919 131.784 69.9271 129.257 69.5855C128.358 69.4648 125.652 72.8139 123.233 73.7976C119.707 72.0326 116.459 69.7593 113.594 67.0506C112.869 66.3751 112.624 66.2108 111.667 66.4817C110.021 66.966 108.485 67.7659 107.145 68.8369C106.239 69.7962 106.964 70.2918 107.897 69.7962Z" fill="#12121D"/>
</svg>
